M48
; DRILL file {KiCad 9.0.7} date 2026-03-12T09:50:37-0400
; FORMAT={-:-/ absolute / metric / decimal}
; #@! TF.CreationDate,2026-03-12T09:50:37-04:00
; #@! TF.GenerationSoftware,Kicad,Pcbnew,9.0.7
; #@! TF.FileFunction,Plated,1,2,PTH
FMAT,2
METRIC
; #@! TA.AperFunction,Plated,PTH,ViaDrill
T1C0.300
; #@! TA.AperFunction,Plated,PTH,ComponentDrill
T2C0.800
; #@! TA.AperFunction,Plated,PTH,ComponentDrill
T3C0.900
; #@! TA.AperFunction,Plated,PTH,ComponentDrill
T4C1.000
; #@! TA.AperFunction,Plated,PTH,ComponentDrill
T5C1.092
%
G90
G05
T1
X80.7Y-116.4
X85.9Y-73.2
X94.6Y-122.3
X99.9Y-132.0
X102.1Y-114.5
X111.4Y-67.1
X132.2Y-66.8
X141.7Y-114.7
X141.7Y-117.0
X152.54Y-65.94
X157.8Y-107.1
T2
X102.4Y-64.5
X102.4Y-69.58
X104.94Y-67.04
X123.5Y-64.2
X123.5Y-69.28
X126.04Y-66.74
X142.6Y-63.7
X142.6Y-68.78
X145.14Y-66.24
X156.79Y-93.46
X164.41Y-93.46
X174.99Y-113.56
X175.18Y-126.66
X175.29Y-138.36
X182.61Y-113.56
X182.8Y-126.66
X182.91Y-138.36
T3
X159.56Y-114.76
X159.56Y-126.46
X159.76Y-138.16
X162.1Y-114.76
X162.1Y-126.46
X162.3Y-138.16
T4
X83.51Y-93.95
X83.52Y-81.4
X86.05Y-93.95
X86.06Y-81.4
X88.59Y-93.95
X88.6Y-81.4
X91.13Y-93.95
X91.14Y-81.4
X93.67Y-93.95
X93.68Y-81.4
X96.21Y-93.95
X96.22Y-81.4
X106.165Y-104.31
X106.165Y-106.85
X106.165Y-109.39
X106.165Y-111.93
X106.165Y-114.47
X106.165Y-117.01
X106.165Y-119.55
X106.165Y-122.09
X106.165Y-124.63
X106.165Y-127.17
X106.165Y-129.71
X106.165Y-132.25
X106.165Y-134.79
X106.165Y-137.33
X106.165Y-139.87
X106.165Y-142.41
X136.2Y-104.38
X136.2Y-106.92
X136.2Y-109.46
X136.2Y-112.0
X136.2Y-114.54
X136.2Y-117.08
X136.2Y-119.62
X136.2Y-122.16
X136.2Y-124.7
X136.2Y-127.24
X136.2Y-129.78
X136.2Y-132.32
X136.2Y-134.86
X136.2Y-137.4
X136.2Y-139.94
X136.2Y-142.48
T5
X180.4Y-96.9
X180.4Y-101.98
M30
