%TF.GenerationSoftware,KiCad,Pcbnew,9.0.7*%
%TF.CreationDate,2026-03-12T09:49:18-04:00*%
%TF.ProjectId,Projet-mi-session,50726f6a-6574-42d6-9d69-2d7365737369,rev?*%
%TF.SameCoordinates,Original*%
%TF.FileFunction,Copper,L1,Top*%
%TF.FilePolarity,Positive*%
%FSLAX46Y46*%
G04 Gerber Fmt 4.6, Leading zero omitted, Abs format (unit mm)*
G04 Created by KiCad (PCBNEW 9.0.7) date 2026-03-12 09:49:18*
%MOMM*%
%LPD*%
G01*
G04 APERTURE LIST*
%TA.AperFunction,ComponentPad*%
%ADD10C,1.600000*%
%TD*%
%TA.AperFunction,ComponentPad*%
%ADD11C,1.440000*%
%TD*%
%TA.AperFunction,ComponentPad*%
%ADD12R,1.800000X1.800000*%
%TD*%
%TA.AperFunction,ComponentPad*%
%ADD13C,1.800000*%
%TD*%
%TA.AperFunction,ComponentPad*%
%ADD14R,1.700000X1.700000*%
%TD*%
%TA.AperFunction,ComponentPad*%
%ADD15C,1.700000*%
%TD*%
%TA.AperFunction,ComponentPad*%
%ADD16R,1.600200X1.600200*%
%TD*%
%TA.AperFunction,ComponentPad*%
%ADD17C,1.600200*%
%TD*%
%TA.AperFunction,ViaPad*%
%ADD18C,0.600000*%
%TD*%
%TA.AperFunction,Conductor*%
%ADD19C,0.250000*%
%TD*%
%TA.AperFunction,Conductor*%
%ADD20C,0.400000*%
%TD*%
G04 APERTURE END LIST*
D10*
%TO.P,R4,1*%
%TO.N,GND*%
X164410000Y-93460000D03*
%TO.P,R4,2*%
%TO.N,+3.3V*%
X156790000Y-93460000D03*
%TD*%
%TO.P,R2,1*%
%TO.N,GND*%
X182910000Y-138360000D03*
%TO.P,R2,2*%
%TO.N,Net-(D2-K)*%
X175290000Y-138360000D03*
%TD*%
%TO.P,R1,1*%
%TO.N,GND*%
X182800000Y-126660000D03*
%TO.P,R1,2*%
%TO.N,Net-(D1-K)*%
X175180000Y-126660000D03*
%TD*%
D11*
%TO.P,POT2,1,1*%
%TO.N,+3.3V*%
X142600000Y-68780000D03*
%TO.P,POT2,2,2*%
%TO.N,Net-(J3-Pin_22)*%
X145140000Y-66240000D03*
%TO.P,POT2,3,3*%
%TO.N,GND*%
X142600000Y-63700000D03*
%TD*%
%TO.P,POT3,1,1*%
%TO.N,+3.3V*%
X123500000Y-69280000D03*
%TO.P,POT3,2,2*%
%TO.N,Net-(J3-Pin_21)*%
X126040000Y-66740000D03*
%TO.P,POT3,3,3*%
%TO.N,GND*%
X123500000Y-64200000D03*
%TD*%
D12*
%TO.P,D3,1,K*%
%TO.N,Net-(D3-K)*%
X162100000Y-114760000D03*
D13*
%TO.P,D3,2,A*%
%TO.N,Net-(D3-A)*%
X159560000Y-114760000D03*
%TD*%
D14*
%TO.P,J2,1,Pin_1*%
%TO.N,unconnected-(J3-Pin_1-Pad1)*%
X106165000Y-104310000D03*
D15*
%TO.P,J2,2,Pin_2*%
%TO.N,unconnected-(J3-Pin_2-Pad2)*%
X106165000Y-106850000D03*
%TO.P,J2,3,Pin_3*%
%TO.N,unconnected-(J3-Pin_3-Pad3)*%
X106165000Y-109390000D03*
%TO.P,J2,4,Pin_4*%
%TO.N,unconnected-(J3-Pin_4-Pad4)*%
X106165000Y-111930000D03*
%TO.P,J2,5,Pin_5*%
%TO.N,Net-(J1-Pin_9)*%
X106165000Y-114470000D03*
%TO.P,J2,6,Pin_6*%
%TO.N,Net-(J1-Pin_8)*%
X106165000Y-117010000D03*
%TO.P,J2,7,Pin_7*%
%TO.N,unconnected-(J3-Pin_7-Pad7)*%
X106165000Y-119550000D03*
%TO.P,J2,8,Pin_8*%
%TO.N,unconnected-(J3-Pin_8-Pad8)*%
X106165000Y-122090000D03*
%TO.P,J2,9,Pin_9*%
%TO.N,unconnected-(J3-Pin_9-Pad9)*%
X106165000Y-124630000D03*
%TO.P,J2,10,Pin_10*%
%TO.N,unconnected-(J3-Pin_10-Pad10)*%
X106165000Y-127170000D03*
%TO.P,J2,11,Pin_11*%
%TO.N,unconnected-(J3-Pin_11-Pad11)*%
X106165000Y-129710000D03*
%TO.P,J2,12,Pin_12*%
%TO.N,Net-(J3-Pin_12)*%
X106165000Y-132250000D03*
%TO.P,J2,13,Pin_13*%
%TO.N,unconnected-(J3-Pin_13-Pad13)*%
X106165000Y-134790000D03*
%TO.P,J2,14,Pin_14*%
%TO.N,unconnected-(J3-Pin_14-Pad14)*%
X106165000Y-137330000D03*
%TO.P,J2,15,Pin_15*%
%TO.N,unconnected-(J3-Pin_15-Pad15)*%
X106165000Y-139870000D03*
%TO.P,J2,16,Pin_16*%
%TO.N,unconnected-(J3-Pin_16-Pad16)*%
X106165000Y-142410000D03*
D14*
%TO.P,J2,17,Pin_17*%
%TO.N,+3.3V*%
X136200000Y-104380000D03*
D15*
%TO.P,J2,18,Pin_18*%
%TO.N,GND*%
X136200000Y-106920000D03*
%TO.P,J2,19,Pin_19*%
%TO.N,Net-(J3-Pin_19)*%
X136200000Y-109460000D03*
%TO.P,J2,20,Pin_20*%
%TO.N,unconnected-(J3-Pin_20-Pad20)*%
X136200000Y-112000000D03*
%TO.P,J2,21,Pin_21*%
%TO.N,Net-(J3-Pin_21)*%
X136200000Y-114540000D03*
%TO.P,J2,22,Pin_22*%
%TO.N,Net-(J3-Pin_22)*%
X136200000Y-117080000D03*
%TO.P,J2,23,Pin_23*%
%TO.N,unconnected-(J3-Pin_23-Pad23)*%
X136200000Y-119620000D03*
%TO.P,J2,24,Pin_24*%
%TO.N,unconnected-(J3-Pin_24-Pad24)*%
X136200000Y-122160000D03*
%TO.P,J2,25,Pin_25*%
%TO.N,unconnected-(J3-Pin_25-Pad25)*%
X136200000Y-124700000D03*
%TO.P,J2,26,Pin_26*%
%TO.N,unconnected-(J3-Pin_26-Pad26)*%
X136200000Y-127240000D03*
%TO.P,J2,27,Pin_27*%
%TO.N,Net-(D3-A)*%
X136200000Y-129780000D03*
%TO.P,J2,28,Pin_28*%
%TO.N,unconnected-(J3-Pin_28-Pad28)*%
X136200000Y-132320000D03*
%TO.P,J2,29,Pin_29*%
%TO.N,Net-(D1-A)*%
X136200000Y-134860000D03*
%TO.P,J2,30,Pin_30*%
%TO.N,Net-(D2-A)*%
X136200000Y-137400000D03*
%TO.P,J2,31,Pin_31*%
%TO.N,unconnected-(J3-Pin_31-Pad31)*%
X136200000Y-139940000D03*
%TO.P,J2,32,Pin_32*%
%TO.N,unconnected-(J3-Pin_32-Pad32)*%
X136200000Y-142480000D03*
%TD*%
D11*
%TO.P,POT1,1,1*%
%TO.N,+3.3V*%
X102400000Y-69580000D03*
%TO.P,POT1,2,2*%
%TO.N,Net-(J3-Pin_12)*%
X104940000Y-67040000D03*
%TO.P,POT1,3,3*%
%TO.N,GND*%
X102400000Y-64500000D03*
%TD*%
D14*
%TO.P,J1,1,Pin_1*%
%TO.N,unconnected-(J1-Pin_1-Pad1)*%
X83510000Y-93950000D03*
D15*
%TO.P,J1,2,Pin_2*%
%TO.N,unconnected-(J1-Pin_2-Pad2)*%
X86050000Y-93950000D03*
%TO.P,J1,3,Pin_3*%
%TO.N,unconnected-(J1-Pin_3-Pad3)*%
X88590000Y-93950000D03*
%TO.P,J1,4,Pin_4*%
%TO.N,unconnected-(J1-Pin_4-Pad4)*%
X91130000Y-93950000D03*
%TO.P,J1,5,Pin_5*%
%TO.N,unconnected-(J1-Pin_5-Pad5)*%
X93670000Y-93950000D03*
%TO.P,J1,6,Pin_6*%
%TO.N,unconnected-(J1-Pin_6-Pad6)*%
X96210000Y-93950000D03*
D14*
%TO.P,J1,7,Pin_7*%
%TO.N,unconnected-(J1-Pin_7-Pad7)*%
X83520000Y-81400000D03*
D15*
%TO.P,J1,8,Pin_8*%
%TO.N,Net-(J1-Pin_8)*%
X86060000Y-81400000D03*
%TO.P,J1,9,Pin_9*%
%TO.N,Net-(J1-Pin_9)*%
X88600000Y-81400000D03*
%TO.P,J1,10,Pin_10*%
%TO.N,GND*%
X91140000Y-81400000D03*
%TO.P,J1,11,Pin_11*%
%TO.N,unconnected-(J1-Pin_11-Pad11)*%
X93680000Y-81400000D03*
%TO.P,J1,12,Pin_12*%
%TO.N,+3.3V*%
X96220000Y-81400000D03*
%TD*%
D12*
%TO.P,D2,1,K*%
%TO.N,Net-(D2-K)*%
X162300000Y-138160000D03*
D13*
%TO.P,D2,2,A*%
%TO.N,Net-(D2-A)*%
X159760000Y-138160000D03*
%TD*%
D16*
%TO.P,SW1,1,1*%
%TO.N,GND*%
X180400000Y-96900000D03*
D17*
%TO.P,SW1,2,2*%
%TO.N,Net-(J3-Pin_19)*%
X180400000Y-101980000D03*
%TD*%
D10*
%TO.P,R3,1*%
%TO.N,GND*%
X182610000Y-113560000D03*
%TO.P,R3,2*%
%TO.N,Net-(D3-K)*%
X174990000Y-113560000D03*
%TD*%
D12*
%TO.P,D1,1,K*%
%TO.N,Net-(D1-K)*%
X162100000Y-126460000D03*
D13*
%TO.P,D1,2,A*%
%TO.N,Net-(D1-A)*%
X159560000Y-126460000D03*
%TD*%
D18*
%TO.N,Net-(J1-Pin_8)*%
X80700000Y-116400000D03*
X85900000Y-73200000D03*
%TO.N,Net-(J1-Pin_9)*%
X102100000Y-114500000D03*
X94600000Y-122300000D03*
%TO.N,GND*%
X157800000Y-107100000D03*
%TO.N,Net-(J3-Pin_22)*%
X152540000Y-65940000D03*
X141700000Y-117000000D03*
%TO.N,Net-(J3-Pin_21)*%
X141700000Y-114700000D03*
X132200000Y-66800000D03*
%TO.N,Net-(J3-Pin_12)*%
X111400000Y-67100000D03*
X99900000Y-132000000D03*
%TD*%
D19*
%TO.N,Net-(D1-A)*%
X136200000Y-134860000D02*
X151160000Y-134860000D01*
X151160000Y-134860000D02*
X159560000Y-126460000D01*
%TO.N,Net-(D1-K)*%
X174980000Y-126460000D02*
X175180000Y-126660000D01*
X162100000Y-126460000D02*
X174980000Y-126460000D01*
%TO.N,Net-(D2-K)*%
X175090000Y-138160000D02*
X175290000Y-138360000D01*
X162300000Y-138160000D02*
X175090000Y-138160000D01*
%TO.N,Net-(D2-A)*%
X159000000Y-137400000D02*
X159760000Y-138160000D01*
X136200000Y-137400000D02*
X159000000Y-137400000D01*
%TO.N,Net-(D3-K)*%
X173790000Y-114760000D02*
X174990000Y-113560000D01*
X162100000Y-114760000D02*
X173790000Y-114760000D01*
%TO.N,Net-(D3-A)*%
X144540000Y-129780000D02*
X159560000Y-114760000D01*
X136200000Y-129780000D02*
X144540000Y-129780000D01*
%TO.N,Net-(J1-Pin_8)*%
X101500000Y-117700000D02*
X102190000Y-117010000D01*
X86060000Y-81400000D02*
X86060000Y-73360000D01*
X102190000Y-117010000D02*
X106165000Y-117010000D01*
X82000000Y-117700000D02*
X101500000Y-117700000D01*
X80700000Y-116400000D02*
X82000000Y-117700000D01*
X86060000Y-73360000D02*
X85900000Y-73200000D01*
D20*
%TO.N,+3.3V*%
X125920000Y-93100000D02*
X136200000Y-103380000D01*
X136200000Y-104380000D02*
X145870000Y-104380000D01*
X142500000Y-69380000D02*
X142500000Y-98080000D01*
X123460000Y-69540000D02*
X123460000Y-90640000D01*
X102400000Y-69580000D02*
X114160000Y-81340000D01*
X136200000Y-103380000D02*
X136200000Y-104380000D01*
X114100000Y-81400000D02*
X114160000Y-81340000D01*
X114160000Y-81340000D02*
X123460000Y-90640000D01*
X96220000Y-81400000D02*
X114100000Y-81400000D01*
X123460000Y-90640000D02*
X125920000Y-93100000D01*
X145870000Y-104380000D02*
X150575000Y-99675000D01*
X142500000Y-98080000D02*
X136200000Y-104380000D01*
X150575000Y-99675000D02*
X156790000Y-93460000D01*
D19*
%TO.N,Net-(J1-Pin_9)*%
X87100000Y-69800000D02*
X80000000Y-69800000D01*
X88600000Y-81400000D02*
X88600000Y-71300000D01*
X83100000Y-122300000D02*
X94600000Y-122300000D01*
X102100000Y-114500000D02*
X106135000Y-114500000D01*
X88600000Y-71300000D02*
X87100000Y-69800000D01*
X77900000Y-117100000D02*
X83100000Y-122300000D01*
X80000000Y-69800000D02*
X77900000Y-71900000D01*
X77900000Y-71900000D02*
X77900000Y-117100000D01*
X106135000Y-114500000D02*
X106165000Y-114470000D01*
%TO.N,GND*%
X182800000Y-113750000D02*
X182610000Y-113560000D01*
X167500000Y-59100000D02*
X147800000Y-59100000D01*
X91200000Y-64500000D02*
X96600000Y-59100000D01*
X142600000Y-63700000D02*
X143200000Y-63700000D01*
X136200000Y-106920000D02*
X157620000Y-106920000D01*
X183300000Y-74900000D02*
X167500000Y-59100000D01*
X128600000Y-59100000D02*
X107800000Y-59100000D01*
X186400000Y-94500000D02*
X183200000Y-91300000D01*
X183100000Y-94200000D02*
X183100000Y-91300000D01*
X183200000Y-91300000D02*
X183100000Y-91300000D01*
X183200000Y-91300000D02*
X183200000Y-75000000D01*
X182910000Y-126770000D02*
X182800000Y-126660000D01*
X157620000Y-106920000D02*
X157800000Y-107100000D01*
X102400000Y-64500000D02*
X107800000Y-59100000D01*
X143200000Y-63700000D02*
X147800000Y-59100000D01*
X107800000Y-59100000D02*
X102200000Y-59100000D01*
X176960000Y-93460000D02*
X180400000Y-96900000D01*
X147800000Y-59100000D02*
X128600000Y-59100000D01*
X180400000Y-96900000D02*
X183100000Y-94200000D01*
X182910000Y-138360000D02*
X182610000Y-138060000D01*
X182610000Y-138060000D02*
X182610000Y-113560000D01*
X164410000Y-93460000D02*
X176960000Y-93460000D01*
X123500000Y-64200000D02*
X128600000Y-59100000D01*
X91200000Y-81340000D02*
X91200000Y-64500000D01*
X183200000Y-75000000D02*
X183300000Y-74900000D01*
X186400000Y-109770000D02*
X186400000Y-94500000D01*
X182610000Y-113560000D02*
X186400000Y-109770000D01*
X91140000Y-81400000D02*
X91200000Y-81340000D01*
X96600000Y-59100000D02*
X102200000Y-59100000D01*
%TO.N,Net-(J3-Pin_22)*%
X145140000Y-66240000D02*
X152240000Y-66240000D01*
X141620000Y-117080000D02*
X141700000Y-117000000D01*
X136200000Y-117080000D02*
X141620000Y-117080000D01*
X152240000Y-66240000D02*
X152540000Y-65940000D01*
%TO.N,Net-(J3-Pin_21)*%
X136360000Y-114700000D02*
X136200000Y-114540000D01*
X126040000Y-66740000D02*
X132140000Y-66740000D01*
X132140000Y-66740000D02*
X132200000Y-66800000D01*
X141700000Y-114700000D02*
X136360000Y-114700000D01*
%TO.N,Net-(J3-Pin_12)*%
X100150000Y-132250000D02*
X106165000Y-132250000D01*
X105000000Y-67100000D02*
X111400000Y-67100000D01*
X104940000Y-67040000D02*
X105000000Y-67100000D01*
X99900000Y-132000000D02*
X100150000Y-132250000D01*
%TO.N,Net-(J3-Pin_19)*%
X172920000Y-109460000D02*
X180400000Y-101980000D01*
X136200000Y-109460000D02*
X172920000Y-109460000D01*
%TD*%
M02*
