M48
; DRILL file {KiCad 9.0.7} date 2026-05-14T13:50:22-0400
; FORMAT={-:-/ absolute / metric / decimal}
; #@! TF.CreationDate,2026-05-14T13:50:22-04:00
; #@! TF.GenerationSoftware,Kicad,Pcbnew,9.0.7
; #@! TF.FileFunction,Plated,1,2,PTH
FMAT,2
METRIC
; #@! TA.AperFunction,Plated,PTH,ViaDrill
T1C0.300
; #@! TA.AperFunction,Plated,PTH,ComponentDrill
T2C0.800
; #@! TA.AperFunction,Plated,PTH,ComponentDrill
T3C0.900
; #@! TA.AperFunction,Plated,PTH,ComponentDrill
T4C1.000
%
G90
G05
T1
X95.0Y-89.9
X95.0Y-92.4
X96.0Y-65.0
X96.0Y-72.1
X97.9Y-67.1
X101.2Y-89.8
X104.2Y-103.79
X105.0Y-72.1
X107.4Y-80.93
X113.0Y-64.1
X147.3Y-64.1
X147.3Y-111.5
X151.5Y-70.84
X151.8Y-73.5
X159.3Y-63.0
X159.3Y-66.0
T2
X176.19Y-92.9
X176.2Y-103.7
X183.81Y-92.9
X183.82Y-103.7
T3
X165.36Y-93.1
X165.46Y-103.9
X167.9Y-93.1
X168.0Y-103.9
T4
X89.8Y-87.2
X89.8Y-89.74
X89.8Y-92.28
X89.8Y-94.82
X89.8Y-97.36
X89.8Y-99.9
X89.8Y-102.44
X90.1Y-64.2
X90.1Y-66.74
X90.1Y-69.28
X90.1Y-71.82
X90.1Y-74.36
X113.965Y-68.23
X113.965Y-70.77
X113.965Y-73.31
X113.965Y-75.85
X113.965Y-78.39
X113.965Y-80.93
X113.965Y-83.47
X113.965Y-86.01
X113.965Y-88.55
X113.965Y-91.09
X113.965Y-93.63
X113.965Y-96.17
X113.965Y-98.71
X113.965Y-101.25
X113.965Y-103.79
X113.965Y-106.33
X144.0Y-68.3
X144.0Y-70.84
X144.0Y-73.38
X144.0Y-75.92
X144.0Y-78.46
X144.0Y-81.0
X144.0Y-83.54
X144.0Y-86.08
X144.0Y-88.62
X144.0Y-91.16
X144.0Y-93.7
X144.0Y-96.24
X144.0Y-98.78
X144.0Y-101.32
X144.0Y-103.86
X144.0Y-106.4
X164.742Y-63.17
X164.742Y-65.71
X164.742Y-68.25
M30
