%TF.GenerationSoftware,KiCad,Pcbnew,9.0.7*%
%TF.CreationDate,2026-05-14T13:48:42-04:00*%
%TF.ProjectId,Projet_final,50726f6a-6574-45f6-9669-6e616c2e6b69,rev?*%
%TF.SameCoordinates,Original*%
%TF.FileFunction,Copper,L2,Bot*%
%TF.FilePolarity,Positive*%
%FSLAX46Y46*%
G04 Gerber Fmt 4.6, Leading zero omitted, Abs format (unit mm)*
G04 Created by KiCad (PCBNEW 9.0.7) date 2026-05-14 13:48:42*
%MOMM*%
%LPD*%
G01*
G04 APERTURE LIST*
%TA.AperFunction,ComponentPad*%
%ADD10R,1.700000X1.700000*%
%TD*%
%TA.AperFunction,ComponentPad*%
%ADD11C,1.700000*%
%TD*%
%TA.AperFunction,ComponentPad*%
%ADD12C,1.600000*%
%TD*%
%TA.AperFunction,ComponentPad*%
%ADD13R,1.800000X1.800000*%
%TD*%
%TA.AperFunction,ComponentPad*%
%ADD14C,1.800000*%
%TD*%
%TA.AperFunction,ViaPad*%
%ADD15C,0.600000*%
%TD*%
%TA.AperFunction,Conductor*%
%ADD16C,0.250000*%
%TD*%
%TA.AperFunction,Conductor*%
%ADD17C,0.400000*%
%TD*%
G04 APERTURE END LIST*
D10*
%TO.P,J2,1,Pin_1*%
%TO.N,unconnected-(J2-Pin_1-Pad1)*%
X113965000Y-68230000D03*
D11*
%TO.P,J2,2,Pin_2*%
%TO.N,unconnected-(J2-Pin_2-Pad2)*%
X113965000Y-70770000D03*
%TO.P,J2,3,Pin_3*%
%TO.N,unconnected-(J2-Pin_3-Pad3)*%
X113965000Y-73310000D03*
%TO.P,J2,4,Pin_4*%
%TO.N,unconnected-(J2-Pin_4-Pad4)*%
X113965000Y-75850000D03*
%TO.P,J2,5,Pin_5*%
%TO.N,Net-(J1-Pin_4)*%
X113965000Y-78390000D03*
%TO.P,J2,6,Pin_6*%
%TO.N,Net-(J1-Pin_2)*%
X113965000Y-80930000D03*
%TO.P,J2,7,Pin_7*%
%TO.N,unconnected-(J2-Pin_7-Pad7)*%
X113965000Y-83470000D03*
%TO.P,J2,8,Pin_8*%
%TO.N,unconnected-(J2-Pin_8-Pad8)*%
X113965000Y-86010000D03*
%TO.P,J2,9,Pin_9*%
%TO.N,unconnected-(J2-Pin_9-Pad9)*%
X113965000Y-88550000D03*
%TO.P,J2,10,Pin_10*%
%TO.N,unconnected-(J2-Pin_10-Pad10)*%
X113965000Y-91090000D03*
%TO.P,J2,11,Pin_11*%
%TO.N,unconnected-(J2-Pin_11-Pad11)*%
X113965000Y-93630000D03*
%TO.P,J2,12,Pin_12*%
%TO.N,unconnected-(J2-Pin_12-Pad12)*%
X113965000Y-96170000D03*
%TO.P,J2,13,Pin_13*%
%TO.N,unconnected-(J2-Pin_13-Pad13)*%
X113965000Y-98710000D03*
%TO.P,J2,14,Pin_14*%
%TO.N,unconnected-(J2-Pin_14-Pad14)*%
X113965000Y-101250000D03*
%TO.P,J2,15,Pin_15*%
%TO.N,GND*%
X113965000Y-103790000D03*
%TO.P,J2,16,Pin_16*%
%TO.N,unconnected-(J2-Pin_16-Pad16)*%
X113965000Y-106330000D03*
D10*
%TO.P,J2,17,Pin_17*%
%TO.N,+3.3V*%
X144000000Y-68300000D03*
D11*
%TO.P,J2,18,Pin_18*%
%TO.N,GND*%
X144000000Y-70840000D03*
%TO.P,J2,19,Pin_19*%
%TO.N,Net-(J2-Pin_19)*%
X144000000Y-73380000D03*
%TO.P,J2,20,Pin_20*%
%TO.N,unconnected-(J2-Pin_20-Pad20)*%
X144000000Y-75920000D03*
%TO.P,J2,21,Pin_21*%
%TO.N,unconnected-(J2-Pin_21-Pad21)*%
X144000000Y-78460000D03*
%TO.P,J2,22,Pin_22*%
%TO.N,unconnected-(J2-Pin_22-Pad22)*%
X144000000Y-81000000D03*
%TO.P,J2,23,Pin_23*%
%TO.N,unconnected-(J2-Pin_23-Pad23)*%
X144000000Y-83540000D03*
%TO.P,J2,24,Pin_24*%
%TO.N,unconnected-(J2-Pin_24-Pad24)*%
X144000000Y-86080000D03*
%TO.P,J2,25,Pin_25*%
%TO.N,unconnected-(J2-Pin_25-Pad25)*%
X144000000Y-88620000D03*
%TO.P,J2,26,Pin_26*%
%TO.N,unconnected-(J2-Pin_26-Pad26)*%
X144000000Y-91160000D03*
%TO.P,J2,27,Pin_27*%
%TO.N,unconnected-(J2-Pin_27-Pad27)*%
X144000000Y-93700000D03*
%TO.P,J2,28,Pin_28*%
%TO.N,unconnected-(J2-Pin_28-Pad28)*%
X144000000Y-96240000D03*
%TO.P,J2,29,Pin_29*%
%TO.N,Net-(D1-A)*%
X144000000Y-98780000D03*
%TO.P,J2,30,Pin_30*%
%TO.N,Net-(D2-A)*%
X144000000Y-101320000D03*
%TO.P,J2,31,Pin_31*%
%TO.N,unconnected-(J2-Pin_31-Pad31)*%
X144000000Y-103860000D03*
%TO.P,J2,32,Pin_32*%
%TO.N,unconnected-(J2-Pin_32-Pad32)*%
X144000000Y-106400000D03*
%TD*%
D10*
%TO.P,J4,1,Pin_1*%
%TO.N,+3.3V*%
X164742500Y-68250000D03*
D11*
%TO.P,J4,2,Pin_2*%
%TO.N,Net-(J2-Pin_19)*%
X164742500Y-65710000D03*
%TO.P,J4,3,Pin_3*%
%TO.N,GND*%
X164742500Y-63170000D03*
%TD*%
D12*
%TO.P,R1,1*%
%TO.N,GND*%
X183810000Y-92900000D03*
%TO.P,R1,2*%
%TO.N,Net-(D1-K)*%
X176190000Y-92900000D03*
%TD*%
D10*
%TO.P,J3,1,Pin_1*%
%TO.N,+3.3V*%
X90100000Y-74360000D03*
D11*
%TO.P,J3,2,Pin_2*%
%TO.N,GND*%
X90100000Y-71820000D03*
%TO.P,J3,3,Pin_3*%
%TO.N,Net-(J1-Pin_4)*%
X90100000Y-69280000D03*
%TO.P,J3,4,Pin_4*%
%TO.N,Net-(J1-Pin_2)*%
X90100000Y-66740000D03*
%TO.P,J3,5,Pin_5*%
%TO.N,unconnected-(J3-Pin_5-Pad5)*%
X90100000Y-64200000D03*
%TD*%
D12*
%TO.P,R2,1*%
%TO.N,GND*%
X183820000Y-103700000D03*
%TO.P,R2,2*%
%TO.N,Net-(D2-K)*%
X176200000Y-103700000D03*
%TD*%
D13*
%TO.P,D2,1,K*%
%TO.N,Net-(D2-K)*%
X168000000Y-103900000D03*
D14*
%TO.P,D2,2,A*%
%TO.N,Net-(D2-A)*%
X165460000Y-103900000D03*
%TD*%
D13*
%TO.P,D1,1,K*%
%TO.N,Net-(D1-K)*%
X167900000Y-93100000D03*
D14*
%TO.P,D1,2,A*%
%TO.N,Net-(D1-A)*%
X165360000Y-93100000D03*
%TD*%
D10*
%TO.P,J1,1,Pin_1*%
%TO.N,+3.3V*%
X89800000Y-87200000D03*
D11*
%TO.P,J1,2,Pin_2*%
%TO.N,Net-(J1-Pin_2)*%
X89800000Y-89740000D03*
%TO.P,J1,3,Pin_3*%
%TO.N,GND*%
X89800000Y-92280000D03*
%TO.P,J1,4,Pin_4*%
%TO.N,Net-(J1-Pin_4)*%
X89800000Y-94820000D03*
%TO.P,J1,5,Pin_5*%
%TO.N,GND*%
X89800000Y-97360000D03*
%TO.P,J1,6,Pin_6*%
%TO.N,unconnected-(J1-Pin_6-Pad6)*%
X89800000Y-99900000D03*
%TO.P,J1,7,Pin_7*%
%TO.N,+3.3V*%
X89800000Y-102440000D03*
%TD*%
D15*
%TO.N,Net-(J1-Pin_2)*%
X101200000Y-89800000D03*
X107400000Y-80930000D03*
X97900000Y-67100000D03*
X95000000Y-89900000D03*
%TO.N,+3.3V*%
X105000000Y-72100000D03*
X147300000Y-111500000D03*
X113000000Y-64100000D03*
X147300000Y-64100000D03*
%TO.N,GND*%
X95000000Y-92400000D03*
X104200000Y-103790000D03*
X159300000Y-63000000D03*
X96000000Y-72100000D03*
X96000000Y-65000000D03*
X151500000Y-70840000D03*
%TO.N,Net-(J2-Pin_19)*%
X159300000Y-66000000D03*
X151800000Y-73500000D03*
%TD*%
D16*
%TO.N,Net-(J1-Pin_2)*%
X97900000Y-67100000D02*
X107400000Y-76600000D01*
X95000000Y-89900000D02*
X101100000Y-89900000D01*
X101100000Y-89900000D02*
X101200000Y-89800000D01*
X107400000Y-76600000D02*
X107400000Y-80930000D01*
D17*
%TO.N,+3.3V*%
X147300000Y-111500000D02*
X149700000Y-109100000D01*
X149600000Y-109000000D02*
X149600000Y-66400000D01*
X113000000Y-64100000D02*
X105000000Y-72100000D01*
D16*
X149700000Y-109100000D02*
X149600000Y-109000000D01*
D17*
X149600000Y-66400000D02*
X147300000Y-64100000D01*
D16*
%TO.N,GND*%
X159300000Y-63000000D02*
X151500000Y-70800000D01*
X103800000Y-98000000D02*
X103800000Y-103390000D01*
X95000000Y-92400000D02*
X98200000Y-92400000D01*
X98200000Y-92400000D02*
X103800000Y-98000000D01*
X96000000Y-72100000D02*
X103800000Y-79900000D01*
X103800000Y-103390000D02*
X104200000Y-103790000D01*
X103800000Y-79900000D02*
X103800000Y-98000000D01*
X96000000Y-65000000D02*
X96000000Y-72100000D01*
X151500000Y-70800000D02*
X151500000Y-70840000D01*
%TO.N,Net-(J2-Pin_19)*%
X159300000Y-66000000D02*
X151800000Y-73500000D01*
%TD*%
%TA.AperFunction,Conductor*%
%TO.N,GND*%
G36*
X197142539Y-55120185D02*
G01*
X197188294Y-55172989D01*
X197199500Y-55224500D01*
X197199500Y-118175500D01*
X197179815Y-118242539D01*
X197127011Y-118288294D01*
X197075500Y-118299500D01*
X65624500Y-118299500D01*
X65557461Y-118279815D01*
X65511706Y-118227011D01*
X65500500Y-118175500D01*
X65500500Y-103683753D01*
X112615000Y-103683753D01*
X112615000Y-103896246D01*
X112648242Y-104106127D01*
X112648242Y-104106130D01*
X112713904Y-104308217D01*
X112810375Y-104497550D01*
X112849728Y-104551716D01*
X113482037Y-103919408D01*
X113499075Y-103982993D01*
X113564901Y-104097007D01*
X113657993Y-104190099D01*
X113772007Y-104255925D01*
X113835590Y-104272962D01*
X113203282Y-104905269D01*
X113203282Y-104905270D01*
X113257449Y-104944624D01*
X113446782Y-105041095D01*
X113622973Y-105098343D01*
X113680648Y-105137780D01*
X113707847Y-105202139D01*
X113695932Y-105270985D01*
X113648688Y-105322461D01*
X113632108Y-105330835D01*
X113467403Y-105399057D01*
X113295342Y-105514024D01*
X113149024Y-105660342D01*
X113034058Y-105832403D01*
X112954870Y-106023579D01*
X112954868Y-106023587D01*
X112914500Y-106226530D01*
X112914500Y-106433469D01*
X112954868Y-106636412D01*
X112954870Y-106636420D01*
X113034058Y-106827596D01*
X113149024Y-106999657D01*
X113295342Y-107145975D01*
X113295345Y-107145977D01*
X113467402Y-107260941D01*
X113658580Y-107340130D01*
X113861530Y-107380499D01*
X113861534Y-107380500D01*
X113861535Y-107380500D01*
X114068466Y-107380500D01*
X114068467Y-107380499D01*
X114271420Y-107340130D01*
X114462598Y-107260941D01*
X114634655Y-107145977D01*
X114780977Y-106999655D01*
X114895941Y-106827598D01*
X114975130Y-106636420D01*
X115015500Y-106433465D01*
X115015500Y-106296530D01*
X142949500Y-106296530D01*
X142949500Y-106503469D01*
X142989868Y-106706412D01*
X142989870Y-106706420D01*
X143069058Y-106897596D01*
X143184024Y-107069657D01*
X143330342Y-107215975D01*
X143330345Y-107215977D01*
X143502402Y-107330941D01*
X143693580Y-107410130D01*
X143896530Y-107450499D01*
X143896534Y-107450500D01*
X143896535Y-107450500D01*
X144103466Y-107450500D01*
X144103467Y-107450499D01*
X144306420Y-107410130D01*
X144497598Y-107330941D01*
X144669655Y-107215977D01*
X144815977Y-107069655D01*
X144930941Y-106897598D01*
X145010130Y-106706420D01*
X145050500Y-106503465D01*
X145050500Y-106296535D01*
X145010130Y-106093580D01*
X144930941Y-105902402D01*
X144815977Y-105730345D01*
X144815975Y-105730342D01*
X144669657Y-105584024D01*
X144564892Y-105514023D01*
X144497598Y-105469059D01*
X144306420Y-105389870D01*
X144306412Y-105389868D01*
X144103469Y-105349500D01*
X144103465Y-105349500D01*
X143896535Y-105349500D01*
X143896530Y-105349500D01*
X143693587Y-105389868D01*
X143693579Y-105389870D01*
X143502403Y-105469058D01*
X143330342Y-105584024D01*
X143184024Y-105730342D01*
X143069058Y-105902403D01*
X142989870Y-106093579D01*
X142989868Y-106093587D01*
X142949500Y-106296530D01*
X115015500Y-106296530D01*
X115015500Y-106226535D01*
X114975130Y-106023580D01*
X114895941Y-105832402D01*
X114780977Y-105660345D01*
X114780975Y-105660342D01*
X114634657Y-105514024D01*
X114548626Y-105456541D01*
X114462598Y-105399059D01*
X114462593Y-105399057D01*
X114400891Y-105373499D01*
X114297890Y-105330834D01*
X114243488Y-105286994D01*
X114221423Y-105220700D01*
X114238702Y-105153001D01*
X114289839Y-105105390D01*
X114307026Y-105098343D01*
X114483217Y-105041095D01*
X114672554Y-104944622D01*
X114726716Y-104905270D01*
X114726717Y-104905270D01*
X114094408Y-104272962D01*
X114157993Y-104255925D01*
X114272007Y-104190099D01*
X114365099Y-104097007D01*
X114430925Y-103982993D01*
X114447962Y-103919408D01*
X115080270Y-104551717D01*
X115080270Y-104551716D01*
X115119622Y-104497554D01*
X115216095Y-104308217D01*
X115281757Y-104106130D01*
X115281757Y-104106127D01*
X115315000Y-103896246D01*
X115315000Y-103756530D01*
X142949500Y-103756530D01*
X142949500Y-103963469D01*
X142989868Y-104166412D01*
X142989870Y-104166420D01*
X143048604Y-104308217D01*
X143069059Y-104357598D01*
X143114711Y-104425921D01*
X143184024Y-104529657D01*
X143330342Y-104675975D01*
X143330345Y-104675977D01*
X143502402Y-104790941D01*
X143693580Y-104870130D01*
X143867653Y-104904755D01*
X143896530Y-104910499D01*
X143896534Y-104910500D01*
X143896535Y-104910500D01*
X144103466Y-104910500D01*
X144103467Y-104910499D01*
X144306420Y-104870130D01*
X144497598Y-104790941D01*
X144669655Y-104675977D01*
X144815977Y-104529655D01*
X144930941Y-104357598D01*
X145010130Y-104166420D01*
X145050500Y-103963465D01*
X145050500Y-103756535D01*
X145010130Y-103553580D01*
X144930941Y-103362402D01*
X144815977Y-103190345D01*
X144815975Y-103190342D01*
X144669657Y-103044024D01*
X144542061Y-102958768D01*
X144497598Y-102929059D01*
X144482632Y-102922860D01*
X144306420Y-102849870D01*
X144306412Y-102849868D01*
X144103469Y-102809500D01*
X144103465Y-102809500D01*
X143896535Y-102809500D01*
X143896530Y-102809500D01*
X143693587Y-102849868D01*
X143693579Y-102849870D01*
X143502403Y-102929058D01*
X143330342Y-103044024D01*
X143184024Y-103190342D01*
X143069058Y-103362403D01*
X142989870Y-103553579D01*
X142989868Y-103553587D01*
X142949500Y-103756530D01*
X115315000Y-103756530D01*
X115315000Y-103683753D01*
X115281757Y-103473872D01*
X115281757Y-103473869D01*
X115216095Y-103271782D01*
X115119624Y-103082449D01*
X115080270Y-103028282D01*
X115080269Y-103028282D01*
X114447962Y-103660590D01*
X114430925Y-103597007D01*
X114365099Y-103482993D01*
X114272007Y-103389901D01*
X114157993Y-103324075D01*
X114094409Y-103307037D01*
X114726716Y-102674728D01*
X114672550Y-102635375D01*
X114483216Y-102538904D01*
X114307026Y-102481656D01*
X114249350Y-102442218D01*
X114222152Y-102377860D01*
X114234067Y-102309013D01*
X114281311Y-102257538D01*
X114297882Y-102249168D01*
X114462598Y-102180941D01*
X114634655Y-102065977D01*
X114780977Y-101919655D01*
X114895941Y-101747598D01*
X114975130Y-101556420D01*
X115015500Y-101353465D01*
X115015500Y-101216530D01*
X142949500Y-101216530D01*
X142949500Y-101423469D01*
X142989868Y-101626412D01*
X142989870Y-101626420D01*
X143069058Y-101817596D01*
X143184024Y-101989657D01*
X143330342Y-102135975D01*
X143330345Y-102135977D01*
X143502402Y-102250941D01*
X143693580Y-102330130D01*
X143896530Y-102370499D01*
X143896534Y-102370500D01*
X143896535Y-102370500D01*
X144103466Y-102370500D01*
X144103467Y-102370499D01*
X144306420Y-102330130D01*
X144497598Y-102250941D01*
X144669655Y-102135977D01*
X144815977Y-101989655D01*
X144930941Y-101817598D01*
X145010130Y-101626420D01*
X145050500Y-101423465D01*
X145050500Y-101216535D01*
X145010130Y-101013580D01*
X144930941Y-100822402D01*
X144815977Y-100650345D01*
X144815975Y-100650342D01*
X144669657Y-100504024D01*
X144564892Y-100434023D01*
X144497598Y-100389059D01*
X144306420Y-100309870D01*
X144306412Y-100309868D01*
X144103469Y-100269500D01*
X144103465Y-100269500D01*
X143896535Y-100269500D01*
X143896530Y-100269500D01*
X143693587Y-100309868D01*
X143693579Y-100309870D01*
X143502403Y-100389058D01*
X143330342Y-100504024D01*
X143184024Y-100650342D01*
X143069058Y-100822403D01*
X142989870Y-101013579D01*
X142989868Y-101013587D01*
X142949500Y-101216530D01*
X115015500Y-101216530D01*
X115015500Y-101146535D01*
X114975130Y-100943580D01*
X114895941Y-100752402D01*
X114780977Y-100580345D01*
X114780975Y-100580342D01*
X114634657Y-100434024D01*
X114548626Y-100376541D01*
X114462598Y-100319059D01*
X114271420Y-100239870D01*
X114271412Y-100239868D01*
X114068469Y-100199500D01*
X114068465Y-100199500D01*
X113861535Y-100199500D01*
X113861530Y-100199500D01*
X113658587Y-100239868D01*
X113658579Y-100239870D01*
X113467403Y-100319058D01*
X113295342Y-100434024D01*
X113149024Y-100580342D01*
X113034058Y-100752403D01*
X112954870Y-100943579D01*
X112954868Y-100943587D01*
X112914500Y-101146530D01*
X112914500Y-101353469D01*
X112954868Y-101556412D01*
X112954870Y-101556420D01*
X113034058Y-101747596D01*
X113149024Y-101919657D01*
X113295342Y-102065975D01*
X113467405Y-102180943D01*
X113570043Y-102223456D01*
X113632108Y-102249164D01*
X113686511Y-102293005D01*
X113708576Y-102359299D01*
X113691297Y-102426998D01*
X113640160Y-102474609D01*
X113622974Y-102481656D01*
X113446781Y-102538905D01*
X113257439Y-102635380D01*
X113203282Y-102674727D01*
X113203282Y-102674728D01*
X113835591Y-103307037D01*
X113772007Y-103324075D01*
X113657993Y-103389901D01*
X113564901Y-103482993D01*
X113499075Y-103597007D01*
X113482037Y-103660591D01*
X112849728Y-103028282D01*
X112849727Y-103028282D01*
X112810380Y-103082439D01*
X112713904Y-103271782D01*
X112648242Y-103473869D01*
X112648242Y-103473872D01*
X112615000Y-103683753D01*
X65500500Y-103683753D01*
X65500500Y-102336530D01*
X88749500Y-102336530D01*
X88749500Y-102543469D01*
X88789868Y-102746412D01*
X88789870Y-102746420D01*
X88865521Y-102929058D01*
X88869059Y-102937598D01*
X88897556Y-102980247D01*
X88984024Y-103109657D01*
X89130342Y-103255975D01*
X89130345Y-103255977D01*
X89302402Y-103370941D01*
X89493580Y-103450130D01*
X89631441Y-103477552D01*
X89696530Y-103490499D01*
X89696534Y-103490500D01*
X89696535Y-103490500D01*
X89903466Y-103490500D01*
X89903467Y-103490499D01*
X90106420Y-103450130D01*
X90297598Y-103370941D01*
X90469655Y-103255977D01*
X90615977Y-103109655D01*
X90730941Y-102937598D01*
X90810130Y-102746420D01*
X90850500Y-102543465D01*
X90850500Y-102336535D01*
X90810130Y-102133580D01*
X90730941Y-101942402D01*
X90615977Y-101770345D01*
X90615975Y-101770342D01*
X90469657Y-101624024D01*
X90368467Y-101556412D01*
X90297598Y-101509059D01*
X90106420Y-101429870D01*
X90106412Y-101429868D01*
X89903469Y-101389500D01*
X89903465Y-101389500D01*
X89696535Y-101389500D01*
X89696530Y-101389500D01*
X89493587Y-101429868D01*
X89493579Y-101429870D01*
X89302403Y-101509058D01*
X89130342Y-101624024D01*
X88984024Y-101770342D01*
X88869058Y-101942403D01*
X88789870Y-102133579D01*
X88789868Y-102133587D01*
X88749500Y-102336530D01*
X65500500Y-102336530D01*
X65500500Y-92173753D01*
X88450000Y-92173753D01*
X88450000Y-92386246D01*
X88483242Y-92596127D01*
X88483242Y-92596130D01*
X88548904Y-92798217D01*
X88645375Y-92987550D01*
X88684728Y-93041716D01*
X89317037Y-92409408D01*
X89334075Y-92472993D01*
X89399901Y-92587007D01*
X89492993Y-92680099D01*
X89607007Y-92745925D01*
X89670590Y-92762962D01*
X89038282Y-93395269D01*
X89038282Y-93395270D01*
X89092449Y-93434624D01*
X89281782Y-93531095D01*
X89457973Y-93588343D01*
X89515648Y-93627780D01*
X89542847Y-93692139D01*
X89530932Y-93760985D01*
X89483688Y-93812461D01*
X89467108Y-93820835D01*
X89302403Y-93889057D01*
X89130342Y-94004024D01*
X88984024Y-94150342D01*
X88869058Y-94322403D01*
X88789870Y-94513579D01*
X88789868Y-94513587D01*
X88749500Y-94716530D01*
X88749500Y-94923469D01*
X88789868Y-95126412D01*
X88789870Y-95126420D01*
X88869058Y-95317596D01*
X88984024Y-95489657D01*
X89130342Y-95635975D01*
X89302405Y-95750943D01*
X89405043Y-95793456D01*
X89467108Y-95819164D01*
X89521511Y-95863005D01*
X89543576Y-95929299D01*
X89526297Y-95996998D01*
X89475160Y-96044609D01*
X89457974Y-96051656D01*
X89281781Y-96108905D01*
X89092439Y-96205380D01*
X89038282Y-96244727D01*
X89038282Y-96244728D01*
X89670591Y-96877037D01*
X89607007Y-96894075D01*
X89492993Y-96959901D01*
X89399901Y-97052993D01*
X89334075Y-97167007D01*
X89317037Y-97230591D01*
X88684728Y-96598282D01*
X88684727Y-96598282D01*
X88645380Y-96652439D01*
X88548904Y-96841782D01*
X88483242Y-97043869D01*
X88483242Y-97043872D01*
X88450000Y-97253753D01*
X88450000Y-97466246D01*
X88483242Y-97676127D01*
X88483242Y-97676130D01*
X88548904Y-97878217D01*
X88645375Y-98067550D01*
X88684728Y-98121716D01*
X89317037Y-97489408D01*
X89334075Y-97552993D01*
X89399901Y-97667007D01*
X89492993Y-97760099D01*
X89607007Y-97825925D01*
X89670590Y-97842962D01*
X89038282Y-98475269D01*
X89038282Y-98475270D01*
X89092449Y-98514624D01*
X89281782Y-98611095D01*
X89457973Y-98668343D01*
X89515648Y-98707780D01*
X89542847Y-98772139D01*
X89530932Y-98840985D01*
X89483688Y-98892461D01*
X89467108Y-98900835D01*
X89302403Y-98969057D01*
X89130342Y-99084024D01*
X88984024Y-99230342D01*
X88869058Y-99402403D01*
X88789870Y-99593579D01*
X88789868Y-99593587D01*
X88749500Y-99796530D01*
X88749500Y-100003469D01*
X88789868Y-100206412D01*
X88789870Y-100206420D01*
X88869058Y-100397596D01*
X88984024Y-100569657D01*
X89130342Y-100715975D01*
X89130345Y-100715977D01*
X89302402Y-100830941D01*
X89493580Y-100910130D01*
X89661741Y-100943579D01*
X89696530Y-100950499D01*
X89696534Y-100950500D01*
X89696535Y-100950500D01*
X89903466Y-100950500D01*
X89903467Y-100950499D01*
X90106420Y-100910130D01*
X90297598Y-100830941D01*
X90469655Y-100715977D01*
X90615977Y-100569655D01*
X90730941Y-100397598D01*
X90810130Y-100206420D01*
X90850500Y-100003465D01*
X90850500Y-99796535D01*
X90810130Y-99593580D01*
X90730941Y-99402402D01*
X90615977Y-99230345D01*
X90615975Y-99230342D01*
X90469657Y-99084024D01*
X90368467Y-99016412D01*
X90297598Y-98969059D01*
X90297593Y-98969057D01*
X90235891Y-98943499D01*
X90132890Y-98900834D01*
X90078488Y-98856994D01*
X90056423Y-98790700D01*
X90073702Y-98723001D01*
X90124839Y-98675390D01*
X90142026Y-98668343D01*
X90318217Y-98611095D01*
X90327176Y-98606530D01*
X112914500Y-98606530D01*
X112914500Y-98813469D01*
X112954868Y-99016412D01*
X112954870Y-99016420D01*
X113034058Y-99207596D01*
X113149024Y-99379657D01*
X113295342Y-99525975D01*
X113295345Y-99525977D01*
X113467402Y-99640941D01*
X113658580Y-99720130D01*
X113861530Y-99760499D01*
X113861534Y-99760500D01*
X113861535Y-99760500D01*
X114068466Y-99760500D01*
X114068467Y-99760499D01*
X114271420Y-99720130D01*
X114462598Y-99640941D01*
X114634655Y-99525977D01*
X114780977Y-99379655D01*
X114895941Y-99207598D01*
X114975130Y-99016420D01*
X115015500Y-98813465D01*
X115015500Y-98676530D01*
X142949500Y-98676530D01*
X142949500Y-98883469D01*
X142989868Y-99086412D01*
X142989870Y-99086420D01*
X143069058Y-99277596D01*
X143184024Y-99449657D01*
X143330342Y-99595975D01*
X143330345Y-99595977D01*
X143502402Y-99710941D01*
X143693580Y-99790130D01*
X143896530Y-99830499D01*
X143896534Y-99830500D01*
X143896535Y-99830500D01*
X144103466Y-99830500D01*
X144103467Y-99830499D01*
X144306420Y-99790130D01*
X144497598Y-99710941D01*
X144669655Y-99595977D01*
X144815977Y-99449655D01*
X144930941Y-99277598D01*
X145010130Y-99086420D01*
X145050500Y-98883465D01*
X145050500Y-98676535D01*
X145010130Y-98473580D01*
X144930941Y-98282402D01*
X144815977Y-98110345D01*
X144815975Y-98110342D01*
X144669657Y-97964024D01*
X144513972Y-97860000D01*
X144497598Y-97849059D01*
X144306420Y-97769870D01*
X144306412Y-97769868D01*
X144103469Y-97729500D01*
X144103465Y-97729500D01*
X143896535Y-97729500D01*
X143896530Y-97729500D01*
X143693587Y-97769868D01*
X143693579Y-97769870D01*
X143502403Y-97849058D01*
X143330342Y-97964024D01*
X143184024Y-98110342D01*
X143069058Y-98282403D01*
X142989870Y-98473579D01*
X142989868Y-98473587D01*
X142949500Y-98676530D01*
X115015500Y-98676530D01*
X115015500Y-98606535D01*
X114975130Y-98403580D01*
X114895941Y-98212402D01*
X114780977Y-98040345D01*
X114780975Y-98040342D01*
X114634657Y-97894024D01*
X114532738Y-97825925D01*
X114462598Y-97779059D01*
X114271420Y-97699870D01*
X114271412Y-97699868D01*
X114068469Y-97659500D01*
X114068465Y-97659500D01*
X113861535Y-97659500D01*
X113861530Y-97659500D01*
X113658587Y-97699868D01*
X113658579Y-97699870D01*
X113467403Y-97779058D01*
X113295342Y-97894024D01*
X113149024Y-98040342D01*
X113034058Y-98212403D01*
X112954870Y-98403579D01*
X112954868Y-98403587D01*
X112914500Y-98606530D01*
X90327176Y-98606530D01*
X90507555Y-98514622D01*
X90527507Y-98500126D01*
X90527508Y-98500125D01*
X90561716Y-98475270D01*
X90561717Y-98475270D01*
X89929408Y-97842962D01*
X89992993Y-97825925D01*
X90107007Y-97760099D01*
X90200099Y-97667007D01*
X90265925Y-97552993D01*
X90282962Y-97489408D01*
X90915270Y-98121717D01*
X90915270Y-98121716D01*
X90954622Y-98067554D01*
X91051095Y-97878217D01*
X91116757Y-97676130D01*
X91116757Y-97676127D01*
X91150000Y-97466246D01*
X91150000Y-97253753D01*
X91116757Y-97043872D01*
X91116757Y-97043869D01*
X91051095Y-96841782D01*
X90954624Y-96652449D01*
X90915270Y-96598282D01*
X90915269Y-96598282D01*
X90282962Y-97230590D01*
X90265925Y-97167007D01*
X90200099Y-97052993D01*
X90107007Y-96959901D01*
X89992993Y-96894075D01*
X89929409Y-96877037D01*
X90561716Y-96244728D01*
X90507550Y-96205375D01*
X90439944Y-96170928D01*
X90318216Y-96108904D01*
X90187803Y-96066530D01*
X112914500Y-96066530D01*
X112914500Y-96273469D01*
X112954868Y-96476412D01*
X112954870Y-96476420D01*
X113034058Y-96667596D01*
X113149024Y-96839657D01*
X113295342Y-96985975D01*
X113295345Y-96985977D01*
X113467402Y-97100941D01*
X113658580Y-97180130D01*
X113861530Y-97220499D01*
X113861534Y-97220500D01*
X113861535Y-97220500D01*
X114068466Y-97220500D01*
X114068467Y-97220499D01*
X114271420Y-97180130D01*
X114462598Y-97100941D01*
X114634655Y-96985977D01*
X114780977Y-96839655D01*
X114895941Y-96667598D01*
X114975130Y-96476420D01*
X115015500Y-96273465D01*
X115015500Y-96136530D01*
X142949500Y-96136530D01*
X142949500Y-96343469D01*
X142989868Y-96546412D01*
X142989870Y-96546420D01*
X143069058Y-96737596D01*
X143184024Y-96909657D01*
X143330342Y-97055975D01*
X143330345Y-97055977D01*
X143502402Y-97170941D01*
X143693580Y-97250130D01*
X143896530Y-97290499D01*
X143896534Y-97290500D01*
X143896535Y-97290500D01*
X144103466Y-97290500D01*
X144103467Y-97290499D01*
X144306420Y-97250130D01*
X144497598Y-97170941D01*
X144669655Y-97055977D01*
X144815977Y-96909655D01*
X144930941Y-96737598D01*
X145010130Y-96546420D01*
X145050500Y-96343465D01*
X145050500Y-96136535D01*
X145010130Y-95933580D01*
X144930941Y-95742402D01*
X144815977Y-95570345D01*
X144815975Y-95570342D01*
X144669657Y-95424024D01*
X144564892Y-95354023D01*
X144497598Y-95309059D01*
X144306420Y-95229870D01*
X144306412Y-95229868D01*
X144103469Y-95189500D01*
X144103465Y-95189500D01*
X143896535Y-95189500D01*
X143896530Y-95189500D01*
X143693587Y-95229868D01*
X143693579Y-95229870D01*
X143502403Y-95309058D01*
X143330342Y-95424024D01*
X143184024Y-95570342D01*
X143069058Y-95742403D01*
X142989870Y-95933579D01*
X142989868Y-95933587D01*
X142949500Y-96136530D01*
X115015500Y-96136530D01*
X115015500Y-96066535D01*
X114975130Y-95863580D01*
X114895941Y-95672402D01*
X114780977Y-95500345D01*
X114780975Y-95500342D01*
X114634657Y-95354024D01*
X114548626Y-95296541D01*
X114462598Y-95239059D01*
X114271420Y-95159870D01*
X114271412Y-95159868D01*
X114068469Y-95119500D01*
X114068465Y-95119500D01*
X113861535Y-95119500D01*
X113861530Y-95119500D01*
X113658587Y-95159868D01*
X113658579Y-95159870D01*
X113467403Y-95239058D01*
X113295342Y-95354024D01*
X113149024Y-95500342D01*
X113034058Y-95672403D01*
X112954870Y-95863579D01*
X112954868Y-95863587D01*
X112914500Y-96066530D01*
X90187803Y-96066530D01*
X90142026Y-96051656D01*
X90084350Y-96012218D01*
X90057152Y-95947860D01*
X90069067Y-95879013D01*
X90116311Y-95827538D01*
X90132882Y-95819168D01*
X90297598Y-95750941D01*
X90469655Y-95635977D01*
X90615977Y-95489655D01*
X90730941Y-95317598D01*
X90810130Y-95126420D01*
X90850500Y-94923465D01*
X90850500Y-94716535D01*
X90810130Y-94513580D01*
X90730941Y-94322402D01*
X90615977Y-94150345D01*
X90615975Y-94150342D01*
X90469657Y-94004024D01*
X90368467Y-93936412D01*
X90297598Y-93889059D01*
X90297593Y-93889057D01*
X90232390Y-93862049D01*
X90132890Y-93820834D01*
X90078488Y-93776994D01*
X90056423Y-93710700D01*
X90073702Y-93643001D01*
X90124839Y-93595390D01*
X90142026Y-93588343D01*
X90318217Y-93531095D01*
X90327176Y-93526530D01*
X112914500Y-93526530D01*
X112914500Y-93733469D01*
X112954868Y-93936412D01*
X112954870Y-93936420D01*
X113034058Y-94127596D01*
X113149024Y-94299657D01*
X113295342Y-94445975D01*
X113295345Y-94445977D01*
X113467402Y-94560941D01*
X113658580Y-94640130D01*
X113861530Y-94680499D01*
X113861534Y-94680500D01*
X113861535Y-94680500D01*
X114068466Y-94680500D01*
X114068467Y-94680499D01*
X114271420Y-94640130D01*
X114462598Y-94560941D01*
X114634655Y-94445977D01*
X114780977Y-94299655D01*
X114895941Y-94127598D01*
X114975130Y-93936420D01*
X115015500Y-93733465D01*
X115015500Y-93596530D01*
X142949500Y-93596530D01*
X142949500Y-93803469D01*
X142989868Y-94006412D01*
X142989870Y-94006420D01*
X143059036Y-94173402D01*
X143069059Y-94197598D01*
X143070998Y-94200500D01*
X143184024Y-94369657D01*
X143330342Y-94515975D01*
X143330345Y-94515977D01*
X143502402Y-94630941D01*
X143693580Y-94710130D01*
X143896530Y-94750499D01*
X143896534Y-94750500D01*
X143896535Y-94750500D01*
X144103466Y-94750500D01*
X144103467Y-94750499D01*
X144306420Y-94710130D01*
X144497598Y-94630941D01*
X144669655Y-94515977D01*
X144815977Y-94369655D01*
X144930941Y-94197598D01*
X145010130Y-94006420D01*
X145050500Y-93803465D01*
X145050500Y-93596535D01*
X145010130Y-93393580D01*
X144930941Y-93202402D01*
X144815977Y-93030345D01*
X144815975Y-93030342D01*
X144669657Y-92884024D01*
X144541236Y-92798217D01*
X144497598Y-92769059D01*
X144306420Y-92689870D01*
X144306412Y-92689868D01*
X144103469Y-92649500D01*
X144103465Y-92649500D01*
X143896535Y-92649500D01*
X143896530Y-92649500D01*
X143693587Y-92689868D01*
X143693579Y-92689870D01*
X143502403Y-92769058D01*
X143330342Y-92884024D01*
X143184024Y-93030342D01*
X143069058Y-93202403D01*
X142989870Y-93393579D01*
X142989868Y-93393587D01*
X142949500Y-93596530D01*
X115015500Y-93596530D01*
X115015500Y-93526535D01*
X114975130Y-93323580D01*
X114895941Y-93132402D01*
X114780977Y-92960345D01*
X114780975Y-92960342D01*
X114634657Y-92814024D01*
X114532261Y-92745606D01*
X114462598Y-92699059D01*
X114271420Y-92619870D01*
X114271412Y-92619868D01*
X114068469Y-92579500D01*
X114068465Y-92579500D01*
X113861535Y-92579500D01*
X113861530Y-92579500D01*
X113658587Y-92619868D01*
X113658579Y-92619870D01*
X113467403Y-92699058D01*
X113295342Y-92814024D01*
X113149024Y-92960342D01*
X113034058Y-93132403D01*
X112954870Y-93323579D01*
X112954868Y-93323587D01*
X112914500Y-93526530D01*
X90327176Y-93526530D01*
X90507555Y-93434622D01*
X90527507Y-93420126D01*
X90527508Y-93420125D01*
X90561716Y-93395270D01*
X90561717Y-93395270D01*
X89929408Y-92762962D01*
X89992993Y-92745925D01*
X90107007Y-92680099D01*
X90200099Y-92587007D01*
X90265925Y-92472993D01*
X90282962Y-92409408D01*
X90915270Y-93041717D01*
X90915270Y-93041716D01*
X90954622Y-92987554D01*
X91051095Y-92798217D01*
X91116757Y-92596130D01*
X91116757Y-92596127D01*
X91150000Y-92386246D01*
X91150000Y-92173753D01*
X91116757Y-91963872D01*
X91116757Y-91963869D01*
X91051095Y-91761782D01*
X90954624Y-91572449D01*
X90915270Y-91518282D01*
X90915269Y-91518282D01*
X90282962Y-92150590D01*
X90265925Y-92087007D01*
X90200099Y-91972993D01*
X90107007Y-91879901D01*
X89992993Y-91814075D01*
X89929409Y-91797037D01*
X90561716Y-91164728D01*
X90507550Y-91125375D01*
X90439944Y-91090928D01*
X90318216Y-91028904D01*
X90187803Y-90986530D01*
X112914500Y-90986530D01*
X112914500Y-91193469D01*
X112954868Y-91396412D01*
X112954870Y-91396420D01*
X113034058Y-91587596D01*
X113149024Y-91759657D01*
X113295342Y-91905975D01*
X113295345Y-91905977D01*
X113467402Y-92020941D01*
X113658580Y-92100130D01*
X113861530Y-92140499D01*
X113861534Y-92140500D01*
X113861535Y-92140500D01*
X114068466Y-92140500D01*
X114068467Y-92140499D01*
X114271420Y-92100130D01*
X114462598Y-92020941D01*
X114634655Y-91905977D01*
X114780977Y-91759655D01*
X114895941Y-91587598D01*
X114975130Y-91396420D01*
X115015500Y-91193465D01*
X115015500Y-91056530D01*
X142949500Y-91056530D01*
X142949500Y-91263469D01*
X142989868Y-91466412D01*
X142989870Y-91466420D01*
X143069058Y-91657596D01*
X143184024Y-91829657D01*
X143330342Y-91975975D01*
X143330345Y-91975977D01*
X143502402Y-92090941D01*
X143693580Y-92170130D01*
X143896530Y-92210499D01*
X143896534Y-92210500D01*
X143896535Y-92210500D01*
X144103466Y-92210500D01*
X144103467Y-92210499D01*
X144306420Y-92170130D01*
X144497598Y-92090941D01*
X144669655Y-91975977D01*
X144815977Y-91829655D01*
X144930941Y-91657598D01*
X145010130Y-91466420D01*
X145050500Y-91263465D01*
X145050500Y-91056535D01*
X145010130Y-90853580D01*
X144930941Y-90662402D01*
X144815977Y-90490345D01*
X144815975Y-90490342D01*
X144669657Y-90344024D01*
X144546627Y-90261819D01*
X144497598Y-90229059D01*
X144445101Y-90207314D01*
X144306420Y-90149870D01*
X144306412Y-90149868D01*
X144103469Y-90109500D01*
X144103465Y-90109500D01*
X143896535Y-90109500D01*
X143896530Y-90109500D01*
X143693587Y-90149868D01*
X143693579Y-90149870D01*
X143502403Y-90229058D01*
X143330342Y-90344024D01*
X143184024Y-90490342D01*
X143069058Y-90662403D01*
X142989870Y-90853579D01*
X142989868Y-90853587D01*
X142949500Y-91056530D01*
X115015500Y-91056530D01*
X115015500Y-90986535D01*
X114975130Y-90783580D01*
X114895941Y-90592402D01*
X114780977Y-90420345D01*
X114780975Y-90420342D01*
X114634657Y-90274024D01*
X114524615Y-90200497D01*
X114462598Y-90159059D01*
X114303567Y-90093186D01*
X114271420Y-90079870D01*
X114271412Y-90079868D01*
X114068469Y-90039500D01*
X114068465Y-90039500D01*
X113861535Y-90039500D01*
X113861530Y-90039500D01*
X113658587Y-90079868D01*
X113658579Y-90079870D01*
X113467403Y-90159058D01*
X113295342Y-90274024D01*
X113149024Y-90420342D01*
X113034058Y-90592403D01*
X112954870Y-90783579D01*
X112954868Y-90783587D01*
X112914500Y-90986530D01*
X90187803Y-90986530D01*
X90142026Y-90971656D01*
X90084350Y-90932218D01*
X90057152Y-90867860D01*
X90069067Y-90799013D01*
X90116311Y-90747538D01*
X90132882Y-90739168D01*
X90297598Y-90670941D01*
X90469655Y-90555977D01*
X90615977Y-90409655D01*
X90730941Y-90237598D01*
X90810130Y-90046420D01*
X90850500Y-89843465D01*
X90850500Y-89834108D01*
X94499500Y-89834108D01*
X94499500Y-89965891D01*
X94533608Y-90093187D01*
X94541766Y-90107316D01*
X94599500Y-90207314D01*
X94692686Y-90300500D01*
X94806814Y-90366392D01*
X94934108Y-90400500D01*
X94934110Y-90400500D01*
X95065890Y-90400500D01*
X95065892Y-90400500D01*
X95193186Y-90366392D01*
X95307314Y-90300500D01*
X95345995Y-90261819D01*
X95407318Y-90228334D01*
X95433676Y-90225500D01*
X100902762Y-90225500D01*
X100964761Y-90242112D01*
X101006814Y-90266392D01*
X101134108Y-90300500D01*
X101134110Y-90300500D01*
X101265890Y-90300500D01*
X101265892Y-90300500D01*
X101393186Y-90266392D01*
X101507314Y-90200500D01*
X101600500Y-90107314D01*
X101666392Y-89993186D01*
X101700500Y-89865892D01*
X101700500Y-89734108D01*
X101666392Y-89606814D01*
X101600500Y-89492686D01*
X101507314Y-89399500D01*
X101449247Y-89365975D01*
X101393187Y-89333608D01*
X101329539Y-89316554D01*
X101265892Y-89299500D01*
X101134108Y-89299500D01*
X101006812Y-89333608D01*
X100892686Y-89399500D01*
X100892683Y-89399502D01*
X100799501Y-89492684D01*
X100799497Y-89492689D01*
X100788060Y-89512500D01*
X100737493Y-89560716D01*
X100680673Y-89574500D01*
X95433676Y-89574500D01*
X95366637Y-89554815D01*
X95345995Y-89538181D01*
X95307316Y-89499502D01*
X95307314Y-89499500D01*
X95250250Y-89466554D01*
X95193187Y-89433608D01*
X95129539Y-89416554D01*
X95065892Y-89399500D01*
X94934108Y-89399500D01*
X94806812Y-89433608D01*
X94692686Y-89499500D01*
X94692683Y-89499502D01*
X94599502Y-89592683D01*
X94599500Y-89592686D01*
X94533608Y-89706812D01*
X94499500Y-89834108D01*
X90850500Y-89834108D01*
X90850500Y-89636535D01*
X90810130Y-89433580D01*
X90730941Y-89242402D01*
X90615977Y-89070345D01*
X90615975Y-89070342D01*
X90469657Y-88924024D01*
X90368467Y-88856412D01*
X90297598Y-88809059D01*
X90106420Y-88729870D01*
X90106412Y-88729868D01*
X89903469Y-88689500D01*
X89903465Y-88689500D01*
X89696535Y-88689500D01*
X89696530Y-88689500D01*
X89493587Y-88729868D01*
X89493579Y-88729870D01*
X89302403Y-88809058D01*
X89130342Y-88924024D01*
X88984024Y-89070342D01*
X88869058Y-89242403D01*
X88789870Y-89433579D01*
X88789868Y-89433587D01*
X88749500Y-89636530D01*
X88749500Y-89843469D01*
X88789868Y-90046412D01*
X88789870Y-90046420D01*
X88865521Y-90229058D01*
X88869059Y-90237598D01*
X88926541Y-90323626D01*
X88984024Y-90409657D01*
X89130342Y-90555975D01*
X89302405Y-90670943D01*
X89405043Y-90713456D01*
X89467108Y-90739164D01*
X89521511Y-90783005D01*
X89543576Y-90849299D01*
X89526297Y-90916998D01*
X89475160Y-90964609D01*
X89457974Y-90971656D01*
X89281781Y-91028905D01*
X89092439Y-91125380D01*
X89038282Y-91164727D01*
X89038282Y-91164728D01*
X89670591Y-91797037D01*
X89607007Y-91814075D01*
X89492993Y-91879901D01*
X89399901Y-91972993D01*
X89334075Y-92087007D01*
X89317037Y-92150591D01*
X88684728Y-91518282D01*
X88684727Y-91518282D01*
X88645380Y-91572439D01*
X88548904Y-91761782D01*
X88483242Y-91963869D01*
X88483242Y-91963872D01*
X88450000Y-92173753D01*
X65500500Y-92173753D01*
X65500500Y-88446530D01*
X112914500Y-88446530D01*
X112914500Y-88653469D01*
X112954868Y-88856412D01*
X112954870Y-88856420D01*
X113034058Y-89047596D01*
X113149024Y-89219657D01*
X113295342Y-89365975D01*
X113295345Y-89365977D01*
X113467402Y-89480941D01*
X113658580Y-89560130D01*
X113861530Y-89600499D01*
X113861534Y-89600500D01*
X113861535Y-89600500D01*
X114068466Y-89600500D01*
X114068467Y-89600499D01*
X114271420Y-89560130D01*
X114462598Y-89480941D01*
X114634655Y-89365977D01*
X114780977Y-89219655D01*
X114895941Y-89047598D01*
X114975130Y-88856420D01*
X115015500Y-88653465D01*
X115015500Y-88516530D01*
X142949500Y-88516530D01*
X142949500Y-88723469D01*
X142989868Y-88926412D01*
X142989870Y-88926420D01*
X143069058Y-89117596D01*
X143184024Y-89289657D01*
X143330342Y-89435975D01*
X143330345Y-89435977D01*
X143502402Y-89550941D01*
X143693580Y-89630130D01*
X143896530Y-89670499D01*
X143896534Y-89670500D01*
X143896535Y-89670500D01*
X144103466Y-89670500D01*
X144103467Y-89670499D01*
X144306420Y-89630130D01*
X144497598Y-89550941D01*
X144669655Y-89435977D01*
X144815977Y-89289655D01*
X144930941Y-89117598D01*
X145010130Y-88926420D01*
X145050500Y-88723465D01*
X145050500Y-88516535D01*
X145010130Y-88313580D01*
X144930941Y-88122402D01*
X144815977Y-87950345D01*
X144815975Y-87950342D01*
X144669657Y-87804024D01*
X144564892Y-87734023D01*
X144497598Y-87689059D01*
X144306420Y-87609870D01*
X144306412Y-87609868D01*
X144103469Y-87569500D01*
X144103465Y-87569500D01*
X143896535Y-87569500D01*
X143896530Y-87569500D01*
X143693587Y-87609868D01*
X143693579Y-87609870D01*
X143502403Y-87689058D01*
X143330342Y-87804024D01*
X143184024Y-87950342D01*
X143069058Y-88122403D01*
X142989870Y-88313579D01*
X142989868Y-88313587D01*
X142949500Y-88516530D01*
X115015500Y-88516530D01*
X115015500Y-88446535D01*
X114975130Y-88243580D01*
X114895941Y-88052402D01*
X114780977Y-87880345D01*
X114780975Y-87880342D01*
X114634657Y-87734024D01*
X114548626Y-87676541D01*
X114462598Y-87619059D01*
X114271420Y-87539870D01*
X114271412Y-87539868D01*
X114068469Y-87499500D01*
X114068465Y-87499500D01*
X113861535Y-87499500D01*
X113861530Y-87499500D01*
X113658587Y-87539868D01*
X113658579Y-87539870D01*
X113467403Y-87619058D01*
X113295342Y-87734024D01*
X113149024Y-87880342D01*
X113034058Y-88052403D01*
X112954870Y-88243579D01*
X112954868Y-88243587D01*
X112914500Y-88446530D01*
X65500500Y-88446530D01*
X65500500Y-86330247D01*
X88749500Y-86330247D01*
X88749500Y-88069752D01*
X88761131Y-88128229D01*
X88761132Y-88128230D01*
X88805447Y-88194552D01*
X88871769Y-88238867D01*
X88871770Y-88238868D01*
X88930247Y-88250499D01*
X88930250Y-88250500D01*
X88930252Y-88250500D01*
X90669750Y-88250500D01*
X90669751Y-88250499D01*
X90684568Y-88247552D01*
X90728229Y-88238868D01*
X90728229Y-88238867D01*
X90728231Y-88238867D01*
X90794552Y-88194552D01*
X90838867Y-88128231D01*
X90838867Y-88128229D01*
X90838868Y-88128229D01*
X90850499Y-88069752D01*
X90850500Y-88069750D01*
X90850500Y-86330249D01*
X90850499Y-86330247D01*
X90838868Y-86271770D01*
X90838867Y-86271769D01*
X90794552Y-86205447D01*
X90728230Y-86161132D01*
X90728229Y-86161131D01*
X90669752Y-86149500D01*
X90669748Y-86149500D01*
X88930252Y-86149500D01*
X88930247Y-86149500D01*
X88871770Y-86161131D01*
X88871769Y-86161132D01*
X88805447Y-86205447D01*
X88761132Y-86271769D01*
X88761131Y-86271770D01*
X88749500Y-86330247D01*
X65500500Y-86330247D01*
X65500500Y-85906530D01*
X112914500Y-85906530D01*
X112914500Y-86113469D01*
X112954868Y-86316412D01*
X112954870Y-86316420D01*
X113034058Y-86507596D01*
X113149024Y-86679657D01*
X113295342Y-86825975D01*
X113295345Y-86825977D01*
X113467402Y-86940941D01*
X113658580Y-87020130D01*
X113861530Y-87060499D01*
X113861534Y-87060500D01*
X113861535Y-87060500D01*
X114068466Y-87060500D01*
X114068467Y-87060499D01*
X114271420Y-87020130D01*
X114462598Y-86940941D01*
X114634655Y-86825977D01*
X114780977Y-86679655D01*
X114895941Y-86507598D01*
X114975130Y-86316420D01*
X115015500Y-86113465D01*
X115015500Y-85976530D01*
X142949500Y-85976530D01*
X142949500Y-86183469D01*
X142989868Y-86386412D01*
X142989870Y-86386420D01*
X143069058Y-86577596D01*
X143184024Y-86749657D01*
X143330342Y-86895975D01*
X143330345Y-86895977D01*
X143502402Y-87010941D01*
X143693580Y-87090130D01*
X143896530Y-87130499D01*
X143896534Y-87130500D01*
X143896535Y-87130500D01*
X144103466Y-87130500D01*
X144103467Y-87130499D01*
X144306420Y-87090130D01*
X144497598Y-87010941D01*
X144669655Y-86895977D01*
X144815977Y-86749655D01*
X144930941Y-86577598D01*
X145010130Y-86386420D01*
X145050500Y-86183465D01*
X145050500Y-85976535D01*
X145010130Y-85773580D01*
X144930941Y-85582402D01*
X144815977Y-85410345D01*
X144815975Y-85410342D01*
X144669657Y-85264024D01*
X144564892Y-85194023D01*
X144497598Y-85149059D01*
X144306420Y-85069870D01*
X144306412Y-85069868D01*
X144103469Y-85029500D01*
X144103465Y-85029500D01*
X143896535Y-85029500D01*
X143896530Y-85029500D01*
X143693587Y-85069868D01*
X143693579Y-85069870D01*
X143502403Y-85149058D01*
X143330342Y-85264024D01*
X143184024Y-85410342D01*
X143069058Y-85582403D01*
X142989870Y-85773579D01*
X142989868Y-85773587D01*
X142949500Y-85976530D01*
X115015500Y-85976530D01*
X115015500Y-85906535D01*
X114975130Y-85703580D01*
X114895941Y-85512402D01*
X114780977Y-85340345D01*
X114780975Y-85340342D01*
X114634657Y-85194024D01*
X114548626Y-85136541D01*
X114462598Y-85079059D01*
X114271420Y-84999870D01*
X114271412Y-84999868D01*
X114068469Y-84959500D01*
X114068465Y-84959500D01*
X113861535Y-84959500D01*
X113861530Y-84959500D01*
X113658587Y-84999868D01*
X113658579Y-84999870D01*
X113467403Y-85079058D01*
X113295342Y-85194024D01*
X113149024Y-85340342D01*
X113034058Y-85512403D01*
X112954870Y-85703579D01*
X112954868Y-85703587D01*
X112914500Y-85906530D01*
X65500500Y-85906530D01*
X65500500Y-83366530D01*
X112914500Y-83366530D01*
X112914500Y-83573469D01*
X112954868Y-83776412D01*
X112954870Y-83776420D01*
X113034058Y-83967596D01*
X113149024Y-84139657D01*
X113295342Y-84285975D01*
X113295345Y-84285977D01*
X113467402Y-84400941D01*
X113658580Y-84480130D01*
X113861530Y-84520499D01*
X113861534Y-84520500D01*
X113861535Y-84520500D01*
X114068466Y-84520500D01*
X114068467Y-84520499D01*
X114271420Y-84480130D01*
X114462598Y-84400941D01*
X114634655Y-84285977D01*
X114780977Y-84139655D01*
X114895941Y-83967598D01*
X114975130Y-83776420D01*
X115015500Y-83573465D01*
X115015500Y-83436530D01*
X142949500Y-83436530D01*
X142949500Y-83643469D01*
X142989868Y-83846412D01*
X142989870Y-83846420D01*
X143069058Y-84037596D01*
X143184024Y-84209657D01*
X143330342Y-84355975D01*
X143330345Y-84355977D01*
X143502402Y-84470941D01*
X143693580Y-84550130D01*
X143896530Y-84590499D01*
X143896534Y-84590500D01*
X143896535Y-84590500D01*
X144103466Y-84590500D01*
X144103467Y-84590499D01*
X144306420Y-84550130D01*
X144497598Y-84470941D01*
X144669655Y-84355977D01*
X144815977Y-84209655D01*
X144930941Y-84037598D01*
X145010130Y-83846420D01*
X145050500Y-83643465D01*
X145050500Y-83436535D01*
X145010130Y-83233580D01*
X144930941Y-83042402D01*
X144815977Y-82870345D01*
X144815975Y-82870342D01*
X144669657Y-82724024D01*
X144564892Y-82654023D01*
X144497598Y-82609059D01*
X144306420Y-82529870D01*
X144306412Y-82529868D01*
X144103469Y-82489500D01*
X144103465Y-82489500D01*
X143896535Y-82489500D01*
X143896530Y-82489500D01*
X143693587Y-82529868D01*
X143693579Y-82529870D01*
X143502403Y-82609058D01*
X143330342Y-82724024D01*
X143184024Y-82870342D01*
X143069058Y-83042403D01*
X142989870Y-83233579D01*
X142989868Y-83233587D01*
X142949500Y-83436530D01*
X115015500Y-83436530D01*
X115015500Y-83366535D01*
X114975130Y-83163580D01*
X114895941Y-82972402D01*
X114780977Y-82800345D01*
X114780975Y-82800342D01*
X114634657Y-82654024D01*
X114548626Y-82596541D01*
X114462598Y-82539059D01*
X114271420Y-82459870D01*
X114271412Y-82459868D01*
X114068469Y-82419500D01*
X114068465Y-82419500D01*
X113861535Y-82419500D01*
X113861530Y-82419500D01*
X113658587Y-82459868D01*
X113658579Y-82459870D01*
X113467403Y-82539058D01*
X113295342Y-82654024D01*
X113149024Y-82800342D01*
X113034058Y-82972403D01*
X112954870Y-83163579D01*
X112954868Y-83163587D01*
X112914500Y-83366530D01*
X65500500Y-83366530D01*
X65500500Y-71713753D01*
X88750000Y-71713753D01*
X88750000Y-71926246D01*
X88783242Y-72136127D01*
X88783242Y-72136130D01*
X88848904Y-72338217D01*
X88945375Y-72527550D01*
X88984728Y-72581716D01*
X89617037Y-71949408D01*
X89634075Y-72012993D01*
X89699901Y-72127007D01*
X89792993Y-72220099D01*
X89907007Y-72285925D01*
X89970590Y-72302962D01*
X89338282Y-72935269D01*
X89338282Y-72935270D01*
X89392449Y-72974624D01*
X89586121Y-73073306D01*
X89585603Y-73074321D01*
X89635808Y-73114779D01*
X89657873Y-73181073D01*
X89640594Y-73248772D01*
X89589458Y-73296383D01*
X89533952Y-73309500D01*
X89230247Y-73309500D01*
X89171770Y-73321131D01*
X89171769Y-73321132D01*
X89105447Y-73365447D01*
X89061132Y-73431769D01*
X89061131Y-73431770D01*
X89049500Y-73490247D01*
X89049500Y-75229752D01*
X89061131Y-75288229D01*
X89061132Y-75288230D01*
X89105447Y-75354552D01*
X89171769Y-75398867D01*
X89171770Y-75398868D01*
X89230247Y-75410499D01*
X89230250Y-75410500D01*
X89230252Y-75410500D01*
X90969750Y-75410500D01*
X90969751Y-75410499D01*
X90984568Y-75407552D01*
X91028229Y-75398868D01*
X91028229Y-75398867D01*
X91028231Y-75398867D01*
X91094552Y-75354552D01*
X91138867Y-75288231D01*
X91138867Y-75288229D01*
X91138868Y-75288229D01*
X91150499Y-75229752D01*
X91150500Y-75229750D01*
X91150500Y-73490249D01*
X91150499Y-73490247D01*
X91138868Y-73431770D01*
X91138867Y-73431769D01*
X91094552Y-73365447D01*
X91028230Y-73321132D01*
X91028229Y-73321131D01*
X90969752Y-73309500D01*
X90969748Y-73309500D01*
X90666048Y-73309500D01*
X90599009Y-73289815D01*
X90553254Y-73237011D01*
X90543310Y-73167853D01*
X90572335Y-73104297D01*
X90614264Y-73074061D01*
X90613879Y-73073306D01*
X90807554Y-72974622D01*
X90861716Y-72935270D01*
X90861717Y-72935270D01*
X90229408Y-72302962D01*
X90292993Y-72285925D01*
X90407007Y-72220099D01*
X90500099Y-72127007D01*
X90565925Y-72012993D01*
X90582962Y-71949408D01*
X91215270Y-72581717D01*
X91215270Y-72581716D01*
X91254622Y-72527554D01*
X91351095Y-72338217D01*
X91416757Y-72136130D01*
X91416757Y-72136127D01*
X91450000Y-71926246D01*
X91450000Y-71713753D01*
X91416757Y-71503872D01*
X91416757Y-71503869D01*
X91351095Y-71301782D01*
X91254624Y-71112449D01*
X91215270Y-71058282D01*
X91215269Y-71058282D01*
X90582962Y-71690590D01*
X90565925Y-71627007D01*
X90500099Y-71512993D01*
X90407007Y-71419901D01*
X90292993Y-71354075D01*
X90229409Y-71337037D01*
X90861716Y-70704728D01*
X90807550Y-70665375D01*
X90618216Y-70568904D01*
X90442026Y-70511656D01*
X90384350Y-70472218D01*
X90357152Y-70407860D01*
X90369067Y-70339013D01*
X90416311Y-70287538D01*
X90432882Y-70279168D01*
X90597598Y-70210941D01*
X90769655Y-70095977D01*
X90915977Y-69949655D01*
X91030941Y-69777598D01*
X91110130Y-69586420D01*
X91150500Y-69383465D01*
X91150500Y-69176535D01*
X91110130Y-68973580D01*
X91030941Y-68782402D01*
X90915977Y-68610345D01*
X90915975Y-68610342D01*
X90769657Y-68464024D01*
X90683626Y-68406541D01*
X90597598Y-68349059D01*
X90406420Y-68269870D01*
X90406412Y-68269868D01*
X90203469Y-68229500D01*
X90203465Y-68229500D01*
X89996535Y-68229500D01*
X89996530Y-68229500D01*
X89793587Y-68269868D01*
X89793579Y-68269870D01*
X89602403Y-68349058D01*
X89430342Y-68464024D01*
X89284024Y-68610342D01*
X89169058Y-68782403D01*
X89089870Y-68973579D01*
X89089868Y-68973587D01*
X89049500Y-69176530D01*
X89049500Y-69383469D01*
X89089868Y-69586412D01*
X89089870Y-69586420D01*
X89169058Y-69777596D01*
X89284024Y-69949657D01*
X89430342Y-70095975D01*
X89602405Y-70210943D01*
X89705043Y-70253456D01*
X89767108Y-70279164D01*
X89821511Y-70323005D01*
X89843576Y-70389299D01*
X89826297Y-70456998D01*
X89775160Y-70504609D01*
X89757974Y-70511656D01*
X89581781Y-70568905D01*
X89392439Y-70665380D01*
X89338282Y-70704727D01*
X89338282Y-70704728D01*
X89970591Y-71337037D01*
X89907007Y-71354075D01*
X89792993Y-71419901D01*
X89699901Y-71512993D01*
X89634075Y-71627007D01*
X89617037Y-71690591D01*
X88984728Y-71058282D01*
X88984727Y-71058282D01*
X88945380Y-71112439D01*
X88848904Y-71301782D01*
X88783242Y-71503869D01*
X88783242Y-71503872D01*
X88750000Y-71713753D01*
X65500500Y-71713753D01*
X65500500Y-66636530D01*
X89049500Y-66636530D01*
X89049500Y-66843469D01*
X89089868Y-67046412D01*
X89089870Y-67046420D01*
X89149811Y-67191131D01*
X89169059Y-67237598D01*
X89206202Y-67293187D01*
X89284024Y-67409657D01*
X89430342Y-67555975D01*
X89430345Y-67555977D01*
X89602402Y-67670941D01*
X89793580Y-67750130D01*
X89996530Y-67790499D01*
X89996534Y-67790500D01*
X89996535Y-67790500D01*
X90203466Y-67790500D01*
X90203467Y-67790499D01*
X90406420Y-67750130D01*
X90597598Y-67670941D01*
X90769655Y-67555977D01*
X90915977Y-67409655D01*
X91030941Y-67237598D01*
X91110130Y-67046420D01*
X91112579Y-67034108D01*
X97399500Y-67034108D01*
X97399500Y-67165891D01*
X97433608Y-67293187D01*
X97440687Y-67305448D01*
X97499500Y-67407314D01*
X97592686Y-67500500D01*
X97706814Y-67566392D01*
X97834108Y-67600500D01*
X97888811Y-67600500D01*
X97955850Y-67620185D01*
X97976492Y-67636819D01*
X107038181Y-76698507D01*
X107071666Y-76759830D01*
X107074500Y-76786188D01*
X107074500Y-80496324D01*
X107054815Y-80563363D01*
X107038181Y-80584005D01*
X106999502Y-80622683D01*
X106999500Y-80622686D01*
X106933608Y-80736812D01*
X106899500Y-80864108D01*
X106899500Y-80995891D01*
X106933608Y-81123187D01*
X106966554Y-81180250D01*
X106999500Y-81237314D01*
X107092686Y-81330500D01*
X107206814Y-81396392D01*
X107334108Y-81430500D01*
X107334110Y-81430500D01*
X107465890Y-81430500D01*
X107465892Y-81430500D01*
X107593186Y-81396392D01*
X107707314Y-81330500D01*
X107800500Y-81237314D01*
X107866392Y-81123186D01*
X107900500Y-80995892D01*
X107900500Y-80864108D01*
X107890431Y-80826530D01*
X112914500Y-80826530D01*
X112914500Y-81033469D01*
X112954868Y-81236412D01*
X112954870Y-81236420D01*
X113021132Y-81396391D01*
X113034059Y-81427598D01*
X113035998Y-81430500D01*
X113149024Y-81599657D01*
X113295342Y-81745975D01*
X113295345Y-81745977D01*
X113467402Y-81860941D01*
X113658580Y-81940130D01*
X113861530Y-81980499D01*
X113861534Y-81980500D01*
X113861535Y-81980500D01*
X114068466Y-81980500D01*
X114068467Y-81980499D01*
X114271420Y-81940130D01*
X114462598Y-81860941D01*
X114634655Y-81745977D01*
X114780977Y-81599655D01*
X114895941Y-81427598D01*
X114975130Y-81236420D01*
X115015500Y-81033465D01*
X115015500Y-80896530D01*
X142949500Y-80896530D01*
X142949500Y-81103469D01*
X142989868Y-81306412D01*
X142989870Y-81306420D01*
X143069058Y-81497596D01*
X143184024Y-81669657D01*
X143330342Y-81815975D01*
X143330345Y-81815977D01*
X143502402Y-81930941D01*
X143693580Y-82010130D01*
X143896530Y-82050499D01*
X143896534Y-82050500D01*
X143896535Y-82050500D01*
X144103466Y-82050500D01*
X144103467Y-82050499D01*
X144306420Y-82010130D01*
X144497598Y-81930941D01*
X144669655Y-81815977D01*
X144815977Y-81669655D01*
X144930941Y-81497598D01*
X145010130Y-81306420D01*
X145050500Y-81103465D01*
X145050500Y-80896535D01*
X145010130Y-80693580D01*
X144930941Y-80502402D01*
X144815977Y-80330345D01*
X144815975Y-80330342D01*
X144669657Y-80184024D01*
X144564892Y-80114023D01*
X144497598Y-80069059D01*
X144306420Y-79989870D01*
X144306412Y-79989868D01*
X144103469Y-79949500D01*
X144103465Y-79949500D01*
X143896535Y-79949500D01*
X143896530Y-79949500D01*
X143693587Y-79989868D01*
X143693579Y-79989870D01*
X143502403Y-80069058D01*
X143330342Y-80184024D01*
X143184024Y-80330342D01*
X143069058Y-80502403D01*
X142989870Y-80693579D01*
X142989868Y-80693587D01*
X142949500Y-80896530D01*
X115015500Y-80896530D01*
X115015500Y-80826535D01*
X114975130Y-80623580D01*
X114895941Y-80432402D01*
X114780977Y-80260345D01*
X114780975Y-80260342D01*
X114634657Y-80114024D01*
X114548626Y-80056541D01*
X114462598Y-79999059D01*
X114271420Y-79919870D01*
X114271412Y-79919868D01*
X114068469Y-79879500D01*
X114068465Y-79879500D01*
X113861535Y-79879500D01*
X113861530Y-79879500D01*
X113658587Y-79919868D01*
X113658579Y-79919870D01*
X113467403Y-79999058D01*
X113295342Y-80114024D01*
X113149024Y-80260342D01*
X113034058Y-80432403D01*
X112954870Y-80623579D01*
X112954868Y-80623587D01*
X112914500Y-80826530D01*
X107890431Y-80826530D01*
X107866392Y-80736814D01*
X107800500Y-80622686D01*
X107761819Y-80584005D01*
X107728334Y-80522682D01*
X107725500Y-80496324D01*
X107725500Y-78286530D01*
X112914500Y-78286530D01*
X112914500Y-78493469D01*
X112954868Y-78696412D01*
X112954870Y-78696420D01*
X113034058Y-78887596D01*
X113149024Y-79059657D01*
X113295342Y-79205975D01*
X113295345Y-79205977D01*
X113467402Y-79320941D01*
X113658580Y-79400130D01*
X113861530Y-79440499D01*
X113861534Y-79440500D01*
X113861535Y-79440500D01*
X114068466Y-79440500D01*
X114068467Y-79440499D01*
X114271420Y-79400130D01*
X114462598Y-79320941D01*
X114634655Y-79205977D01*
X114780977Y-79059655D01*
X114895941Y-78887598D01*
X114975130Y-78696420D01*
X115015500Y-78493465D01*
X115015500Y-78356530D01*
X142949500Y-78356530D01*
X142949500Y-78563469D01*
X142989868Y-78766412D01*
X142989870Y-78766420D01*
X143069058Y-78957596D01*
X143184024Y-79129657D01*
X143330342Y-79275975D01*
X143330345Y-79275977D01*
X143502402Y-79390941D01*
X143693580Y-79470130D01*
X143896530Y-79510499D01*
X143896534Y-79510500D01*
X143896535Y-79510500D01*
X144103466Y-79510500D01*
X144103467Y-79510499D01*
X144306420Y-79470130D01*
X144497598Y-79390941D01*
X144669655Y-79275977D01*
X144815977Y-79129655D01*
X144930941Y-78957598D01*
X145010130Y-78766420D01*
X145050500Y-78563465D01*
X145050500Y-78356535D01*
X145010130Y-78153580D01*
X144930941Y-77962402D01*
X144815977Y-77790345D01*
X144815975Y-77790342D01*
X144669657Y-77644024D01*
X144564892Y-77574023D01*
X144497598Y-77529059D01*
X144306420Y-77449870D01*
X144306412Y-77449868D01*
X144103469Y-77409500D01*
X144103465Y-77409500D01*
X143896535Y-77409500D01*
X143896530Y-77409500D01*
X143693587Y-77449868D01*
X143693579Y-77449870D01*
X143502403Y-77529058D01*
X143330342Y-77644024D01*
X143184024Y-77790342D01*
X143069058Y-77962403D01*
X142989870Y-78153579D01*
X142989868Y-78153587D01*
X142949500Y-78356530D01*
X115015500Y-78356530D01*
X115015500Y-78286535D01*
X114975130Y-78083580D01*
X114895941Y-77892402D01*
X114780977Y-77720345D01*
X114780975Y-77720342D01*
X114634657Y-77574024D01*
X114548626Y-77516541D01*
X114462598Y-77459059D01*
X114271420Y-77379870D01*
X114271412Y-77379868D01*
X114068469Y-77339500D01*
X114068465Y-77339500D01*
X113861535Y-77339500D01*
X113861530Y-77339500D01*
X113658587Y-77379868D01*
X113658579Y-77379870D01*
X113467403Y-77459058D01*
X113295342Y-77574024D01*
X113149024Y-77720342D01*
X113034058Y-77892403D01*
X112954870Y-78083579D01*
X112954868Y-78083587D01*
X112914500Y-78286530D01*
X107725500Y-78286530D01*
X107725500Y-76557148D01*
X107725500Y-76557147D01*
X107714229Y-76515084D01*
X107703318Y-76474361D01*
X107670545Y-76417598D01*
X107667163Y-76411740D01*
X107667160Y-76411733D01*
X107660467Y-76400140D01*
X107660463Y-76400135D01*
X107595543Y-76335215D01*
X107595520Y-76335194D01*
X107006856Y-75746530D01*
X112914500Y-75746530D01*
X112914500Y-75953469D01*
X112954868Y-76156412D01*
X112954870Y-76156420D01*
X113034058Y-76347596D01*
X113149024Y-76519657D01*
X113295342Y-76665975D01*
X113295345Y-76665977D01*
X113467402Y-76780941D01*
X113658580Y-76860130D01*
X113861530Y-76900499D01*
X113861534Y-76900500D01*
X113861535Y-76900500D01*
X114068466Y-76900500D01*
X114068467Y-76900499D01*
X114271420Y-76860130D01*
X114462598Y-76780941D01*
X114634655Y-76665977D01*
X114780977Y-76519655D01*
X114895941Y-76347598D01*
X114975130Y-76156420D01*
X115015500Y-75953465D01*
X115015500Y-75816530D01*
X142949500Y-75816530D01*
X142949500Y-76023469D01*
X142989868Y-76226412D01*
X142989870Y-76226420D01*
X143069058Y-76417596D01*
X143184024Y-76589657D01*
X143330342Y-76735975D01*
X143330345Y-76735977D01*
X143502402Y-76850941D01*
X143693580Y-76930130D01*
X143896530Y-76970499D01*
X143896534Y-76970500D01*
X143896535Y-76970500D01*
X144103466Y-76970500D01*
X144103467Y-76970499D01*
X144306420Y-76930130D01*
X144497598Y-76850941D01*
X144669655Y-76735977D01*
X144815977Y-76589655D01*
X144930941Y-76417598D01*
X145010130Y-76226420D01*
X145050500Y-76023465D01*
X145050500Y-75816535D01*
X145010130Y-75613580D01*
X144930941Y-75422402D01*
X144815977Y-75250345D01*
X144815975Y-75250342D01*
X144669657Y-75104024D01*
X144564892Y-75034023D01*
X144497598Y-74989059D01*
X144306420Y-74909870D01*
X144306412Y-74909868D01*
X144103469Y-74869500D01*
X144103465Y-74869500D01*
X143896535Y-74869500D01*
X143896530Y-74869500D01*
X143693587Y-74909868D01*
X143693579Y-74909870D01*
X143502403Y-74989058D01*
X143330342Y-75104024D01*
X143184024Y-75250342D01*
X143069058Y-75422403D01*
X142989870Y-75613579D01*
X142989868Y-75613587D01*
X142949500Y-75816530D01*
X115015500Y-75816530D01*
X115015500Y-75746535D01*
X114975130Y-75543580D01*
X114895941Y-75352402D01*
X114780977Y-75180345D01*
X114780975Y-75180342D01*
X114634657Y-75034024D01*
X114548626Y-74976541D01*
X114462598Y-74919059D01*
X114271420Y-74839870D01*
X114271412Y-74839868D01*
X114068469Y-74799500D01*
X114068465Y-74799500D01*
X113861535Y-74799500D01*
X113861530Y-74799500D01*
X113658587Y-74839868D01*
X113658579Y-74839870D01*
X113467403Y-74919058D01*
X113295342Y-75034024D01*
X113149024Y-75180342D01*
X113034058Y-75352403D01*
X112954870Y-75543579D01*
X112954868Y-75543587D01*
X112914500Y-75746530D01*
X107006856Y-75746530D01*
X104466856Y-73206530D01*
X112914500Y-73206530D01*
X112914500Y-73413469D01*
X112954868Y-73616412D01*
X112954870Y-73616420D01*
X113034058Y-73807596D01*
X113149024Y-73979657D01*
X113295342Y-74125975D01*
X113295345Y-74125977D01*
X113467402Y-74240941D01*
X113658580Y-74320130D01*
X113861530Y-74360499D01*
X113861534Y-74360500D01*
X113861535Y-74360500D01*
X114068466Y-74360500D01*
X114068467Y-74360499D01*
X114271420Y-74320130D01*
X114462598Y-74240941D01*
X114634655Y-74125977D01*
X114780977Y-73979655D01*
X114895941Y-73807598D01*
X114975130Y-73616420D01*
X115015500Y-73413465D01*
X115015500Y-73206535D01*
X114975130Y-73003580D01*
X114895941Y-72812402D01*
X114780977Y-72640345D01*
X114780975Y-72640342D01*
X114634657Y-72494024D01*
X114465256Y-72380835D01*
X114462598Y-72379059D01*
X114271420Y-72299870D01*
X114271412Y-72299868D01*
X114068469Y-72259500D01*
X114068465Y-72259500D01*
X113861535Y-72259500D01*
X113861530Y-72259500D01*
X113658587Y-72299868D01*
X113658579Y-72299870D01*
X113467403Y-72379058D01*
X113295342Y-72494024D01*
X113149024Y-72640342D01*
X113034058Y-72812403D01*
X112954870Y-73003579D01*
X112954868Y-73003587D01*
X112914500Y-73206530D01*
X104466856Y-73206530D01*
X103373988Y-72113662D01*
X103294434Y-72034108D01*
X104499500Y-72034108D01*
X104499500Y-72165892D01*
X104509443Y-72203001D01*
X104533608Y-72293187D01*
X104559607Y-72338217D01*
X104599500Y-72407314D01*
X104692686Y-72500500D01*
X104791521Y-72557563D01*
X104802712Y-72564024D01*
X104806814Y-72566392D01*
X104934108Y-72600500D01*
X104934110Y-72600500D01*
X105065890Y-72600500D01*
X105065892Y-72600500D01*
X105193186Y-72566392D01*
X105307314Y-72500500D01*
X105400500Y-72407314D01*
X105466392Y-72293186D01*
X105491900Y-72197986D01*
X105523992Y-72142399D01*
X106999861Y-70666530D01*
X112914500Y-70666530D01*
X112914500Y-70873469D01*
X112954868Y-71076412D01*
X112954870Y-71076420D01*
X113034058Y-71267596D01*
X113149024Y-71439657D01*
X113295342Y-71585975D01*
X113295345Y-71585977D01*
X113467402Y-71700941D01*
X113658580Y-71780130D01*
X113859016Y-71819999D01*
X113861530Y-71820499D01*
X113861534Y-71820500D01*
X113861535Y-71820500D01*
X114068466Y-71820500D01*
X114068467Y-71820499D01*
X114271420Y-71780130D01*
X114462598Y-71700941D01*
X114634655Y-71585977D01*
X114780977Y-71439655D01*
X114895941Y-71267598D01*
X114975130Y-71076420D01*
X115015500Y-70873465D01*
X115015500Y-70733753D01*
X142650000Y-70733753D01*
X142650000Y-70946246D01*
X142683242Y-71156127D01*
X142683242Y-71156130D01*
X142748904Y-71358217D01*
X142845375Y-71547550D01*
X142884728Y-71601716D01*
X143517037Y-70969408D01*
X143534075Y-71032993D01*
X143599901Y-71147007D01*
X143692993Y-71240099D01*
X143807007Y-71305925D01*
X143870590Y-71322962D01*
X143238282Y-71955269D01*
X143238282Y-71955270D01*
X143292449Y-71994624D01*
X143481782Y-72091095D01*
X143657973Y-72148343D01*
X143715648Y-72187780D01*
X143742847Y-72252139D01*
X143730932Y-72320985D01*
X143683688Y-72372461D01*
X143667108Y-72380835D01*
X143502403Y-72449057D01*
X143330342Y-72564024D01*
X143184024Y-72710342D01*
X143069058Y-72882403D01*
X142989870Y-73073579D01*
X142989868Y-73073587D01*
X142949500Y-73276530D01*
X142949500Y-73483469D01*
X142989868Y-73686412D01*
X142989870Y-73686420D01*
X143069058Y-73877596D01*
X143184024Y-74049657D01*
X143330342Y-74195975D01*
X143330345Y-74195977D01*
X143502402Y-74310941D01*
X143693580Y-74390130D01*
X143896530Y-74430499D01*
X143896534Y-74430500D01*
X143896535Y-74430500D01*
X144103466Y-74430500D01*
X144103467Y-74430499D01*
X144306420Y-74390130D01*
X144497598Y-74310941D01*
X144669655Y-74195977D01*
X144815977Y-74049655D01*
X144930941Y-73877598D01*
X145010130Y-73686420D01*
X145050500Y-73483465D01*
X145050500Y-73276535D01*
X145010130Y-73073580D01*
X144930941Y-72882402D01*
X144815977Y-72710345D01*
X144815975Y-72710342D01*
X144669657Y-72564024D01*
X144564892Y-72494023D01*
X144497598Y-72449059D01*
X144497593Y-72449057D01*
X144396815Y-72407313D01*
X144332890Y-72380834D01*
X144278488Y-72336994D01*
X144256423Y-72270700D01*
X144273702Y-72203001D01*
X144324839Y-72155390D01*
X144342026Y-72148343D01*
X144518217Y-72091095D01*
X144707554Y-71994622D01*
X144761716Y-71955270D01*
X144761717Y-71955270D01*
X144129408Y-71322962D01*
X144192993Y-71305925D01*
X144307007Y-71240099D01*
X144400099Y-71147007D01*
X144465925Y-71032993D01*
X144482962Y-70969408D01*
X145115270Y-71601717D01*
X145115270Y-71601716D01*
X145154622Y-71547554D01*
X145251095Y-71358217D01*
X145316757Y-71156130D01*
X145316757Y-71156127D01*
X145350000Y-70946246D01*
X145350000Y-70733753D01*
X145316757Y-70523872D01*
X145316757Y-70523869D01*
X145251095Y-70321782D01*
X145154624Y-70132449D01*
X145115270Y-70078282D01*
X145115269Y-70078282D01*
X144482962Y-70710590D01*
X144465925Y-70647007D01*
X144400099Y-70532993D01*
X144307007Y-70439901D01*
X144192993Y-70374075D01*
X144129409Y-70357037D01*
X144761716Y-69724728D01*
X144707550Y-69685375D01*
X144513879Y-69586694D01*
X144514396Y-69585678D01*
X144464192Y-69545221D01*
X144442127Y-69478927D01*
X144459406Y-69411228D01*
X144510542Y-69363617D01*
X144566048Y-69350500D01*
X144869750Y-69350500D01*
X144869751Y-69350499D01*
X144884568Y-69347552D01*
X144928229Y-69338868D01*
X144928229Y-69338867D01*
X144928231Y-69338867D01*
X144994552Y-69294552D01*
X145038867Y-69228231D01*
X145038867Y-69228229D01*
X145038868Y-69228229D01*
X145050499Y-69169752D01*
X145050500Y-69169750D01*
X145050500Y-67430249D01*
X145050499Y-67430247D01*
X145038868Y-67371770D01*
X145038867Y-67371769D01*
X144994552Y-67305447D01*
X144928230Y-67261132D01*
X144928229Y-67261131D01*
X144869752Y-67249500D01*
X144869748Y-67249500D01*
X143130252Y-67249500D01*
X143130247Y-67249500D01*
X143071770Y-67261131D01*
X143071769Y-67261132D01*
X143005447Y-67305447D01*
X142961132Y-67371769D01*
X142961131Y-67371770D01*
X142949500Y-67430247D01*
X142949500Y-69169752D01*
X142961131Y-69228229D01*
X142961132Y-69228230D01*
X143005447Y-69294552D01*
X143071769Y-69338867D01*
X143071770Y-69338868D01*
X143130247Y-69350499D01*
X143130250Y-69350500D01*
X143433952Y-69350500D01*
X143500991Y-69370185D01*
X143546746Y-69422989D01*
X143556690Y-69492147D01*
X143527665Y-69555703D01*
X143485735Y-69585938D01*
X143486121Y-69586694D01*
X143292439Y-69685380D01*
X143238282Y-69724727D01*
X143238282Y-69724728D01*
X143870591Y-70357037D01*
X143807007Y-70374075D01*
X143692993Y-70439901D01*
X143599901Y-70532993D01*
X143534075Y-70647007D01*
X143517037Y-70710591D01*
X142884728Y-70078282D01*
X142884727Y-70078282D01*
X142845380Y-70132439D01*
X142748904Y-70321782D01*
X142683242Y-70523869D01*
X142683242Y-70523872D01*
X142650000Y-70733753D01*
X115015500Y-70733753D01*
X115015500Y-70666535D01*
X114975130Y-70463580D01*
X114895941Y-70272402D01*
X114780977Y-70100345D01*
X114780975Y-70100342D01*
X114634657Y-69954024D01*
X114548626Y-69896541D01*
X114462598Y-69839059D01*
X114271420Y-69759870D01*
X114271412Y-69759868D01*
X114068469Y-69719500D01*
X114068465Y-69719500D01*
X113861535Y-69719500D01*
X113861530Y-69719500D01*
X113658587Y-69759868D01*
X113658579Y-69759870D01*
X113467403Y-69839058D01*
X113295342Y-69954024D01*
X113149024Y-70100342D01*
X113034058Y-70272403D01*
X112954870Y-70463579D01*
X112954868Y-70463587D01*
X112914500Y-70666530D01*
X106999861Y-70666530D01*
X110306144Y-67360247D01*
X112914500Y-67360247D01*
X112914500Y-69099752D01*
X112926131Y-69158229D01*
X112926132Y-69158230D01*
X112970447Y-69224552D01*
X113036769Y-69268867D01*
X113036770Y-69268868D01*
X113095247Y-69280499D01*
X113095250Y-69280500D01*
X113095252Y-69280500D01*
X114834750Y-69280500D01*
X114834751Y-69280499D01*
X114849568Y-69277552D01*
X114893229Y-69268868D01*
X114893229Y-69268867D01*
X114893231Y-69268867D01*
X114959552Y-69224552D01*
X115003867Y-69158231D01*
X115003867Y-69158229D01*
X115003868Y-69158229D01*
X115015499Y-69099752D01*
X115015500Y-69099750D01*
X115015500Y-67360249D01*
X115015499Y-67360247D01*
X115003868Y-67301770D01*
X115003867Y-67301769D01*
X114959552Y-67235447D01*
X114893230Y-67191132D01*
X114893229Y-67191131D01*
X114834752Y-67179500D01*
X114834748Y-67179500D01*
X113095252Y-67179500D01*
X113095247Y-67179500D01*
X113036770Y-67191131D01*
X113036769Y-67191132D01*
X112970447Y-67235447D01*
X112926132Y-67301769D01*
X112926131Y-67301770D01*
X112914500Y-67360247D01*
X110306144Y-67360247D01*
X113042399Y-64623992D01*
X113097986Y-64591900D01*
X113193183Y-64566393D01*
X113193183Y-64566392D01*
X113193186Y-64566392D01*
X113307314Y-64500500D01*
X113400500Y-64407314D01*
X113466392Y-64293186D01*
X113500500Y-64165892D01*
X113500500Y-64034108D01*
X146799500Y-64034108D01*
X146799500Y-64165891D01*
X146833608Y-64293187D01*
X146851759Y-64324624D01*
X146899500Y-64407314D01*
X146992686Y-64500500D01*
X147106814Y-64566392D01*
X147202014Y-64591900D01*
X147257600Y-64623993D01*
X149163181Y-66529574D01*
X149196666Y-66590897D01*
X149199500Y-66617255D01*
X149199500Y-108982744D01*
X149179815Y-109049783D01*
X149163181Y-109070425D01*
X147257600Y-110976005D01*
X147202014Y-111008098D01*
X147106815Y-111033607D01*
X147106814Y-111033607D01*
X146992686Y-111099500D01*
X146992683Y-111099502D01*
X146899502Y-111192683D01*
X146899500Y-111192686D01*
X146833608Y-111306812D01*
X146799500Y-111434108D01*
X146799500Y-111565892D01*
X146816554Y-111629539D01*
X146833608Y-111693187D01*
X146866554Y-111750250D01*
X146899500Y-111807314D01*
X146992686Y-111900500D01*
X147106814Y-111966392D01*
X147234108Y-112000500D01*
X147234110Y-112000500D01*
X147365890Y-112000500D01*
X147365892Y-112000500D01*
X147493186Y-111966392D01*
X147607314Y-111900500D01*
X147700500Y-111807314D01*
X147766392Y-111693186D01*
X147791900Y-111597986D01*
X147823992Y-111542399D01*
X150020480Y-109345912D01*
X150073207Y-109254587D01*
X150100501Y-109152727D01*
X150100501Y-109047273D01*
X150073207Y-108945412D01*
X150020480Y-108854087D01*
X150020478Y-108854085D01*
X150017113Y-108848256D01*
X150000500Y-108786255D01*
X150000500Y-103813389D01*
X164359500Y-103813389D01*
X164359500Y-103986611D01*
X164386598Y-104157701D01*
X164440127Y-104322445D01*
X164518768Y-104476788D01*
X164620586Y-104616928D01*
X164743072Y-104739414D01*
X164883212Y-104841232D01*
X165037555Y-104919873D01*
X165202299Y-104973402D01*
X165373389Y-105000500D01*
X165373390Y-105000500D01*
X165546610Y-105000500D01*
X165546611Y-105000500D01*
X165717701Y-104973402D01*
X165882445Y-104919873D01*
X166036788Y-104841232D01*
X166176928Y-104739414D01*
X166299414Y-104616928D01*
X166401232Y-104476788D01*
X166479873Y-104322445D01*
X166533402Y-104157701D01*
X166560500Y-103986611D01*
X166560500Y-103813389D01*
X166533402Y-103642299D01*
X166479873Y-103477555D01*
X166401232Y-103323212D01*
X166299414Y-103183072D01*
X166176928Y-103060586D01*
X166066351Y-102980247D01*
X166899500Y-102980247D01*
X166899500Y-104819752D01*
X166911131Y-104878229D01*
X166911132Y-104878230D01*
X166955447Y-104944552D01*
X167021769Y-104988867D01*
X167021770Y-104988868D01*
X167080247Y-105000499D01*
X167080250Y-105000500D01*
X167080252Y-105000500D01*
X168919750Y-105000500D01*
X168919751Y-105000499D01*
X168934568Y-104997552D01*
X168978229Y-104988868D01*
X168978229Y-104988867D01*
X168978231Y-104988867D01*
X169044552Y-104944552D01*
X169088867Y-104878231D01*
X169088867Y-104878229D01*
X169088868Y-104878229D01*
X169100499Y-104819752D01*
X169100500Y-104819750D01*
X169100500Y-103798543D01*
X175199499Y-103798543D01*
X175237947Y-103991829D01*
X175237950Y-103991839D01*
X175313364Y-104173907D01*
X175313371Y-104173920D01*
X175422860Y-104337781D01*
X175422863Y-104337785D01*
X175562214Y-104477136D01*
X175562218Y-104477139D01*
X175726079Y-104586628D01*
X175726092Y-104586635D01*
X175799232Y-104616930D01*
X175908165Y-104662051D01*
X175908169Y-104662051D01*
X175908170Y-104662052D01*
X176101456Y-104700500D01*
X176101459Y-104700500D01*
X176298543Y-104700500D01*
X176428582Y-104674632D01*
X176491835Y-104662051D01*
X176533164Y-104644931D01*
X176599021Y-104617654D01*
X176673907Y-104586635D01*
X176673907Y-104586634D01*
X176673914Y-104586632D01*
X176837782Y-104477139D01*
X176977139Y-104337782D01*
X177086632Y-104173914D01*
X177162051Y-103991835D01*
X177200500Y-103798541D01*
X177200500Y-103601459D01*
X177199749Y-103597682D01*
X182520000Y-103597682D01*
X182520000Y-103802317D01*
X182552009Y-104004417D01*
X182615244Y-104199031D01*
X182708141Y-104381350D01*
X182708147Y-104381359D01*
X182740523Y-104425921D01*
X182740524Y-104425922D01*
X183420000Y-103746446D01*
X183420000Y-103752661D01*
X183447259Y-103854394D01*
X183499920Y-103945606D01*
X183574394Y-104020080D01*
X183665606Y-104072741D01*
X183767339Y-104100000D01*
X183773553Y-104100000D01*
X183094076Y-104779474D01*
X183138650Y-104811859D01*
X183320968Y-104904755D01*
X183515582Y-104967990D01*
X183717683Y-105000000D01*
X183922317Y-105000000D01*
X184124417Y-104967990D01*
X184319031Y-104904755D01*
X184501349Y-104811859D01*
X184545921Y-104779474D01*
X183866447Y-104100000D01*
X183872661Y-104100000D01*
X183974394Y-104072741D01*
X184065606Y-104020080D01*
X184140080Y-103945606D01*
X184192741Y-103854394D01*
X184220000Y-103752661D01*
X184220000Y-103746447D01*
X184899474Y-104425921D01*
X184931859Y-104381349D01*
X185024755Y-104199031D01*
X185087990Y-104004417D01*
X185120000Y-103802317D01*
X185120000Y-103597682D01*
X185087990Y-103395582D01*
X185024755Y-103200968D01*
X184931859Y-103018650D01*
X184899474Y-102974077D01*
X184899474Y-102974076D01*
X184220000Y-103653551D01*
X184220000Y-103647339D01*
X184192741Y-103545606D01*
X184140080Y-103454394D01*
X184065606Y-103379920D01*
X183974394Y-103327259D01*
X183872661Y-103300000D01*
X183866446Y-103300000D01*
X184545922Y-102620524D01*
X184545921Y-102620523D01*
X184501359Y-102588147D01*
X184501350Y-102588141D01*
X184319031Y-102495244D01*
X184124417Y-102432009D01*
X183922317Y-102400000D01*
X183717683Y-102400000D01*
X183515582Y-102432009D01*
X183320968Y-102495244D01*
X183138644Y-102588143D01*
X183094077Y-102620523D01*
X183094077Y-102620524D01*
X183773554Y-103300000D01*
X183767339Y-103300000D01*
X183665606Y-103327259D01*
X183574394Y-103379920D01*
X183499920Y-103454394D01*
X183447259Y-103545606D01*
X183420000Y-103647339D01*
X183420000Y-103653553D01*
X182740524Y-102974077D01*
X182740523Y-102974077D01*
X182708143Y-103018644D01*
X182615244Y-103200968D01*
X182552009Y-103395582D01*
X182520000Y-103597682D01*
X177199749Y-103597682D01*
X177162051Y-103408165D01*
X177150352Y-103379920D01*
X177086635Y-103226092D01*
X177086628Y-103226079D01*
X176977139Y-103062218D01*
X176977136Y-103062214D01*
X176837785Y-102922863D01*
X176837781Y-102922860D01*
X176673920Y-102813371D01*
X176673907Y-102813364D01*
X176599016Y-102782344D01*
X176491839Y-102737950D01*
X176491829Y-102737947D01*
X176298543Y-102699500D01*
X176298541Y-102699500D01*
X176101459Y-102699500D01*
X176101457Y-102699500D01*
X175908170Y-102737947D01*
X175908160Y-102737950D01*
X175726092Y-102813364D01*
X175726079Y-102813371D01*
X175562218Y-102922860D01*
X175562214Y-102922863D01*
X175422863Y-103062214D01*
X175422860Y-103062218D01*
X175313371Y-103226079D01*
X175313364Y-103226092D01*
X175237950Y-103408160D01*
X175237947Y-103408170D01*
X175199500Y-103601456D01*
X175199500Y-103601458D01*
X175199500Y-103601459D01*
X175199500Y-103798541D01*
X175199500Y-103798543D01*
X175199499Y-103798543D01*
X169100500Y-103798543D01*
X169100500Y-102980249D01*
X169100499Y-102980247D01*
X169088868Y-102921770D01*
X169088867Y-102921769D01*
X169044552Y-102855447D01*
X168978230Y-102811132D01*
X168978229Y-102811131D01*
X168919752Y-102799500D01*
X168919748Y-102799500D01*
X167080252Y-102799500D01*
X167080247Y-102799500D01*
X167021770Y-102811131D01*
X167021769Y-102811132D01*
X166955447Y-102855447D01*
X166911132Y-102921769D01*
X166911131Y-102921770D01*
X166899500Y-102980247D01*
X166066351Y-102980247D01*
X166036788Y-102958768D01*
X165882445Y-102880127D01*
X165717701Y-102826598D01*
X165717699Y-102826597D01*
X165717698Y-102826597D01*
X165586271Y-102805781D01*
X165546611Y-102799500D01*
X165373389Y-102799500D01*
X165333728Y-102805781D01*
X165202302Y-102826597D01*
X165037552Y-102880128D01*
X164883211Y-102958768D01*
X164803256Y-103016859D01*
X164743072Y-103060586D01*
X164743070Y-103060588D01*
X164743069Y-103060588D01*
X164620588Y-103183069D01*
X164620588Y-103183070D01*
X164620586Y-103183072D01*
X164589330Y-103226092D01*
X164518768Y-103323211D01*
X164440128Y-103477552D01*
X164386597Y-103642302D01*
X164368505Y-103756534D01*
X164359500Y-103813389D01*
X150000500Y-103813389D01*
X150000500Y-93013389D01*
X164259500Y-93013389D01*
X164259500Y-93186611D01*
X164260328Y-93191839D01*
X164281193Y-93323579D01*
X164286598Y-93357701D01*
X164340127Y-93522445D01*
X164418768Y-93676788D01*
X164520586Y-93816928D01*
X164643072Y-93939414D01*
X164783212Y-94041232D01*
X164937555Y-94119873D01*
X165102299Y-94173402D01*
X165273389Y-94200500D01*
X165273390Y-94200500D01*
X165446610Y-94200500D01*
X165446611Y-94200500D01*
X165617701Y-94173402D01*
X165782445Y-94119873D01*
X165936788Y-94041232D01*
X166076928Y-93939414D01*
X166199414Y-93816928D01*
X166301232Y-93676788D01*
X166379873Y-93522445D01*
X166433402Y-93357701D01*
X166460500Y-93186611D01*
X166460500Y-93013389D01*
X166433402Y-92842299D01*
X166379873Y-92677555D01*
X166301232Y-92523212D01*
X166199414Y-92383072D01*
X166076928Y-92260586D01*
X165966351Y-92180247D01*
X166799500Y-92180247D01*
X166799500Y-94019752D01*
X166811131Y-94078229D01*
X166811132Y-94078230D01*
X166855447Y-94144552D01*
X166921769Y-94188867D01*
X166921770Y-94188868D01*
X166980247Y-94200499D01*
X166980250Y-94200500D01*
X166980252Y-94200500D01*
X168819750Y-94200500D01*
X168819751Y-94200499D01*
X168834568Y-94197552D01*
X168878229Y-94188868D01*
X168878229Y-94188867D01*
X168878231Y-94188867D01*
X168944552Y-94144552D01*
X168988867Y-94078231D01*
X168988867Y-94078229D01*
X168988868Y-94078229D01*
X169000499Y-94019752D01*
X169000500Y-94019750D01*
X169000500Y-92998543D01*
X175189499Y-92998543D01*
X175227947Y-93191829D01*
X175227950Y-93191839D01*
X175303364Y-93373907D01*
X175303371Y-93373920D01*
X175412860Y-93537781D01*
X175412863Y-93537785D01*
X175552214Y-93677136D01*
X175552218Y-93677139D01*
X175716079Y-93786628D01*
X175716092Y-93786635D01*
X175898160Y-93862049D01*
X175898165Y-93862051D01*
X175898169Y-93862051D01*
X175898170Y-93862052D01*
X176091456Y-93900500D01*
X176091459Y-93900500D01*
X176288543Y-93900500D01*
X176418582Y-93874632D01*
X176481835Y-93862051D01*
X176523164Y-93844931D01*
X176589021Y-93817654D01*
X176663907Y-93786635D01*
X176663907Y-93786634D01*
X176663914Y-93786632D01*
X176827782Y-93677139D01*
X176967139Y-93537782D01*
X177076632Y-93373914D01*
X177152051Y-93191835D01*
X177184174Y-93030345D01*
X177190500Y-92998543D01*
X177190500Y-92801458D01*
X177190499Y-92801455D01*
X177189748Y-92797682D01*
X182510000Y-92797682D01*
X182510000Y-93002317D01*
X182542009Y-93204417D01*
X182605244Y-93399031D01*
X182698141Y-93581350D01*
X182698147Y-93581359D01*
X182730523Y-93625921D01*
X182730524Y-93625922D01*
X183410000Y-92946446D01*
X183410000Y-92952661D01*
X183437259Y-93054394D01*
X183489920Y-93145606D01*
X183564394Y-93220080D01*
X183655606Y-93272741D01*
X183757339Y-93300000D01*
X183763553Y-93300000D01*
X183084076Y-93979474D01*
X183128650Y-94011859D01*
X183310968Y-94104755D01*
X183505582Y-94167990D01*
X183707683Y-94200000D01*
X183912317Y-94200000D01*
X184114417Y-94167990D01*
X184309031Y-94104755D01*
X184491349Y-94011859D01*
X184535921Y-93979474D01*
X183856447Y-93300000D01*
X183862661Y-93300000D01*
X183964394Y-93272741D01*
X184055606Y-93220080D01*
X184130080Y-93145606D01*
X184182741Y-93054394D01*
X184210000Y-92952661D01*
X184210000Y-92946447D01*
X184889474Y-93625921D01*
X184921859Y-93581349D01*
X185014755Y-93399031D01*
X185077990Y-93204417D01*
X185110000Y-93002317D01*
X185110000Y-92797682D01*
X185077990Y-92595582D01*
X185014755Y-92400968D01*
X184921859Y-92218650D01*
X184889474Y-92174077D01*
X184889474Y-92174076D01*
X184210000Y-92853551D01*
X184210000Y-92847339D01*
X184182741Y-92745606D01*
X184130080Y-92654394D01*
X184055606Y-92579920D01*
X183964394Y-92527259D01*
X183862661Y-92500000D01*
X183856446Y-92500000D01*
X184535922Y-91820524D01*
X184535921Y-91820523D01*
X184491359Y-91788147D01*
X184491350Y-91788141D01*
X184309031Y-91695244D01*
X184114417Y-91632009D01*
X183912317Y-91600000D01*
X183707683Y-91600000D01*
X183505582Y-91632009D01*
X183310968Y-91695244D01*
X183128644Y-91788143D01*
X183084077Y-91820523D01*
X183084077Y-91820524D01*
X183763554Y-92500000D01*
X183757339Y-92500000D01*
X183655606Y-92527259D01*
X183564394Y-92579920D01*
X183489920Y-92654394D01*
X183437259Y-92745606D01*
X183410000Y-92847339D01*
X183410000Y-92853553D01*
X182730524Y-92174077D01*
X182730523Y-92174077D01*
X182698143Y-92218644D01*
X182605244Y-92400968D01*
X182542009Y-92595582D01*
X182510000Y-92797682D01*
X177189748Y-92797682D01*
X177152051Y-92608165D01*
X177140178Y-92579500D01*
X177076635Y-92426092D01*
X177076628Y-92426079D01*
X176967139Y-92262218D01*
X176967136Y-92262214D01*
X176827785Y-92122863D01*
X176827781Y-92122860D01*
X176663920Y-92013371D01*
X176663907Y-92013364D01*
X176589016Y-91982344D01*
X176481839Y-91937950D01*
X176481829Y-91937947D01*
X176288543Y-91899500D01*
X176288541Y-91899500D01*
X176091459Y-91899500D01*
X176091457Y-91899500D01*
X175898170Y-91937947D01*
X175898160Y-91937950D01*
X175716092Y-92013364D01*
X175716079Y-92013371D01*
X175552218Y-92122860D01*
X175552214Y-92122863D01*
X175412863Y-92262214D01*
X175412860Y-92262218D01*
X175303371Y-92426079D01*
X175303364Y-92426092D01*
X175227950Y-92608160D01*
X175227947Y-92608170D01*
X175189500Y-92801456D01*
X175189500Y-92801458D01*
X175189500Y-92801459D01*
X175189500Y-92998541D01*
X175189500Y-92998543D01*
X175189499Y-92998543D01*
X169000500Y-92998543D01*
X169000500Y-92180249D01*
X169000499Y-92180247D01*
X168988868Y-92121770D01*
X168988867Y-92121769D01*
X168944552Y-92055447D01*
X168878230Y-92011132D01*
X168878229Y-92011131D01*
X168819752Y-91999500D01*
X168819748Y-91999500D01*
X166980252Y-91999500D01*
X166980247Y-91999500D01*
X166921770Y-92011131D01*
X166921769Y-92011132D01*
X166855447Y-92055447D01*
X166811132Y-92121769D01*
X166811131Y-92121770D01*
X166799500Y-92180247D01*
X165966351Y-92180247D01*
X165936788Y-92158768D01*
X165821703Y-92100130D01*
X165782447Y-92080128D01*
X165782446Y-92080127D01*
X165782445Y-92080127D01*
X165617701Y-92026598D01*
X165617699Y-92026597D01*
X165617698Y-92026597D01*
X165486271Y-92005781D01*
X165446611Y-91999500D01*
X165273389Y-91999500D01*
X165233728Y-92005781D01*
X165102302Y-92026597D01*
X164937552Y-92080128D01*
X164783211Y-92158768D01*
X164712011Y-92210499D01*
X164643072Y-92260586D01*
X164643070Y-92260588D01*
X164643069Y-92260588D01*
X164520588Y-92383069D01*
X164520588Y-92383070D01*
X164520586Y-92383072D01*
X164489330Y-92426092D01*
X164418768Y-92523211D01*
X164340128Y-92677552D01*
X164286597Y-92842302D01*
X164279989Y-92884024D01*
X164259500Y-93013389D01*
X150000500Y-93013389D01*
X150000500Y-73434108D01*
X151299500Y-73434108D01*
X151299500Y-73565891D01*
X151333608Y-73693187D01*
X151366554Y-73750250D01*
X151399500Y-73807314D01*
X151492686Y-73900500D01*
X151606814Y-73966392D01*
X151734108Y-74000500D01*
X151734110Y-74000500D01*
X151865890Y-74000500D01*
X151865892Y-74000500D01*
X151993186Y-73966392D01*
X152107314Y-73900500D01*
X152200500Y-73807314D01*
X152266392Y-73693186D01*
X152300500Y-73565892D01*
X152300500Y-73511188D01*
X152320185Y-73444149D01*
X152336819Y-73423507D01*
X158380079Y-67380247D01*
X163692000Y-67380247D01*
X163692000Y-69119752D01*
X163703631Y-69178229D01*
X163703632Y-69178230D01*
X163747947Y-69244552D01*
X163814269Y-69288867D01*
X163814270Y-69288868D01*
X163872747Y-69300499D01*
X163872750Y-69300500D01*
X163872752Y-69300500D01*
X165612250Y-69300500D01*
X165612251Y-69300499D01*
X165627068Y-69297552D01*
X165670729Y-69288868D01*
X165670729Y-69288867D01*
X165670731Y-69288867D01*
X165737052Y-69244552D01*
X165781367Y-69178231D01*
X165781367Y-69178229D01*
X165781368Y-69178229D01*
X165792999Y-69119752D01*
X165793000Y-69119750D01*
X165793000Y-67380249D01*
X165792999Y-67380247D01*
X165781368Y-67321770D01*
X165781367Y-67321769D01*
X165737052Y-67255447D01*
X165670730Y-67211132D01*
X165670729Y-67211131D01*
X165612252Y-67199500D01*
X165612248Y-67199500D01*
X163872752Y-67199500D01*
X163872747Y-67199500D01*
X163814270Y-67211131D01*
X163814269Y-67211132D01*
X163747947Y-67255447D01*
X163703632Y-67321769D01*
X163703631Y-67321770D01*
X163692000Y-67380247D01*
X158380079Y-67380247D01*
X159223507Y-66536819D01*
X159284830Y-66503334D01*
X159311188Y-66500500D01*
X159365890Y-66500500D01*
X159365892Y-66500500D01*
X159493186Y-66466392D01*
X159607314Y-66400500D01*
X159700500Y-66307314D01*
X159766392Y-66193186D01*
X159800500Y-66065892D01*
X159800500Y-65934108D01*
X159766392Y-65806814D01*
X159700500Y-65692686D01*
X159607314Y-65599500D01*
X159550250Y-65566554D01*
X159493187Y-65533608D01*
X159429539Y-65516554D01*
X159365892Y-65499500D01*
X159234108Y-65499500D01*
X159106812Y-65533608D01*
X158992686Y-65599500D01*
X158992683Y-65599502D01*
X158899502Y-65692683D01*
X158899500Y-65692686D01*
X158833608Y-65806812D01*
X158799500Y-65934108D01*
X158799500Y-65988811D01*
X158779815Y-66055850D01*
X158763181Y-66076492D01*
X151876492Y-72963181D01*
X151815169Y-72996666D01*
X151788811Y-72999500D01*
X151734108Y-72999500D01*
X151606812Y-73033608D01*
X151492686Y-73099500D01*
X151492683Y-73099502D01*
X151399502Y-73192683D01*
X151399500Y-73192686D01*
X151333608Y-73306812D01*
X151299500Y-73434108D01*
X150000500Y-73434108D01*
X150000500Y-66347275D01*
X150000500Y-66347273D01*
X149973207Y-66245413D01*
X149973207Y-66245412D01*
X149920480Y-66154087D01*
X147823993Y-64057600D01*
X147791900Y-64002014D01*
X147766392Y-63906814D01*
X147700500Y-63792686D01*
X147607314Y-63699500D01*
X147550250Y-63666554D01*
X147493187Y-63633608D01*
X147429539Y-63616554D01*
X147365892Y-63599500D01*
X147234108Y-63599500D01*
X147106812Y-63633608D01*
X146992686Y-63699500D01*
X146992683Y-63699502D01*
X146899502Y-63792683D01*
X146899500Y-63792686D01*
X146833608Y-63906812D01*
X146799500Y-64034108D01*
X113500500Y-64034108D01*
X113466392Y-63906814D01*
X113400500Y-63792686D01*
X113307314Y-63699500D01*
X113250250Y-63666554D01*
X113193187Y-63633608D01*
X113129539Y-63616554D01*
X113065892Y-63599500D01*
X112934108Y-63599500D01*
X112806812Y-63633608D01*
X112692686Y-63699500D01*
X112692683Y-63699502D01*
X112599502Y-63792683D01*
X112599500Y-63792686D01*
X112533607Y-63906814D01*
X112533607Y-63906815D01*
X112508098Y-64002014D01*
X112476005Y-64057600D01*
X104957600Y-71576005D01*
X104902014Y-71608098D01*
X104806815Y-71633607D01*
X104806814Y-71633607D01*
X104692686Y-71699500D01*
X104692683Y-71699502D01*
X104599502Y-71792683D01*
X104599500Y-71792686D01*
X104533608Y-71906812D01*
X104505158Y-72012993D01*
X104499500Y-72034108D01*
X103294434Y-72034108D01*
X102974079Y-71713753D01*
X98436819Y-67176492D01*
X98403334Y-67115169D01*
X98400500Y-67088811D01*
X98400500Y-67034110D01*
X98400500Y-67034108D01*
X98366392Y-66906814D01*
X98300500Y-66792686D01*
X98207314Y-66699500D01*
X98150250Y-66666554D01*
X98093187Y-66633608D01*
X98029539Y-66616554D01*
X97965892Y-66599500D01*
X97834108Y-66599500D01*
X97706812Y-66633608D01*
X97592686Y-66699500D01*
X97592683Y-66699502D01*
X97499502Y-66792683D01*
X97499500Y-66792686D01*
X97433608Y-66906812D01*
X97399500Y-67034108D01*
X91112579Y-67034108D01*
X91114544Y-67024229D01*
X91119008Y-67001790D01*
X91150499Y-66843469D01*
X91150500Y-66843466D01*
X91150500Y-66636534D01*
X91150499Y-66636530D01*
X91141422Y-66590897D01*
X91110130Y-66433580D01*
X91030941Y-66242402D01*
X90915977Y-66070345D01*
X90915975Y-66070342D01*
X90769657Y-65924024D01*
X90604198Y-65813469D01*
X90597598Y-65809059D01*
X90592178Y-65806814D01*
X90406420Y-65729870D01*
X90406412Y-65729868D01*
X90203469Y-65689500D01*
X90203465Y-65689500D01*
X89996535Y-65689500D01*
X89996530Y-65689500D01*
X89793587Y-65729868D01*
X89793579Y-65729870D01*
X89602403Y-65809058D01*
X89430342Y-65924024D01*
X89284024Y-66070342D01*
X89169058Y-66242403D01*
X89089870Y-66433579D01*
X89089868Y-66433587D01*
X89049500Y-66636530D01*
X65500500Y-66636530D01*
X65500500Y-64096530D01*
X89049500Y-64096530D01*
X89049500Y-64303469D01*
X89089868Y-64506412D01*
X89089870Y-64506420D01*
X89114710Y-64566390D01*
X89169059Y-64697598D01*
X89177904Y-64710835D01*
X89284024Y-64869657D01*
X89430342Y-65015975D01*
X89430345Y-65015977D01*
X89602402Y-65130941D01*
X89793580Y-65210130D01*
X89996530Y-65250499D01*
X89996534Y-65250500D01*
X89996535Y-65250500D01*
X90203466Y-65250500D01*
X90203467Y-65250499D01*
X90406420Y-65210130D01*
X90597598Y-65130941D01*
X90769655Y-65015977D01*
X90915977Y-64869655D01*
X91030941Y-64697598D01*
X91110130Y-64506420D01*
X91150500Y-64303465D01*
X91150500Y-64096535D01*
X91110130Y-63893580D01*
X91030941Y-63702402D01*
X90915977Y-63530345D01*
X90915975Y-63530342D01*
X90769657Y-63384024D01*
X90608354Y-63276246D01*
X90597598Y-63269059D01*
X90406420Y-63189870D01*
X90406412Y-63189868D01*
X90359306Y-63180498D01*
X90203469Y-63149500D01*
X90203465Y-63149500D01*
X89996535Y-63149500D01*
X89996530Y-63149500D01*
X89793587Y-63189868D01*
X89793579Y-63189870D01*
X89602403Y-63269058D01*
X89430342Y-63384024D01*
X89284024Y-63530342D01*
X89169058Y-63702403D01*
X89089870Y-63893579D01*
X89089868Y-63893587D01*
X89049500Y-64096530D01*
X65500500Y-64096530D01*
X65500500Y-63063753D01*
X163392500Y-63063753D01*
X163392500Y-63276246D01*
X163425742Y-63486127D01*
X163425742Y-63486130D01*
X163491404Y-63688217D01*
X163587875Y-63877550D01*
X163627228Y-63931716D01*
X164259537Y-63299408D01*
X164276575Y-63362993D01*
X164342401Y-63477007D01*
X164435493Y-63570099D01*
X164549507Y-63635925D01*
X164613090Y-63652962D01*
X163980782Y-64285269D01*
X163980782Y-64285270D01*
X164034949Y-64324624D01*
X164224282Y-64421095D01*
X164400473Y-64478343D01*
X164458148Y-64517780D01*
X164485347Y-64582139D01*
X164473432Y-64650985D01*
X164426188Y-64702461D01*
X164409608Y-64710835D01*
X164244903Y-64779057D01*
X164072842Y-64894024D01*
X163926524Y-65040342D01*
X163811558Y-65212403D01*
X163732370Y-65403579D01*
X163732368Y-65403587D01*
X163692000Y-65606530D01*
X163692000Y-65813469D01*
X163726878Y-65988811D01*
X163732370Y-66016420D01*
X163811559Y-66207598D01*
X163836826Y-66245413D01*
X163926524Y-66379657D01*
X164072842Y-66525975D01*
X164072845Y-66525977D01*
X164244902Y-66640941D01*
X164436080Y-66720130D01*
X164639030Y-66760499D01*
X164639034Y-66760500D01*
X164639035Y-66760500D01*
X164845966Y-66760500D01*
X164845967Y-66760499D01*
X165048920Y-66720130D01*
X165240098Y-66640941D01*
X165412155Y-66525977D01*
X165558477Y-66379655D01*
X165673441Y-66207598D01*
X165752630Y-66016420D01*
X165793000Y-65813465D01*
X165793000Y-65606535D01*
X165752630Y-65403580D01*
X165673441Y-65212402D01*
X165558477Y-65040345D01*
X165558475Y-65040342D01*
X165412157Y-64894024D01*
X165326126Y-64836541D01*
X165240098Y-64779059D01*
X165240093Y-64779057D01*
X165178391Y-64753499D01*
X165075390Y-64710834D01*
X165020988Y-64666994D01*
X164998923Y-64600700D01*
X165016202Y-64533001D01*
X165067339Y-64485390D01*
X165084526Y-64478343D01*
X165260717Y-64421095D01*
X165450054Y-64324622D01*
X165504216Y-64285270D01*
X165504217Y-64285270D01*
X164871908Y-63652962D01*
X164935493Y-63635925D01*
X165049507Y-63570099D01*
X165142599Y-63477007D01*
X165208425Y-63362993D01*
X165225462Y-63299409D01*
X165857770Y-63931717D01*
X165857770Y-63931716D01*
X165897122Y-63877554D01*
X165993595Y-63688217D01*
X166059257Y-63486130D01*
X166059257Y-63486127D01*
X166092500Y-63276246D01*
X166092500Y-63063753D01*
X166059257Y-62853872D01*
X166059257Y-62853869D01*
X165993595Y-62651782D01*
X165897124Y-62462449D01*
X165857770Y-62408282D01*
X165857769Y-62408282D01*
X165225462Y-63040590D01*
X165208425Y-62977007D01*
X165142599Y-62862993D01*
X165049507Y-62769901D01*
X164935493Y-62704075D01*
X164871909Y-62687037D01*
X165504216Y-62054728D01*
X165450050Y-62015375D01*
X165260717Y-61918904D01*
X165058629Y-61853242D01*
X164848746Y-61820000D01*
X164636254Y-61820000D01*
X164426372Y-61853242D01*
X164426369Y-61853242D01*
X164224282Y-61918904D01*
X164034939Y-62015380D01*
X163980782Y-62054727D01*
X163980782Y-62054728D01*
X164613091Y-62687037D01*
X164549507Y-62704075D01*
X164435493Y-62769901D01*
X164342401Y-62862993D01*
X164276575Y-62977007D01*
X164259537Y-63040591D01*
X163627228Y-62408282D01*
X163627227Y-62408282D01*
X163587880Y-62462439D01*
X163491404Y-62651782D01*
X163425742Y-62853869D01*
X163425742Y-62853872D01*
X163392500Y-63063753D01*
X65500500Y-63063753D01*
X65500500Y-55224500D01*
X65520185Y-55157461D01*
X65572989Y-55111706D01*
X65624500Y-55100500D01*
X197075500Y-55100500D01*
X197142539Y-55120185D01*
G37*
%TD.AperFunction*%
%TD*%
M02*
