%TF.GenerationSoftware,KiCad,Pcbnew,9.0.7*%
%TF.CreationDate,2026-05-14T13:48:42-04:00*%
%TF.ProjectId,Projet_final,50726f6a-6574-45f6-9669-6e616c2e6b69,rev?*%
%TF.SameCoordinates,Original*%
%TF.FileFunction,Soldermask,Top*%
%TF.FilePolarity,Negative*%
%FSLAX46Y46*%
G04 Gerber Fmt 4.6, Leading zero omitted, Abs format (unit mm)*
G04 Created by KiCad (PCBNEW 9.0.7) date 2026-05-14 13:48:42*
%MOMM*%
%LPD*%
G01*
G04 APERTURE LIST*
%ADD10R,1.700000X1.700000*%
%ADD11C,1.700000*%
%ADD12C,1.600000*%
%ADD13R,1.800000X1.800000*%
%ADD14C,1.800000*%
G04 APERTURE END LIST*
D10*
%TO.C,J2*%
X113965000Y-68230000D03*
D11*
X113965000Y-70770000D03*
X113965000Y-73310000D03*
X113965000Y-75850000D03*
X113965000Y-78390000D03*
X113965000Y-80930000D03*
X113965000Y-83470000D03*
X113965000Y-86010000D03*
X113965000Y-88550000D03*
X113965000Y-91090000D03*
X113965000Y-93630000D03*
X113965000Y-96170000D03*
X113965000Y-98710000D03*
X113965000Y-101250000D03*
X113965000Y-103790000D03*
X113965000Y-106330000D03*
D10*
X144000000Y-68300000D03*
D11*
X144000000Y-70840000D03*
X144000000Y-73380000D03*
X144000000Y-75920000D03*
X144000000Y-78460000D03*
X144000000Y-81000000D03*
X144000000Y-83540000D03*
X144000000Y-86080000D03*
X144000000Y-88620000D03*
X144000000Y-91160000D03*
X144000000Y-93700000D03*
X144000000Y-96240000D03*
X144000000Y-98780000D03*
X144000000Y-101320000D03*
X144000000Y-103860000D03*
X144000000Y-106400000D03*
%TD*%
D10*
%TO.C,J4*%
X164742500Y-68250000D03*
D11*
X164742500Y-65710000D03*
X164742500Y-63170000D03*
%TD*%
D12*
%TO.C,R1*%
X183810000Y-92900000D03*
X176190000Y-92900000D03*
%TD*%
D10*
%TO.C,J3*%
X90100000Y-74360000D03*
D11*
X90100000Y-71820000D03*
X90100000Y-69280000D03*
X90100000Y-66740000D03*
X90100000Y-64200000D03*
%TD*%
D12*
%TO.C,R2*%
X183820000Y-103700000D03*
X176200000Y-103700000D03*
%TD*%
D13*
%TO.C,D2*%
X168000000Y-103900000D03*
D14*
X165460000Y-103900000D03*
%TD*%
D13*
%TO.C,D1*%
X167900000Y-93100000D03*
D14*
X165360000Y-93100000D03*
%TD*%
D10*
%TO.C,J1*%
X89800000Y-87200000D03*
D11*
X89800000Y-89740000D03*
X89800000Y-92280000D03*
X89800000Y-94820000D03*
X89800000Y-97360000D03*
X89800000Y-99900000D03*
X89800000Y-102440000D03*
%TD*%
M02*
