%TF.GenerationSoftware,KiCad,Pcbnew,9.0.7*%
%TF.CreationDate,2026-03-12T09:49:18-04:00*%
%TF.ProjectId,Projet-mi-session,50726f6a-6574-42d6-9d69-2d7365737369,rev?*%
%TF.SameCoordinates,Original*%
%TF.FileFunction,Soldermask,Bot*%
%TF.FilePolarity,Negative*%
%FSLAX46Y46*%
G04 Gerber Fmt 4.6, Leading zero omitted, Abs format (unit mm)*
G04 Created by KiCad (PCBNEW 9.0.7) date 2026-03-12 09:49:18*
%MOMM*%
%LPD*%
G01*
G04 APERTURE LIST*
%ADD10C,1.600000*%
%ADD11C,6.400000*%
%ADD12C,1.440000*%
%ADD13R,1.800000X1.800000*%
%ADD14C,1.800000*%
%ADD15R,1.700000X1.700000*%
%ADD16C,1.700000*%
%ADD17R,1.600200X1.600200*%
%ADD18C,1.600200*%
G04 APERTURE END LIST*
D10*
%TO.C,R4*%
X164410000Y-93460000D03*
X156790000Y-93460000D03*
%TD*%
D11*
%TO.C,REF\u002A\u002A*%
X191700000Y-144300000D03*
%TD*%
D10*
%TO.C,R2*%
X182910000Y-138360000D03*
X175290000Y-138360000D03*
%TD*%
%TO.C,R1*%
X182800000Y-126660000D03*
X175180000Y-126660000D03*
%TD*%
D12*
%TO.C,POT2*%
X142600000Y-68780000D03*
X145140000Y-66240000D03*
X142600000Y-63700000D03*
%TD*%
%TO.C,POT3*%
X123500000Y-69280000D03*
X126040000Y-66740000D03*
X123500000Y-64200000D03*
%TD*%
D13*
%TO.C,D3*%
X162100000Y-114760000D03*
D14*
X159560000Y-114760000D03*
%TD*%
D11*
%TO.C,REF\u002A\u002A*%
X76700000Y-144100000D03*
%TD*%
D15*
%TO.C,J2*%
X106165000Y-104310000D03*
D16*
X106165000Y-106850000D03*
X106165000Y-109390000D03*
X106165000Y-111930000D03*
X106165000Y-114470000D03*
X106165000Y-117010000D03*
X106165000Y-119550000D03*
X106165000Y-122090000D03*
X106165000Y-124630000D03*
X106165000Y-127170000D03*
X106165000Y-129710000D03*
X106165000Y-132250000D03*
X106165000Y-134790000D03*
X106165000Y-137330000D03*
X106165000Y-139870000D03*
X106165000Y-142410000D03*
D15*
X136200000Y-104380000D03*
D16*
X136200000Y-106920000D03*
X136200000Y-109460000D03*
X136200000Y-112000000D03*
X136200000Y-114540000D03*
X136200000Y-117080000D03*
X136200000Y-119620000D03*
X136200000Y-122160000D03*
X136200000Y-124700000D03*
X136200000Y-127240000D03*
X136200000Y-129780000D03*
X136200000Y-132320000D03*
X136200000Y-134860000D03*
X136200000Y-137400000D03*
X136200000Y-139940000D03*
X136200000Y-142480000D03*
%TD*%
D12*
%TO.C,POT1*%
X102400000Y-69580000D03*
X104940000Y-67040000D03*
X102400000Y-64500000D03*
%TD*%
D15*
%TO.C,J1*%
X83510000Y-93950000D03*
D16*
X86050000Y-93950000D03*
X88590000Y-93950000D03*
X91130000Y-93950000D03*
X93670000Y-93950000D03*
X96210000Y-93950000D03*
D15*
X83520000Y-81400000D03*
D16*
X86060000Y-81400000D03*
X88600000Y-81400000D03*
X91140000Y-81400000D03*
X93680000Y-81400000D03*
X96220000Y-81400000D03*
%TD*%
D13*
%TO.C,D2*%
X162300000Y-138160000D03*
D14*
X159760000Y-138160000D03*
%TD*%
D11*
%TO.C,REF\u002A\u002A*%
X191300000Y-63700000D03*
%TD*%
D17*
%TO.C,SW1*%
X180400000Y-96900000D03*
D18*
X180400000Y-101980000D03*
%TD*%
D11*
%TO.C,REF\u002A\u002A*%
X76900000Y-63500000D03*
%TD*%
D10*
%TO.C,R3*%
X182610000Y-113560000D03*
X174990000Y-113560000D03*
%TD*%
D13*
%TO.C,D1*%
X162100000Y-126460000D03*
D14*
X159560000Y-126460000D03*
%TD*%
M02*
