%TF.GenerationSoftware,KiCad,Pcbnew,9.0.7*%
%TF.CreationDate,2026-03-12T09:49:18-04:00*%
%TF.ProjectId,Projet-mi-session,50726f6a-6574-42d6-9d69-2d7365737369,rev?*%
%TF.SameCoordinates,Original*%
%TF.FileFunction,Legend,Top*%
%TF.FilePolarity,Positive*%
%FSLAX46Y46*%
G04 Gerber Fmt 4.6, Leading zero omitted, Abs format (unit mm)*
G04 Created by KiCad (PCBNEW 9.0.7) date 2026-03-12 09:49:18*
%MOMM*%
%LPD*%
G01*
G04 APERTURE LIST*
%ADD10C,0.300000*%
%ADD11C,0.150000*%
%ADD12C,0.120000*%
%ADD13C,0.100000*%
%ADD14C,0.152400*%
G04 APERTURE END LIST*
D10*
X88040225Y-147672257D02*
X87897368Y-147600828D01*
X87897368Y-147600828D02*
X87683082Y-147600828D01*
X87683082Y-147600828D02*
X87468796Y-147672257D01*
X87468796Y-147672257D02*
X87325939Y-147815114D01*
X87325939Y-147815114D02*
X87254510Y-147957971D01*
X87254510Y-147957971D02*
X87183082Y-148243685D01*
X87183082Y-148243685D02*
X87183082Y-148457971D01*
X87183082Y-148457971D02*
X87254510Y-148743685D01*
X87254510Y-148743685D02*
X87325939Y-148886542D01*
X87325939Y-148886542D02*
X87468796Y-149029400D01*
X87468796Y-149029400D02*
X87683082Y-149100828D01*
X87683082Y-149100828D02*
X87825939Y-149100828D01*
X87825939Y-149100828D02*
X88040225Y-149029400D01*
X88040225Y-149029400D02*
X88111653Y-148957971D01*
X88111653Y-148957971D02*
X88111653Y-148457971D01*
X88111653Y-148457971D02*
X87825939Y-148457971D01*
X89397368Y-148100828D02*
X89397368Y-149100828D01*
X88754510Y-148100828D02*
X88754510Y-148886542D01*
X88754510Y-148886542D02*
X88825939Y-149029400D01*
X88825939Y-149029400D02*
X88968796Y-149100828D01*
X88968796Y-149100828D02*
X89183082Y-149100828D01*
X89183082Y-149100828D02*
X89325939Y-149029400D01*
X89325939Y-149029400D02*
X89397368Y-148957971D01*
X90111653Y-149100828D02*
X90111653Y-148100828D01*
X90111653Y-147600828D02*
X90040225Y-147672257D01*
X90040225Y-147672257D02*
X90111653Y-147743685D01*
X90111653Y-147743685D02*
X90183082Y-147672257D01*
X90183082Y-147672257D02*
X90111653Y-147600828D01*
X90111653Y-147600828D02*
X90111653Y-147743685D01*
X91040225Y-149100828D02*
X90897368Y-149029400D01*
X90897368Y-149029400D02*
X90825939Y-148886542D01*
X90825939Y-148886542D02*
X90825939Y-147600828D01*
X91825939Y-149100828D02*
X91683082Y-149029400D01*
X91683082Y-149029400D02*
X91611653Y-148886542D01*
X91611653Y-148886542D02*
X91611653Y-147600828D01*
X93040225Y-149100828D02*
X93040225Y-148315114D01*
X93040225Y-148315114D02*
X92968796Y-148172257D01*
X92968796Y-148172257D02*
X92825939Y-148100828D01*
X92825939Y-148100828D02*
X92540225Y-148100828D01*
X92540225Y-148100828D02*
X92397367Y-148172257D01*
X93040225Y-149029400D02*
X92897367Y-149100828D01*
X92897367Y-149100828D02*
X92540225Y-149100828D01*
X92540225Y-149100828D02*
X92397367Y-149029400D01*
X92397367Y-149029400D02*
X92325939Y-148886542D01*
X92325939Y-148886542D02*
X92325939Y-148743685D01*
X92325939Y-148743685D02*
X92397367Y-148600828D01*
X92397367Y-148600828D02*
X92540225Y-148529400D01*
X92540225Y-148529400D02*
X92897367Y-148529400D01*
X92897367Y-148529400D02*
X93040225Y-148457971D01*
X94397368Y-148100828D02*
X94397368Y-149100828D01*
X93754510Y-148100828D02*
X93754510Y-148886542D01*
X93754510Y-148886542D02*
X93825939Y-149029400D01*
X93825939Y-149029400D02*
X93968796Y-149100828D01*
X93968796Y-149100828D02*
X94183082Y-149100828D01*
X94183082Y-149100828D02*
X94325939Y-149029400D01*
X94325939Y-149029400D02*
X94397368Y-148957971D01*
X95111653Y-149100828D02*
X95111653Y-148100828D01*
X95111653Y-148243685D02*
X95183082Y-148172257D01*
X95183082Y-148172257D02*
X95325939Y-148100828D01*
X95325939Y-148100828D02*
X95540225Y-148100828D01*
X95540225Y-148100828D02*
X95683082Y-148172257D01*
X95683082Y-148172257D02*
X95754511Y-148315114D01*
X95754511Y-148315114D02*
X95754511Y-149100828D01*
X95754511Y-148315114D02*
X95825939Y-148172257D01*
X95825939Y-148172257D02*
X95968796Y-148100828D01*
X95968796Y-148100828D02*
X96183082Y-148100828D01*
X96183082Y-148100828D02*
X96325939Y-148172257D01*
X96325939Y-148172257D02*
X96397368Y-148315114D01*
X96397368Y-148315114D02*
X96397368Y-149100828D01*
X97683082Y-149029400D02*
X97540225Y-149100828D01*
X97540225Y-149100828D02*
X97254511Y-149100828D01*
X97254511Y-149100828D02*
X97111653Y-149029400D01*
X97111653Y-149029400D02*
X97040225Y-148886542D01*
X97040225Y-148886542D02*
X97040225Y-148315114D01*
X97040225Y-148315114D02*
X97111653Y-148172257D01*
X97111653Y-148172257D02*
X97254511Y-148100828D01*
X97254511Y-148100828D02*
X97540225Y-148100828D01*
X97540225Y-148100828D02*
X97683082Y-148172257D01*
X97683082Y-148172257D02*
X97754511Y-148315114D01*
X97754511Y-148315114D02*
X97754511Y-148457971D01*
X97754511Y-148457971D02*
X97040225Y-148600828D01*
X100397367Y-149100828D02*
X99897367Y-148386542D01*
X99540224Y-149100828D02*
X99540224Y-147600828D01*
X99540224Y-147600828D02*
X100111653Y-147600828D01*
X100111653Y-147600828D02*
X100254510Y-147672257D01*
X100254510Y-147672257D02*
X100325939Y-147743685D01*
X100325939Y-147743685D02*
X100397367Y-147886542D01*
X100397367Y-147886542D02*
X100397367Y-148100828D01*
X100397367Y-148100828D02*
X100325939Y-148243685D01*
X100325939Y-148243685D02*
X100254510Y-148315114D01*
X100254510Y-148315114D02*
X100111653Y-148386542D01*
X100111653Y-148386542D02*
X99540224Y-148386542D01*
X101040224Y-148315114D02*
X101540224Y-148315114D01*
X101754510Y-149100828D02*
X101040224Y-149100828D01*
X101040224Y-149100828D02*
X101040224Y-147600828D01*
X101040224Y-147600828D02*
X101754510Y-147600828D01*
X102183082Y-147600828D02*
X103040225Y-147600828D01*
X102611653Y-149100828D02*
X102611653Y-147600828D01*
X103540224Y-149100828D02*
X103540224Y-147600828D01*
X104254510Y-148315114D02*
X104754510Y-148315114D01*
X104968796Y-149100828D02*
X104254510Y-149100828D01*
X104254510Y-149100828D02*
X104254510Y-147600828D01*
X104254510Y-147600828D02*
X104968796Y-147600828D01*
X106468796Y-149100828D02*
X105968796Y-148386542D01*
X105611653Y-149100828D02*
X105611653Y-147600828D01*
X105611653Y-147600828D02*
X106183082Y-147600828D01*
X106183082Y-147600828D02*
X106325939Y-147672257D01*
X106325939Y-147672257D02*
X106397368Y-147743685D01*
X106397368Y-147743685D02*
X106468796Y-147886542D01*
X106468796Y-147886542D02*
X106468796Y-148100828D01*
X106468796Y-148100828D02*
X106397368Y-148243685D01*
X106397368Y-148243685D02*
X106325939Y-148315114D01*
X106325939Y-148315114D02*
X106183082Y-148386542D01*
X106183082Y-148386542D02*
X105611653Y-148386542D01*
X108040225Y-147600828D02*
X108540225Y-149100828D01*
X108540225Y-149100828D02*
X109040225Y-147600828D01*
X109540224Y-148957971D02*
X109611653Y-149029400D01*
X109611653Y-149029400D02*
X109540224Y-149100828D01*
X109540224Y-149100828D02*
X109468796Y-149029400D01*
X109468796Y-149029400D02*
X109540224Y-148957971D01*
X109540224Y-148957971D02*
X109540224Y-149100828D01*
X111040225Y-149100828D02*
X110183082Y-149100828D01*
X110611653Y-149100828D02*
X110611653Y-147600828D01*
X110611653Y-147600828D02*
X110468796Y-147815114D01*
X110468796Y-147815114D02*
X110325939Y-147957971D01*
X110325939Y-147957971D02*
X110183082Y-148029400D01*
X112825938Y-148529400D02*
X113968796Y-148529400D01*
X116611653Y-149100828D02*
X115754510Y-149100828D01*
X116183081Y-149100828D02*
X116183081Y-147600828D01*
X116183081Y-147600828D02*
X116040224Y-147815114D01*
X116040224Y-147815114D02*
X115897367Y-147957971D01*
X115897367Y-147957971D02*
X115754510Y-148029400D01*
X117183081Y-147743685D02*
X117254509Y-147672257D01*
X117254509Y-147672257D02*
X117397367Y-147600828D01*
X117397367Y-147600828D02*
X117754509Y-147600828D01*
X117754509Y-147600828D02*
X117897367Y-147672257D01*
X117897367Y-147672257D02*
X117968795Y-147743685D01*
X117968795Y-147743685D02*
X118040224Y-147886542D01*
X118040224Y-147886542D02*
X118040224Y-148029400D01*
X118040224Y-148029400D02*
X117968795Y-148243685D01*
X117968795Y-148243685D02*
X117111652Y-149100828D01*
X117111652Y-149100828D02*
X118040224Y-149100828D01*
X119754509Y-147529400D02*
X118468795Y-149457971D01*
X120540224Y-147600828D02*
X120683081Y-147600828D01*
X120683081Y-147600828D02*
X120825938Y-147672257D01*
X120825938Y-147672257D02*
X120897367Y-147743685D01*
X120897367Y-147743685D02*
X120968795Y-147886542D01*
X120968795Y-147886542D02*
X121040224Y-148172257D01*
X121040224Y-148172257D02*
X121040224Y-148529400D01*
X121040224Y-148529400D02*
X120968795Y-148815114D01*
X120968795Y-148815114D02*
X120897367Y-148957971D01*
X120897367Y-148957971D02*
X120825938Y-149029400D01*
X120825938Y-149029400D02*
X120683081Y-149100828D01*
X120683081Y-149100828D02*
X120540224Y-149100828D01*
X120540224Y-149100828D02*
X120397367Y-149029400D01*
X120397367Y-149029400D02*
X120325938Y-148957971D01*
X120325938Y-148957971D02*
X120254509Y-148815114D01*
X120254509Y-148815114D02*
X120183081Y-148529400D01*
X120183081Y-148529400D02*
X120183081Y-148172257D01*
X120183081Y-148172257D02*
X120254509Y-147886542D01*
X120254509Y-147886542D02*
X120325938Y-147743685D01*
X120325938Y-147743685D02*
X120397367Y-147672257D01*
X120397367Y-147672257D02*
X120540224Y-147600828D01*
X121540223Y-147600828D02*
X122468795Y-147600828D01*
X122468795Y-147600828D02*
X121968795Y-148172257D01*
X121968795Y-148172257D02*
X122183080Y-148172257D01*
X122183080Y-148172257D02*
X122325938Y-148243685D01*
X122325938Y-148243685D02*
X122397366Y-148315114D01*
X122397366Y-148315114D02*
X122468795Y-148457971D01*
X122468795Y-148457971D02*
X122468795Y-148815114D01*
X122468795Y-148815114D02*
X122397366Y-148957971D01*
X122397366Y-148957971D02*
X122325938Y-149029400D01*
X122325938Y-149029400D02*
X122183080Y-149100828D01*
X122183080Y-149100828D02*
X121754509Y-149100828D01*
X121754509Y-149100828D02*
X121611652Y-149029400D01*
X121611652Y-149029400D02*
X121540223Y-148957971D01*
X124183080Y-147529400D02*
X122897366Y-149457971D01*
X124611652Y-147743685D02*
X124683080Y-147672257D01*
X124683080Y-147672257D02*
X124825938Y-147600828D01*
X124825938Y-147600828D02*
X125183080Y-147600828D01*
X125183080Y-147600828D02*
X125325938Y-147672257D01*
X125325938Y-147672257D02*
X125397366Y-147743685D01*
X125397366Y-147743685D02*
X125468795Y-147886542D01*
X125468795Y-147886542D02*
X125468795Y-148029400D01*
X125468795Y-148029400D02*
X125397366Y-148243685D01*
X125397366Y-148243685D02*
X124540223Y-149100828D01*
X124540223Y-149100828D02*
X125468795Y-149100828D01*
X126397366Y-147600828D02*
X126540223Y-147600828D01*
X126540223Y-147600828D02*
X126683080Y-147672257D01*
X126683080Y-147672257D02*
X126754509Y-147743685D01*
X126754509Y-147743685D02*
X126825937Y-147886542D01*
X126825937Y-147886542D02*
X126897366Y-148172257D01*
X126897366Y-148172257D02*
X126897366Y-148529400D01*
X126897366Y-148529400D02*
X126825937Y-148815114D01*
X126825937Y-148815114D02*
X126754509Y-148957971D01*
X126754509Y-148957971D02*
X126683080Y-149029400D01*
X126683080Y-149029400D02*
X126540223Y-149100828D01*
X126540223Y-149100828D02*
X126397366Y-149100828D01*
X126397366Y-149100828D02*
X126254509Y-149029400D01*
X126254509Y-149029400D02*
X126183080Y-148957971D01*
X126183080Y-148957971D02*
X126111651Y-148815114D01*
X126111651Y-148815114D02*
X126040223Y-148529400D01*
X126040223Y-148529400D02*
X126040223Y-148172257D01*
X126040223Y-148172257D02*
X126111651Y-147886542D01*
X126111651Y-147886542D02*
X126183080Y-147743685D01*
X126183080Y-147743685D02*
X126254509Y-147672257D01*
X126254509Y-147672257D02*
X126397366Y-147600828D01*
X127468794Y-147743685D02*
X127540222Y-147672257D01*
X127540222Y-147672257D02*
X127683080Y-147600828D01*
X127683080Y-147600828D02*
X128040222Y-147600828D01*
X128040222Y-147600828D02*
X128183080Y-147672257D01*
X128183080Y-147672257D02*
X128254508Y-147743685D01*
X128254508Y-147743685D02*
X128325937Y-147886542D01*
X128325937Y-147886542D02*
X128325937Y-148029400D01*
X128325937Y-148029400D02*
X128254508Y-148243685D01*
X128254508Y-148243685D02*
X127397365Y-149100828D01*
X127397365Y-149100828D02*
X128325937Y-149100828D01*
X129611651Y-147600828D02*
X129325936Y-147600828D01*
X129325936Y-147600828D02*
X129183079Y-147672257D01*
X129183079Y-147672257D02*
X129111651Y-147743685D01*
X129111651Y-147743685D02*
X128968793Y-147957971D01*
X128968793Y-147957971D02*
X128897365Y-148243685D01*
X128897365Y-148243685D02*
X128897365Y-148815114D01*
X128897365Y-148815114D02*
X128968793Y-148957971D01*
X128968793Y-148957971D02*
X129040222Y-149029400D01*
X129040222Y-149029400D02*
X129183079Y-149100828D01*
X129183079Y-149100828D02*
X129468793Y-149100828D01*
X129468793Y-149100828D02*
X129611651Y-149029400D01*
X129611651Y-149029400D02*
X129683079Y-148957971D01*
X129683079Y-148957971D02*
X129754508Y-148815114D01*
X129754508Y-148815114D02*
X129754508Y-148457971D01*
X129754508Y-148457971D02*
X129683079Y-148315114D01*
X129683079Y-148315114D02*
X129611651Y-148243685D01*
X129611651Y-148243685D02*
X129468793Y-148172257D01*
X129468793Y-148172257D02*
X129183079Y-148172257D01*
X129183079Y-148172257D02*
X129040222Y-148243685D01*
X129040222Y-148243685D02*
X128968793Y-148315114D01*
X128968793Y-148315114D02*
X128897365Y-148457971D01*
D11*
X160433333Y-96284819D02*
X160100000Y-95808628D01*
X159861905Y-96284819D02*
X159861905Y-95284819D01*
X159861905Y-95284819D02*
X160242857Y-95284819D01*
X160242857Y-95284819D02*
X160338095Y-95332438D01*
X160338095Y-95332438D02*
X160385714Y-95380057D01*
X160385714Y-95380057D02*
X160433333Y-95475295D01*
X160433333Y-95475295D02*
X160433333Y-95618152D01*
X160433333Y-95618152D02*
X160385714Y-95713390D01*
X160385714Y-95713390D02*
X160338095Y-95761009D01*
X160338095Y-95761009D02*
X160242857Y-95808628D01*
X160242857Y-95808628D02*
X159861905Y-95808628D01*
X161290476Y-95618152D02*
X161290476Y-96284819D01*
X161052381Y-95237200D02*
X160814286Y-95951485D01*
X160814286Y-95951485D02*
X161433333Y-95951485D01*
X190766666Y-139854819D02*
X190433333Y-139378628D01*
X190195238Y-139854819D02*
X190195238Y-138854819D01*
X190195238Y-138854819D02*
X190576190Y-138854819D01*
X190576190Y-138854819D02*
X190671428Y-138902438D01*
X190671428Y-138902438D02*
X190719047Y-138950057D01*
X190719047Y-138950057D02*
X190766666Y-139045295D01*
X190766666Y-139045295D02*
X190766666Y-139188152D01*
X190766666Y-139188152D02*
X190719047Y-139283390D01*
X190719047Y-139283390D02*
X190671428Y-139331009D01*
X190671428Y-139331009D02*
X190576190Y-139378628D01*
X190576190Y-139378628D02*
X190195238Y-139378628D01*
X191195238Y-139331009D02*
X191528571Y-139331009D01*
X191671428Y-139854819D02*
X191195238Y-139854819D01*
X191195238Y-139854819D02*
X191195238Y-138854819D01*
X191195238Y-138854819D02*
X191671428Y-138854819D01*
X192433333Y-139331009D02*
X192100000Y-139331009D01*
X192100000Y-139854819D02*
X192100000Y-138854819D01*
X192100000Y-138854819D02*
X192576190Y-138854819D01*
X193100000Y-138854819D02*
X193100000Y-139092914D01*
X192861905Y-138997676D02*
X193100000Y-139092914D01*
X193100000Y-139092914D02*
X193338095Y-138997676D01*
X192957143Y-139283390D02*
X193100000Y-139092914D01*
X193100000Y-139092914D02*
X193242857Y-139283390D01*
X193861905Y-138854819D02*
X193861905Y-139092914D01*
X193623810Y-138997676D02*
X193861905Y-139092914D01*
X193861905Y-139092914D02*
X194100000Y-138997676D01*
X193719048Y-139283390D02*
X193861905Y-139092914D01*
X193861905Y-139092914D02*
X194004762Y-139283390D01*
X178933333Y-141184819D02*
X178600000Y-140708628D01*
X178361905Y-141184819D02*
X178361905Y-140184819D01*
X178361905Y-140184819D02*
X178742857Y-140184819D01*
X178742857Y-140184819D02*
X178838095Y-140232438D01*
X178838095Y-140232438D02*
X178885714Y-140280057D01*
X178885714Y-140280057D02*
X178933333Y-140375295D01*
X178933333Y-140375295D02*
X178933333Y-140518152D01*
X178933333Y-140518152D02*
X178885714Y-140613390D01*
X178885714Y-140613390D02*
X178838095Y-140661009D01*
X178838095Y-140661009D02*
X178742857Y-140708628D01*
X178742857Y-140708628D02*
X178361905Y-140708628D01*
X179314286Y-140280057D02*
X179361905Y-140232438D01*
X179361905Y-140232438D02*
X179457143Y-140184819D01*
X179457143Y-140184819D02*
X179695238Y-140184819D01*
X179695238Y-140184819D02*
X179790476Y-140232438D01*
X179790476Y-140232438D02*
X179838095Y-140280057D01*
X179838095Y-140280057D02*
X179885714Y-140375295D01*
X179885714Y-140375295D02*
X179885714Y-140470533D01*
X179885714Y-140470533D02*
X179838095Y-140613390D01*
X179838095Y-140613390D02*
X179266667Y-141184819D01*
X179266667Y-141184819D02*
X179885714Y-141184819D01*
X178823333Y-129484819D02*
X178490000Y-129008628D01*
X178251905Y-129484819D02*
X178251905Y-128484819D01*
X178251905Y-128484819D02*
X178632857Y-128484819D01*
X178632857Y-128484819D02*
X178728095Y-128532438D01*
X178728095Y-128532438D02*
X178775714Y-128580057D01*
X178775714Y-128580057D02*
X178823333Y-128675295D01*
X178823333Y-128675295D02*
X178823333Y-128818152D01*
X178823333Y-128818152D02*
X178775714Y-128913390D01*
X178775714Y-128913390D02*
X178728095Y-128961009D01*
X178728095Y-128961009D02*
X178632857Y-129008628D01*
X178632857Y-129008628D02*
X178251905Y-129008628D01*
X179775714Y-129484819D02*
X179204286Y-129484819D01*
X179490000Y-129484819D02*
X179490000Y-128484819D01*
X179490000Y-128484819D02*
X179394762Y-128627676D01*
X179394762Y-128627676D02*
X179299524Y-128722914D01*
X179299524Y-128722914D02*
X179204286Y-128770533D01*
X140942143Y-60679819D02*
X140942143Y-59679819D01*
X140942143Y-59679819D02*
X141323095Y-59679819D01*
X141323095Y-59679819D02*
X141418333Y-59727438D01*
X141418333Y-59727438D02*
X141465952Y-59775057D01*
X141465952Y-59775057D02*
X141513571Y-59870295D01*
X141513571Y-59870295D02*
X141513571Y-60013152D01*
X141513571Y-60013152D02*
X141465952Y-60108390D01*
X141465952Y-60108390D02*
X141418333Y-60156009D01*
X141418333Y-60156009D02*
X141323095Y-60203628D01*
X141323095Y-60203628D02*
X140942143Y-60203628D01*
X142132619Y-59679819D02*
X142323095Y-59679819D01*
X142323095Y-59679819D02*
X142418333Y-59727438D01*
X142418333Y-59727438D02*
X142513571Y-59822676D01*
X142513571Y-59822676D02*
X142561190Y-60013152D01*
X142561190Y-60013152D02*
X142561190Y-60346485D01*
X142561190Y-60346485D02*
X142513571Y-60536961D01*
X142513571Y-60536961D02*
X142418333Y-60632200D01*
X142418333Y-60632200D02*
X142323095Y-60679819D01*
X142323095Y-60679819D02*
X142132619Y-60679819D01*
X142132619Y-60679819D02*
X142037381Y-60632200D01*
X142037381Y-60632200D02*
X141942143Y-60536961D01*
X141942143Y-60536961D02*
X141894524Y-60346485D01*
X141894524Y-60346485D02*
X141894524Y-60013152D01*
X141894524Y-60013152D02*
X141942143Y-59822676D01*
X141942143Y-59822676D02*
X142037381Y-59727438D01*
X142037381Y-59727438D02*
X142132619Y-59679819D01*
X142846905Y-59679819D02*
X143418333Y-59679819D01*
X143132619Y-60679819D02*
X143132619Y-59679819D01*
X143704048Y-59775057D02*
X143751667Y-59727438D01*
X143751667Y-59727438D02*
X143846905Y-59679819D01*
X143846905Y-59679819D02*
X144085000Y-59679819D01*
X144085000Y-59679819D02*
X144180238Y-59727438D01*
X144180238Y-59727438D02*
X144227857Y-59775057D01*
X144227857Y-59775057D02*
X144275476Y-59870295D01*
X144275476Y-59870295D02*
X144275476Y-59965533D01*
X144275476Y-59965533D02*
X144227857Y-60108390D01*
X144227857Y-60108390D02*
X143656429Y-60679819D01*
X143656429Y-60679819D02*
X144275476Y-60679819D01*
X121842143Y-61179819D02*
X121842143Y-60179819D01*
X121842143Y-60179819D02*
X122223095Y-60179819D01*
X122223095Y-60179819D02*
X122318333Y-60227438D01*
X122318333Y-60227438D02*
X122365952Y-60275057D01*
X122365952Y-60275057D02*
X122413571Y-60370295D01*
X122413571Y-60370295D02*
X122413571Y-60513152D01*
X122413571Y-60513152D02*
X122365952Y-60608390D01*
X122365952Y-60608390D02*
X122318333Y-60656009D01*
X122318333Y-60656009D02*
X122223095Y-60703628D01*
X122223095Y-60703628D02*
X121842143Y-60703628D01*
X123032619Y-60179819D02*
X123223095Y-60179819D01*
X123223095Y-60179819D02*
X123318333Y-60227438D01*
X123318333Y-60227438D02*
X123413571Y-60322676D01*
X123413571Y-60322676D02*
X123461190Y-60513152D01*
X123461190Y-60513152D02*
X123461190Y-60846485D01*
X123461190Y-60846485D02*
X123413571Y-61036961D01*
X123413571Y-61036961D02*
X123318333Y-61132200D01*
X123318333Y-61132200D02*
X123223095Y-61179819D01*
X123223095Y-61179819D02*
X123032619Y-61179819D01*
X123032619Y-61179819D02*
X122937381Y-61132200D01*
X122937381Y-61132200D02*
X122842143Y-61036961D01*
X122842143Y-61036961D02*
X122794524Y-60846485D01*
X122794524Y-60846485D02*
X122794524Y-60513152D01*
X122794524Y-60513152D02*
X122842143Y-60322676D01*
X122842143Y-60322676D02*
X122937381Y-60227438D01*
X122937381Y-60227438D02*
X123032619Y-60179819D01*
X123746905Y-60179819D02*
X124318333Y-60179819D01*
X124032619Y-61179819D02*
X124032619Y-60179819D01*
X124556429Y-60179819D02*
X125175476Y-60179819D01*
X125175476Y-60179819D02*
X124842143Y-60560771D01*
X124842143Y-60560771D02*
X124985000Y-60560771D01*
X124985000Y-60560771D02*
X125080238Y-60608390D01*
X125080238Y-60608390D02*
X125127857Y-60656009D01*
X125127857Y-60656009D02*
X125175476Y-60751247D01*
X125175476Y-60751247D02*
X125175476Y-60989342D01*
X125175476Y-60989342D02*
X125127857Y-61084580D01*
X125127857Y-61084580D02*
X125080238Y-61132200D01*
X125080238Y-61132200D02*
X124985000Y-61179819D01*
X124985000Y-61179819D02*
X124699286Y-61179819D01*
X124699286Y-61179819D02*
X124604048Y-61132200D01*
X124604048Y-61132200D02*
X124556429Y-61084580D01*
X160091905Y-119174819D02*
X160091905Y-118174819D01*
X160091905Y-118174819D02*
X160330000Y-118174819D01*
X160330000Y-118174819D02*
X160472857Y-118222438D01*
X160472857Y-118222438D02*
X160568095Y-118317676D01*
X160568095Y-118317676D02*
X160615714Y-118412914D01*
X160615714Y-118412914D02*
X160663333Y-118603390D01*
X160663333Y-118603390D02*
X160663333Y-118746247D01*
X160663333Y-118746247D02*
X160615714Y-118936723D01*
X160615714Y-118936723D02*
X160568095Y-119031961D01*
X160568095Y-119031961D02*
X160472857Y-119127200D01*
X160472857Y-119127200D02*
X160330000Y-119174819D01*
X160330000Y-119174819D02*
X160091905Y-119174819D01*
X160996667Y-118174819D02*
X161615714Y-118174819D01*
X161615714Y-118174819D02*
X161282381Y-118555771D01*
X161282381Y-118555771D02*
X161425238Y-118555771D01*
X161425238Y-118555771D02*
X161520476Y-118603390D01*
X161520476Y-118603390D02*
X161568095Y-118651009D01*
X161568095Y-118651009D02*
X161615714Y-118746247D01*
X161615714Y-118746247D02*
X161615714Y-118984342D01*
X161615714Y-118984342D02*
X161568095Y-119079580D01*
X161568095Y-119079580D02*
X161520476Y-119127200D01*
X161520476Y-119127200D02*
X161425238Y-119174819D01*
X161425238Y-119174819D02*
X161139524Y-119174819D01*
X161139524Y-119174819D02*
X161044286Y-119127200D01*
X161044286Y-119127200D02*
X160996667Y-119079580D01*
X75866666Y-139654819D02*
X75533333Y-139178628D01*
X75295238Y-139654819D02*
X75295238Y-138654819D01*
X75295238Y-138654819D02*
X75676190Y-138654819D01*
X75676190Y-138654819D02*
X75771428Y-138702438D01*
X75771428Y-138702438D02*
X75819047Y-138750057D01*
X75819047Y-138750057D02*
X75866666Y-138845295D01*
X75866666Y-138845295D02*
X75866666Y-138988152D01*
X75866666Y-138988152D02*
X75819047Y-139083390D01*
X75819047Y-139083390D02*
X75771428Y-139131009D01*
X75771428Y-139131009D02*
X75676190Y-139178628D01*
X75676190Y-139178628D02*
X75295238Y-139178628D01*
X76295238Y-139131009D02*
X76628571Y-139131009D01*
X76771428Y-139654819D02*
X76295238Y-139654819D01*
X76295238Y-139654819D02*
X76295238Y-138654819D01*
X76295238Y-138654819D02*
X76771428Y-138654819D01*
X77533333Y-139131009D02*
X77200000Y-139131009D01*
X77200000Y-139654819D02*
X77200000Y-138654819D01*
X77200000Y-138654819D02*
X77676190Y-138654819D01*
X78200000Y-138654819D02*
X78200000Y-138892914D01*
X77961905Y-138797676D02*
X78200000Y-138892914D01*
X78200000Y-138892914D02*
X78438095Y-138797676D01*
X78057143Y-139083390D02*
X78200000Y-138892914D01*
X78200000Y-138892914D02*
X78342857Y-139083390D01*
X78961905Y-138654819D02*
X78961905Y-138892914D01*
X78723810Y-138797676D02*
X78961905Y-138892914D01*
X78961905Y-138892914D02*
X79200000Y-138797676D01*
X78819048Y-139083390D02*
X78961905Y-138892914D01*
X78961905Y-138892914D02*
X79104762Y-139083390D01*
X105831666Y-101384819D02*
X105831666Y-102099104D01*
X105831666Y-102099104D02*
X105784047Y-102241961D01*
X105784047Y-102241961D02*
X105688809Y-102337200D01*
X105688809Y-102337200D02*
X105545952Y-102384819D01*
X105545952Y-102384819D02*
X105450714Y-102384819D01*
X106260238Y-101480057D02*
X106307857Y-101432438D01*
X106307857Y-101432438D02*
X106403095Y-101384819D01*
X106403095Y-101384819D02*
X106641190Y-101384819D01*
X106641190Y-101384819D02*
X106736428Y-101432438D01*
X106736428Y-101432438D02*
X106784047Y-101480057D01*
X106784047Y-101480057D02*
X106831666Y-101575295D01*
X106831666Y-101575295D02*
X106831666Y-101670533D01*
X106831666Y-101670533D02*
X106784047Y-101813390D01*
X106784047Y-101813390D02*
X106212619Y-102384819D01*
X106212619Y-102384819D02*
X106831666Y-102384819D01*
X100742143Y-61479819D02*
X100742143Y-60479819D01*
X100742143Y-60479819D02*
X101123095Y-60479819D01*
X101123095Y-60479819D02*
X101218333Y-60527438D01*
X101218333Y-60527438D02*
X101265952Y-60575057D01*
X101265952Y-60575057D02*
X101313571Y-60670295D01*
X101313571Y-60670295D02*
X101313571Y-60813152D01*
X101313571Y-60813152D02*
X101265952Y-60908390D01*
X101265952Y-60908390D02*
X101218333Y-60956009D01*
X101218333Y-60956009D02*
X101123095Y-61003628D01*
X101123095Y-61003628D02*
X100742143Y-61003628D01*
X101932619Y-60479819D02*
X102123095Y-60479819D01*
X102123095Y-60479819D02*
X102218333Y-60527438D01*
X102218333Y-60527438D02*
X102313571Y-60622676D01*
X102313571Y-60622676D02*
X102361190Y-60813152D01*
X102361190Y-60813152D02*
X102361190Y-61146485D01*
X102361190Y-61146485D02*
X102313571Y-61336961D01*
X102313571Y-61336961D02*
X102218333Y-61432200D01*
X102218333Y-61432200D02*
X102123095Y-61479819D01*
X102123095Y-61479819D02*
X101932619Y-61479819D01*
X101932619Y-61479819D02*
X101837381Y-61432200D01*
X101837381Y-61432200D02*
X101742143Y-61336961D01*
X101742143Y-61336961D02*
X101694524Y-61146485D01*
X101694524Y-61146485D02*
X101694524Y-60813152D01*
X101694524Y-60813152D02*
X101742143Y-60622676D01*
X101742143Y-60622676D02*
X101837381Y-60527438D01*
X101837381Y-60527438D02*
X101932619Y-60479819D01*
X102646905Y-60479819D02*
X103218333Y-60479819D01*
X102932619Y-61479819D02*
X102932619Y-60479819D01*
X104075476Y-61479819D02*
X103504048Y-61479819D01*
X103789762Y-61479819D02*
X103789762Y-60479819D01*
X103789762Y-60479819D02*
X103694524Y-60622676D01*
X103694524Y-60622676D02*
X103599286Y-60717914D01*
X103599286Y-60717914D02*
X103504048Y-60765533D01*
X80584819Y-94283333D02*
X81299104Y-94283333D01*
X81299104Y-94283333D02*
X81441961Y-94330952D01*
X81441961Y-94330952D02*
X81537200Y-94426190D01*
X81537200Y-94426190D02*
X81584819Y-94569047D01*
X81584819Y-94569047D02*
X81584819Y-94664285D01*
X81584819Y-93283333D02*
X81584819Y-93854761D01*
X81584819Y-93569047D02*
X80584819Y-93569047D01*
X80584819Y-93569047D02*
X80727676Y-93664285D01*
X80727676Y-93664285D02*
X80822914Y-93759523D01*
X80822914Y-93759523D02*
X80870533Y-93854761D01*
X160291905Y-142574819D02*
X160291905Y-141574819D01*
X160291905Y-141574819D02*
X160530000Y-141574819D01*
X160530000Y-141574819D02*
X160672857Y-141622438D01*
X160672857Y-141622438D02*
X160768095Y-141717676D01*
X160768095Y-141717676D02*
X160815714Y-141812914D01*
X160815714Y-141812914D02*
X160863333Y-142003390D01*
X160863333Y-142003390D02*
X160863333Y-142146247D01*
X160863333Y-142146247D02*
X160815714Y-142336723D01*
X160815714Y-142336723D02*
X160768095Y-142431961D01*
X160768095Y-142431961D02*
X160672857Y-142527200D01*
X160672857Y-142527200D02*
X160530000Y-142574819D01*
X160530000Y-142574819D02*
X160291905Y-142574819D01*
X161244286Y-141670057D02*
X161291905Y-141622438D01*
X161291905Y-141622438D02*
X161387143Y-141574819D01*
X161387143Y-141574819D02*
X161625238Y-141574819D01*
X161625238Y-141574819D02*
X161720476Y-141622438D01*
X161720476Y-141622438D02*
X161768095Y-141670057D01*
X161768095Y-141670057D02*
X161815714Y-141765295D01*
X161815714Y-141765295D02*
X161815714Y-141860533D01*
X161815714Y-141860533D02*
X161768095Y-142003390D01*
X161768095Y-142003390D02*
X161196667Y-142574819D01*
X161196667Y-142574819D02*
X161815714Y-142574819D01*
X190466666Y-59454819D02*
X190133333Y-58978628D01*
X189895238Y-59454819D02*
X189895238Y-58454819D01*
X189895238Y-58454819D02*
X190276190Y-58454819D01*
X190276190Y-58454819D02*
X190371428Y-58502438D01*
X190371428Y-58502438D02*
X190419047Y-58550057D01*
X190419047Y-58550057D02*
X190466666Y-58645295D01*
X190466666Y-58645295D02*
X190466666Y-58788152D01*
X190466666Y-58788152D02*
X190419047Y-58883390D01*
X190419047Y-58883390D02*
X190371428Y-58931009D01*
X190371428Y-58931009D02*
X190276190Y-58978628D01*
X190276190Y-58978628D02*
X189895238Y-58978628D01*
X190895238Y-58931009D02*
X191228571Y-58931009D01*
X191371428Y-59454819D02*
X190895238Y-59454819D01*
X190895238Y-59454819D02*
X190895238Y-58454819D01*
X190895238Y-58454819D02*
X191371428Y-58454819D01*
X192133333Y-58931009D02*
X191800000Y-58931009D01*
X191800000Y-59454819D02*
X191800000Y-58454819D01*
X191800000Y-58454819D02*
X192276190Y-58454819D01*
X192800000Y-58454819D02*
X192800000Y-58692914D01*
X192561905Y-58597676D02*
X192800000Y-58692914D01*
X192800000Y-58692914D02*
X193038095Y-58597676D01*
X192657143Y-58883390D02*
X192800000Y-58692914D01*
X192800000Y-58692914D02*
X192942857Y-58883390D01*
X193561905Y-58454819D02*
X193561905Y-58692914D01*
X193323810Y-58597676D02*
X193561905Y-58692914D01*
X193561905Y-58692914D02*
X193800000Y-58597676D01*
X193419048Y-58883390D02*
X193561905Y-58692914D01*
X193561905Y-58692914D02*
X193704762Y-58883390D01*
X178466667Y-106407200D02*
X178609524Y-106454819D01*
X178609524Y-106454819D02*
X178847619Y-106454819D01*
X178847619Y-106454819D02*
X178942857Y-106407200D01*
X178942857Y-106407200D02*
X178990476Y-106359580D01*
X178990476Y-106359580D02*
X179038095Y-106264342D01*
X179038095Y-106264342D02*
X179038095Y-106169104D01*
X179038095Y-106169104D02*
X178990476Y-106073866D01*
X178990476Y-106073866D02*
X178942857Y-106026247D01*
X178942857Y-106026247D02*
X178847619Y-105978628D01*
X178847619Y-105978628D02*
X178657143Y-105931009D01*
X178657143Y-105931009D02*
X178561905Y-105883390D01*
X178561905Y-105883390D02*
X178514286Y-105835771D01*
X178514286Y-105835771D02*
X178466667Y-105740533D01*
X178466667Y-105740533D02*
X178466667Y-105645295D01*
X178466667Y-105645295D02*
X178514286Y-105550057D01*
X178514286Y-105550057D02*
X178561905Y-105502438D01*
X178561905Y-105502438D02*
X178657143Y-105454819D01*
X178657143Y-105454819D02*
X178895238Y-105454819D01*
X178895238Y-105454819D02*
X179038095Y-105502438D01*
X179371429Y-105454819D02*
X179609524Y-106454819D01*
X179609524Y-106454819D02*
X179800000Y-105740533D01*
X179800000Y-105740533D02*
X179990476Y-106454819D01*
X179990476Y-106454819D02*
X180228572Y-105454819D01*
X181133333Y-106454819D02*
X180561905Y-106454819D01*
X180847619Y-106454819D02*
X180847619Y-105454819D01*
X180847619Y-105454819D02*
X180752381Y-105597676D01*
X180752381Y-105597676D02*
X180657143Y-105692914D01*
X180657143Y-105692914D02*
X180561905Y-105740533D01*
X175207200Y-102547618D02*
X175254819Y-102404761D01*
X175254819Y-102404761D02*
X175254819Y-102166666D01*
X175254819Y-102166666D02*
X175207200Y-102071428D01*
X175207200Y-102071428D02*
X175159580Y-102023809D01*
X175159580Y-102023809D02*
X175064342Y-101976190D01*
X175064342Y-101976190D02*
X174969104Y-101976190D01*
X174969104Y-101976190D02*
X174873866Y-102023809D01*
X174873866Y-102023809D02*
X174826247Y-102071428D01*
X174826247Y-102071428D02*
X174778628Y-102166666D01*
X174778628Y-102166666D02*
X174731009Y-102357142D01*
X174731009Y-102357142D02*
X174683390Y-102452380D01*
X174683390Y-102452380D02*
X174635771Y-102499999D01*
X174635771Y-102499999D02*
X174540533Y-102547618D01*
X174540533Y-102547618D02*
X174445295Y-102547618D01*
X174445295Y-102547618D02*
X174350057Y-102499999D01*
X174350057Y-102499999D02*
X174302438Y-102452380D01*
X174302438Y-102452380D02*
X174254819Y-102357142D01*
X174254819Y-102357142D02*
X174254819Y-102119047D01*
X174254819Y-102119047D02*
X174302438Y-101976190D01*
X174254819Y-101642856D02*
X175254819Y-101404761D01*
X175254819Y-101404761D02*
X174540533Y-101214285D01*
X174540533Y-101214285D02*
X175254819Y-101023809D01*
X175254819Y-101023809D02*
X174254819Y-100785714D01*
X175350057Y-100642857D02*
X175350057Y-99880952D01*
X175254819Y-99642856D02*
X174254819Y-99642856D01*
X174254819Y-99642856D02*
X174254819Y-99261904D01*
X174254819Y-99261904D02*
X174302438Y-99166666D01*
X174302438Y-99166666D02*
X174350057Y-99119047D01*
X174350057Y-99119047D02*
X174445295Y-99071428D01*
X174445295Y-99071428D02*
X174588152Y-99071428D01*
X174588152Y-99071428D02*
X174683390Y-99119047D01*
X174683390Y-99119047D02*
X174731009Y-99166666D01*
X174731009Y-99166666D02*
X174778628Y-99261904D01*
X174778628Y-99261904D02*
X174778628Y-99642856D01*
X174588152Y-98214285D02*
X175254819Y-98214285D01*
X174588152Y-98642856D02*
X175111961Y-98642856D01*
X175111961Y-98642856D02*
X175207200Y-98595237D01*
X175207200Y-98595237D02*
X175254819Y-98499999D01*
X175254819Y-98499999D02*
X175254819Y-98357142D01*
X175254819Y-98357142D02*
X175207200Y-98261904D01*
X175207200Y-98261904D02*
X175159580Y-98214285D01*
X175207200Y-97785713D02*
X175254819Y-97690475D01*
X175254819Y-97690475D02*
X175254819Y-97499999D01*
X175254819Y-97499999D02*
X175207200Y-97404761D01*
X175207200Y-97404761D02*
X175111961Y-97357142D01*
X175111961Y-97357142D02*
X175064342Y-97357142D01*
X175064342Y-97357142D02*
X174969104Y-97404761D01*
X174969104Y-97404761D02*
X174921485Y-97499999D01*
X174921485Y-97499999D02*
X174921485Y-97642856D01*
X174921485Y-97642856D02*
X174873866Y-97738094D01*
X174873866Y-97738094D02*
X174778628Y-97785713D01*
X174778628Y-97785713D02*
X174731009Y-97785713D01*
X174731009Y-97785713D02*
X174635771Y-97738094D01*
X174635771Y-97738094D02*
X174588152Y-97642856D01*
X174588152Y-97642856D02*
X174588152Y-97499999D01*
X174588152Y-97499999D02*
X174635771Y-97404761D01*
X175254819Y-96928570D02*
X174254819Y-96928570D01*
X175254819Y-96499999D02*
X174731009Y-96499999D01*
X174731009Y-96499999D02*
X174635771Y-96547618D01*
X174635771Y-96547618D02*
X174588152Y-96642856D01*
X174588152Y-96642856D02*
X174588152Y-96785713D01*
X174588152Y-96785713D02*
X174635771Y-96880951D01*
X174635771Y-96880951D02*
X174683390Y-96928570D01*
X75766666Y-59554819D02*
X75433333Y-59078628D01*
X75195238Y-59554819D02*
X75195238Y-58554819D01*
X75195238Y-58554819D02*
X75576190Y-58554819D01*
X75576190Y-58554819D02*
X75671428Y-58602438D01*
X75671428Y-58602438D02*
X75719047Y-58650057D01*
X75719047Y-58650057D02*
X75766666Y-58745295D01*
X75766666Y-58745295D02*
X75766666Y-58888152D01*
X75766666Y-58888152D02*
X75719047Y-58983390D01*
X75719047Y-58983390D02*
X75671428Y-59031009D01*
X75671428Y-59031009D02*
X75576190Y-59078628D01*
X75576190Y-59078628D02*
X75195238Y-59078628D01*
X76195238Y-59031009D02*
X76528571Y-59031009D01*
X76671428Y-59554819D02*
X76195238Y-59554819D01*
X76195238Y-59554819D02*
X76195238Y-58554819D01*
X76195238Y-58554819D02*
X76671428Y-58554819D01*
X77433333Y-59031009D02*
X77100000Y-59031009D01*
X77100000Y-59554819D02*
X77100000Y-58554819D01*
X77100000Y-58554819D02*
X77576190Y-58554819D01*
X78100000Y-58554819D02*
X78100000Y-58792914D01*
X77861905Y-58697676D02*
X78100000Y-58792914D01*
X78100000Y-58792914D02*
X78338095Y-58697676D01*
X77957143Y-58983390D02*
X78100000Y-58792914D01*
X78100000Y-58792914D02*
X78242857Y-58983390D01*
X78861905Y-58554819D02*
X78861905Y-58792914D01*
X78623810Y-58697676D02*
X78861905Y-58792914D01*
X78861905Y-58792914D02*
X79100000Y-58697676D01*
X78719048Y-58983390D02*
X78861905Y-58792914D01*
X78861905Y-58792914D02*
X79004762Y-58983390D01*
X178633333Y-116384819D02*
X178300000Y-115908628D01*
X178061905Y-116384819D02*
X178061905Y-115384819D01*
X178061905Y-115384819D02*
X178442857Y-115384819D01*
X178442857Y-115384819D02*
X178538095Y-115432438D01*
X178538095Y-115432438D02*
X178585714Y-115480057D01*
X178585714Y-115480057D02*
X178633333Y-115575295D01*
X178633333Y-115575295D02*
X178633333Y-115718152D01*
X178633333Y-115718152D02*
X178585714Y-115813390D01*
X178585714Y-115813390D02*
X178538095Y-115861009D01*
X178538095Y-115861009D02*
X178442857Y-115908628D01*
X178442857Y-115908628D02*
X178061905Y-115908628D01*
X178966667Y-115384819D02*
X179585714Y-115384819D01*
X179585714Y-115384819D02*
X179252381Y-115765771D01*
X179252381Y-115765771D02*
X179395238Y-115765771D01*
X179395238Y-115765771D02*
X179490476Y-115813390D01*
X179490476Y-115813390D02*
X179538095Y-115861009D01*
X179538095Y-115861009D02*
X179585714Y-115956247D01*
X179585714Y-115956247D02*
X179585714Y-116194342D01*
X179585714Y-116194342D02*
X179538095Y-116289580D01*
X179538095Y-116289580D02*
X179490476Y-116337200D01*
X179490476Y-116337200D02*
X179395238Y-116384819D01*
X179395238Y-116384819D02*
X179109524Y-116384819D01*
X179109524Y-116384819D02*
X179014286Y-116337200D01*
X179014286Y-116337200D02*
X178966667Y-116289580D01*
X160091905Y-130874819D02*
X160091905Y-129874819D01*
X160091905Y-129874819D02*
X160330000Y-129874819D01*
X160330000Y-129874819D02*
X160472857Y-129922438D01*
X160472857Y-129922438D02*
X160568095Y-130017676D01*
X160568095Y-130017676D02*
X160615714Y-130112914D01*
X160615714Y-130112914D02*
X160663333Y-130303390D01*
X160663333Y-130303390D02*
X160663333Y-130446247D01*
X160663333Y-130446247D02*
X160615714Y-130636723D01*
X160615714Y-130636723D02*
X160568095Y-130731961D01*
X160568095Y-130731961D02*
X160472857Y-130827200D01*
X160472857Y-130827200D02*
X160330000Y-130874819D01*
X160330000Y-130874819D02*
X160091905Y-130874819D01*
X161615714Y-130874819D02*
X161044286Y-130874819D01*
X161330000Y-130874819D02*
X161330000Y-129874819D01*
X161330000Y-129874819D02*
X161234762Y-130017676D01*
X161234762Y-130017676D02*
X161139524Y-130112914D01*
X161139524Y-130112914D02*
X161044286Y-130160533D01*
D12*
%TO.C,R4*%
X157330000Y-92090000D02*
X157330000Y-92420000D01*
X157330000Y-94830000D02*
X157330000Y-94500000D01*
X163870000Y-92090000D02*
X157330000Y-92090000D01*
X163870000Y-92420000D02*
X163870000Y-92090000D01*
X163870000Y-94500000D02*
X163870000Y-94830000D01*
X163870000Y-94830000D02*
X157330000Y-94830000D01*
%TO.C,R2*%
X175830000Y-136990000D02*
X175830000Y-137320000D01*
X175830000Y-139730000D02*
X175830000Y-139400000D01*
X182370000Y-136990000D02*
X175830000Y-136990000D01*
X182370000Y-137320000D02*
X182370000Y-136990000D01*
X182370000Y-139400000D02*
X182370000Y-139730000D01*
X182370000Y-139730000D02*
X175830000Y-139730000D01*
%TO.C,R1*%
X175720000Y-125290000D02*
X175720000Y-125620000D01*
X175720000Y-128030000D02*
X175720000Y-127700000D01*
X182260000Y-125290000D02*
X175720000Y-125290000D01*
X182260000Y-125620000D02*
X182260000Y-125290000D01*
X182260000Y-127700000D02*
X182260000Y-128030000D01*
X182260000Y-128030000D02*
X175720000Y-128030000D01*
%TO.C,POT2*%
X137710000Y-61365000D02*
X147460000Y-61365000D01*
X137710000Y-71115000D02*
X137710000Y-61365000D01*
X147460000Y-61365000D02*
X147460000Y-71115000D01*
X147460000Y-71115000D02*
X137710000Y-71115000D01*
%TO.C,POT3*%
X118610000Y-61865000D02*
X128360000Y-61865000D01*
X118610000Y-71615000D02*
X118610000Y-61865000D01*
X128360000Y-61865000D02*
X128360000Y-71615000D01*
X128360000Y-71615000D02*
X118610000Y-71615000D01*
%TO.C,D3*%
X163390000Y-116305000D02*
X163390000Y-113215000D01*
X157840000Y-114760000D02*
G75*
G02*
X163390000Y-113215170I2990000J0D01*
G01*
X163390000Y-116304830D02*
G75*
G02*
X157840000Y-114760000I-2560000J1544830D01*
G01*
X163330000Y-114760000D02*
G75*
G02*
X158330000Y-114760000I-2500000J0D01*
G01*
X158330000Y-114760000D02*
G75*
G02*
X163330000Y-114760000I2500000J0D01*
G01*
%TO.C,J2*%
X104785000Y-102930000D02*
X106165000Y-102930000D01*
X104785000Y-104310000D02*
X104785000Y-102930000D01*
X104785000Y-105580000D02*
X104785000Y-143790000D01*
X104785000Y-105580000D02*
X107545000Y-105580000D01*
X104785000Y-143790000D02*
X107545000Y-143790000D01*
X107545000Y-105580000D02*
X107545000Y-143790000D01*
X134820000Y-103000000D02*
X136200000Y-103000000D01*
X134820000Y-104380000D02*
X134820000Y-103000000D01*
X134820000Y-105650000D02*
X134820000Y-143860000D01*
X134820000Y-105650000D02*
X137580000Y-105650000D01*
X134820000Y-143860000D02*
X137580000Y-143860000D01*
X137580000Y-105650000D02*
X137580000Y-143860000D01*
D13*
X104665000Y-103310000D02*
X137665000Y-103310000D01*
X137665000Y-143810000D01*
X104665000Y-143810000D01*
X104665000Y-103310000D01*
D12*
%TO.C,POT1*%
X97510000Y-62165000D02*
X107260000Y-62165000D01*
X97510000Y-71915000D02*
X97510000Y-62165000D01*
X107260000Y-62165000D02*
X107260000Y-71915000D01*
X107260000Y-71915000D02*
X97510000Y-71915000D01*
%TO.C,J1*%
X82130000Y-95330000D02*
X82130000Y-93950000D01*
X82140000Y-82780000D02*
X82140000Y-81400000D01*
X83510000Y-95330000D02*
X82130000Y-95330000D01*
X83520000Y-82780000D02*
X82140000Y-82780000D01*
X84780000Y-92570000D02*
X97590000Y-92570000D01*
X84780000Y-95330000D02*
X84780000Y-92570000D01*
X84780000Y-95330000D02*
X97590000Y-95330000D01*
X84790000Y-80020000D02*
X97600000Y-80020000D01*
X84790000Y-82780000D02*
X84790000Y-80020000D01*
X84790000Y-82780000D02*
X97600000Y-82780000D01*
X97590000Y-95330000D02*
X97590000Y-92570000D01*
X97600000Y-82780000D02*
X97600000Y-80020000D01*
D13*
X82140000Y-95180000D02*
X97410000Y-95180000D01*
X97410000Y-80010000D01*
X82140000Y-80010000D01*
X82140000Y-95180000D01*
D12*
%TO.C,D2*%
X163590000Y-139705000D02*
X163590000Y-136615000D01*
X158040000Y-138160000D02*
G75*
G02*
X163590000Y-136615170I2990000J0D01*
G01*
X163590000Y-139704830D02*
G75*
G02*
X158040000Y-138160000I-2560000J1544830D01*
G01*
X163530000Y-138160000D02*
G75*
G02*
X158530000Y-138160000I-2500000J0D01*
G01*
X158530000Y-138160000D02*
G75*
G02*
X163530000Y-138160000I2500000J0D01*
G01*
D14*
%TO.C,SW1*%
X176170900Y-95210900D02*
X176170900Y-103669100D01*
X176170900Y-103669100D02*
X184629100Y-103669100D01*
X184629100Y-95210900D02*
X176170900Y-95210900D01*
X184629100Y-103669100D02*
X184629100Y-95210900D01*
X180603200Y-93432900D02*
G75*
G02*
X180196800Y-93432900I-203200J0D01*
G01*
X180196800Y-93432900D02*
G75*
G02*
X180603200Y-93432900I203200J0D01*
G01*
D12*
%TO.C,R3*%
X175530000Y-112190000D02*
X175530000Y-112520000D01*
X175530000Y-114930000D02*
X175530000Y-114600000D01*
X182070000Y-112190000D02*
X175530000Y-112190000D01*
X182070000Y-112520000D02*
X182070000Y-112190000D01*
X182070000Y-114600000D02*
X182070000Y-114930000D01*
X182070000Y-114930000D02*
X175530000Y-114930000D01*
%TO.C,D1*%
X163390000Y-128005000D02*
X163390000Y-124915000D01*
X157840000Y-126460000D02*
G75*
G02*
X163390000Y-124915170I2990000J0D01*
G01*
X163390000Y-128004830D02*
G75*
G02*
X157840000Y-126460000I-2560000J1544830D01*
G01*
X163330000Y-126460000D02*
G75*
G02*
X158330000Y-126460000I-2500000J0D01*
G01*
X158330000Y-126460000D02*
G75*
G02*
X163330000Y-126460000I2500000J0D01*
G01*
%TD*%
M02*
